<?xml version="1.0" encoding="UTF-8" standalone="no"?>
<!-- Created with Inkscape (http://www.inkscape.org/) -->
<svg xmlns:svg="http://www.w3.org/2000/svg" xmlns="http://www.w3.org/2000/svg" xmlns:xlink="http://www.w3.org/1999/xlink" version="1.0" width="720pt" height="1400pt" id="svg2">
  <defs id="defs4">
    <marker refX="0" refY="0" orient="auto" style="overflow:visible" id="Arrow1Mend">
      <path d="M 0,0 L 5,-5 L -12.5,0 L 5,5 L 0,0 z " transform="scale(-0.4,-0.4)" style="fill-rule:evenodd;stroke:#000000;stroke-width:1pt;marker-start:none" id="path5914"/>
    </marker>
    <marker refX="0" refY="0" orient="auto" style="overflow:visible" id="TriangleOutL">
      <path d="M 5.77,0 L -2.88,5 L -2.88,-5 L 5.77,0 z " transform="scale(0.8,0.8)" style="fill-rule:evenodd;stroke:#000000;stroke-width:1pt;marker-start:none" id="path5822"/>
    </marker>
    <marker refX="0" refY="0" orient="auto" style="overflow:visible" id="TriangleOutM">
      <path d="M 5.77,0 L -2.88,5 L -2.88,-5 L 5.77,0 z " transform="scale(0.4,0.4)" style="fill-rule:evenodd;stroke:#000000;stroke-width:1pt;marker-start:none" id="path5819"/>
    </marker>
    <marker refX="0" refY="0" orient="auto" style="overflow:visible" id="SquareM">
      <path d="M -5,-5 L -5,5 L 5,5 L 5,-5 L -5,-5 z " transform="scale(0.4,0.4)" style="fill-rule:evenodd;stroke:#000000;stroke-width:1pt;marker-start:none" id="path5846"/>
    </marker>
    <marker refX="0" refY="0" orient="auto" style="overflow:visible" id="DistanceIn">
      <g transform="matrix(0.6,0,0,0.6,4.8,0)" id="g5868">
        <path d="M 0,0 L 5,-5 L -12.5,0 L 5,5 L 0,0 z " style="fill-rule:evenodd;stroke:#000000;stroke-width:1pt;marker-start:none" id="path5870"/>
        <path d="M -14.759949,-7 L -14.759949,65" style="fill:none;fill-opacity:0.75;fill-rule:evenodd;stroke:#000000;stroke-width:1.2pt;marker-start:none" id="path5872"/>
      </g>
    </marker>
    <marker refX="0" refY="0" orient="auto" style="overflow:visible" id="StopL">
      <path d="M 0,5.65 L 0,-5.65" transform="scale(0.8,0.8)" style="fill:none;fill-opacity:0.75;fill-rule:evenodd;stroke:#000000;stroke-width:1pt" id="path5813"/>
    </marker>
    <linearGradient id="linearGradient4847">
      <stop style="stop-color:#5a67aa;stop-opacity:1" offset="0" id="stop4849"/>
      <stop style="stop-color:#f8fcfd;stop-opacity:1" offset="1" id="stop4851"/>
    </linearGradient>
    <linearGradient id="linearGradient2208">
      <stop style="stop-color:#0095ff;stop-opacity:0.28125" offset="0" id="stop2210"/>
      <stop style="stop-color:#00c5ff;stop-opacity:0" offset="1" id="stop2212"/>
    </linearGradient>
    <linearGradient x1="132.85715" y1="243.79076" x2="204.57144" y2="175.21933" id="linearGradient7021" xlink:href="#linearGradient4847" gradientUnits="userSpaceOnUse" gradientTransform="translate(-24,298)"/>
    <linearGradient x1="132.85715" y1="243.79076" x2="204.57144" y2="175.21933" id="linearGradient7923" xlink:href="#linearGradient4847" gradientUnits="userSpaceOnUse" gradientTransform="translate(96,586)"/>
    <linearGradient x1="132.85715" y1="243.79076" x2="204.57144" y2="175.21933" id="linearGradient7946" xlink:href="#linearGradient4847" gradientUnits="userSpaceOnUse" gradientTransform="translate(36,10)"/>
    <linearGradient x1="132.85715" y1="243.79076" x2="204.57144" y2="175.21933" id="linearGradient13498" xlink:href="#linearGradient4847" gradientUnits="userSpaceOnUse" gradientTransform="matrix(2.029935,0,0,2.029935,178.5865,1170.432)"/>
    <linearGradient x1="132.85715" y1="243.79076" x2="204.57144" y2="175.21933" id="linearGradient13504" xlink:href="#linearGradient4847" gradientUnits="userSpaceOnUse" gradientTransform="matrix(2.029935,0,0,2.029935,-65.0057,585.8112)"/>
    <linearGradient x1="132.85715" y1="243.79076" x2="204.57144" y2="175.21933" id="linearGradient13513" xlink:href="#linearGradient4847" gradientUnits="userSpaceOnUse" gradientTransform="matrix(2.029935,0,0,2.029935,56.7904,1.18989)"/>
  </defs>
  <g style="display:inline" id="layer1">
    <path d="M 414.05896,16.134643 L 414.05896,517.52858" style="opacity:0.34375;fill:none;fill-opacity:0.75;fill-rule:evenodd;stroke:#000000;stroke-width:3.04490256;stroke-linecap:butt;stroke-linejoin:miter;stroke-miterlimit:4;stroke-dasharray:12.17961, 3.0449025;stroke-dashoffset:0;stroke-opacity:1" id="path5974"/>
    <path d="M 86.949435,44.263751 L 86.949435,476.34991 L 840.92528,476.34991" style="fill:none;fill-opacity:1;fill-rule:evenodd;stroke:#000000;stroke-width:10.14967537;stroke-linecap:butt;stroke-linejoin:miter;stroke-miterlimit:4;stroke-dasharray:none;stroke-opacity:1" id="path1309"/>
    <rect width="120.34615" height="120.34615" x="353.74091" y="350.78394" style="fill:url(#linearGradient13513);fill-opacity:1;stroke:#001c48;stroke-width:4.05986977;stroke-miterlimit:4;stroke-dasharray:none;stroke-dashoffset:0;stroke-opacity:1" id="rect3972"/>
    <path d="M 92.35628,420.33387 L 103.20534,400.03454 L 114.05441,420.33387 L 124.90347,400.03454 L 135.75254,420.33387 L 146.6016,400.03454 L 157.45067,420.33387 L 168.29973,400.03454 L 179.1488,420.33387 L 189.99786,400.03454 L 200.84693,420.33387 L 211.696,400.03454 L 222.54505,420.33387 L 233.39412,400.03454 L 244.24318,420.33387 L 255.09225,400.03454 L 265.9413,420.33387 L 276.79037,400.03454 L 287.63942,420.33387 L 298.48851,400.03454 L 309.33756,420.33387 L 320.18663,400.03454 L 331.03567,420.33387 L 341.88476,400.03454 L 352.73381,420.33387" style="fill:none;fill-opacity:0.75;fill-rule:evenodd;stroke:#000000;stroke-width:3.04490256;stroke-linecap:butt;stroke-linejoin:bevel;stroke-miterlimit:4;stroke-dasharray:none;stroke-opacity:1" id="path5948"/>
    <text x="376.26617" y="323.6073" style="font-size:25.95192337px;font-style:normal;font-variant:normal;font-weight:normal;font-stretch:normal;text-align:start;line-height:125%;writing-mode:lr-tb;text-anchor:start;fill:#000000;fill-opacity:1;stroke:none;stroke-width:1px;stroke-linecap:butt;stroke-linejoin:miter;stroke-opacity:1;font-family:Verdana" id="text5962" xml:space="preserve"><tspan x="376.26617" y="323.6073" id="tspan5964">s</tspan></text>
    <path d="M 379.77882,288.90865 L 363.52462,288.90865 L 363.52462,297.97475 L 377.4907,297.97475 L 377.4907,301.77385 L 363.52462,301.77385 L 363.52462,317.25097 L 359.25061,317.25097 L 359.25061,285.10955 L 379.77882,285.10955 L 379.77882,288.90865 M 426.74977,300.37078 L 401.14888,300.37078 L 401.14888,296.91701 L 426.74977,296.91701 L 426.74977,300.37078 M 426.74977,309.43686 L 401.14888,309.43686 L 401.14888,305.98313 L 426.74977,305.98313 L 426.74977,309.43686 M 472.77097,301.16944 C 472.77093,306.94012 471.86432,311.17814 470.05112,313.88357 C 468.2523,316.57462 465.45332,317.92014 461.6542,317.92014 C 457.79752,317.92014 454.97697,316.55302 453.19253,313.81882 C 451.42247,311.08458 450.53746,306.88253 450.53746,301.21262 C 450.53746,295.49957 451.43688,291.28313 453.23571,288.56328 C 455.03454,285.8291 457.84068,284.46198 461.6542,284.46196 C 465.51087,284.46198 468.32424,285.85068 470.0943,288.62804 C 471.87872,291.39106 472.77093,295.57153 472.77097,301.16944 M 467.09387,310.96946 C 467.59752,309.80381 467.93569,308.43673 468.10842,306.86814 C 468.29545,305.28518 468.38899,303.38562 468.38901,301.16944 C 468.38899,298.98209 468.29545,297.08253 468.10842,295.47076 C 467.93569,293.85904 467.59034,292.49196 467.07228,291.36944 C 466.56859,290.2614 465.87782,289.42675 465.00004,288.86548 C 464.13656,288.30428 463.02132,288.02368 461.6542,288.02364 C 460.30149,288.02368 459.17904,288.30428 458.28682,288.86548 C 457.40897,289.42675 456.71102,290.27578 456.19298,291.41262 C 455.70369,292.47754 455.3655,293.86622 455.17844,295.5787 C 455.00573,297.29119 454.91942,299.16918 454.91942,301.21262 C 454.91942,303.45758 454.99855,305.33554 455.15684,306.84654 C 455.31514,308.35756 455.65332,309.71031 456.17138,310.90473 C 456.64627,312.02718 457.31543,312.88345 458.17887,313.47343 C 459.05669,314.06347 460.21513,314.35846 461.6542,314.35846 C 463.0069,314.35846 464.12938,314.07784 465.02161,313.5166 C 465.91381,312.95539 466.60456,312.10633 467.09387,310.96946" style="font-size:12px;font-style:normal;font-variant:normal;font-weight:normal;font-stretch:normal;text-align:start;line-height:125%;writing-mode:lr-tb;text-anchor:start;font-family:Verdana" id="text7956"/>
    <path d="M 414.05896,600.75592 L 414.05896,1102.1499" style="opacity:0.34375;fill:none;fill-opacity:0.75;fill-rule:evenodd;stroke:#000000;stroke-width:3.04490256;stroke-linecap:butt;stroke-linejoin:miter;stroke-miterlimit:4;stroke-dasharray:12.17961, 3.0449025;stroke-dashoffset:0;stroke-opacity:1" id="path6942"/>
    <path d="M 86.949435,628.88503 L 86.949435,1060.9712 L 840.92528,1060.9712" style="fill:none;fill-opacity:1;fill-rule:evenodd;stroke:#000000;stroke-width:10.14967537;stroke-linecap:butt;stroke-linejoin:miter;stroke-miterlimit:4;stroke-dasharray:none;stroke-opacity:1" id="path6944"/>
    <rect width="120.34615" height="120.34615" x="231.94481" y="935.40521" style="fill:url(#linearGradient13504);fill-opacity:1;stroke:#001c48;stroke-width:4.05986977;stroke-miterlimit:4;stroke-dasharray:none;stroke-dashoffset:0;stroke-opacity:1" id="rect6946"/>
    <path d="M 91.627196,1004.9552 L 97.487233,984.65582 L 103.34727,1004.9552 L 109.20731,984.65582 L 115.06735,1004.9552 L 120.92738,984.65582 L 126.78742,1004.9552 L 132.64746,984.65582 L 138.5075,1004.9552 L 144.36753,984.65582 L 150.22757,1004.9552 L 156.08761,984.65582 L 161.94765,1004.9552 L 167.80768,984.65582 L 173.66772,1004.9552 L 179.52776,984.65582 L 185.38779,1004.9552 L 191.24783,984.65582 L 197.10785,1004.9552 L 202.96791,984.65582 L 208.82794,1004.9552 L 214.68798,984.65582 L 220.54802,1004.9552 L 226.40805,984.65582 L 232.26809,1004.9552" style="fill:none;fill-opacity:0.75;fill-rule:evenodd;stroke:#000000;stroke-width:2.23783183;stroke-linecap:butt;stroke-linejoin:bevel;stroke-miterlimit:4;stroke-dasharray:none;stroke-opacity:1" id="path6948"/>
    <path d="M 414.05896,1185.3772 L 414.05896,1686.7711" style="opacity:0.34375;fill:none;fill-opacity:0.75;fill-rule:evenodd;stroke:#000000;stroke-width:3.04490256;stroke-linecap:butt;stroke-linejoin:miter;stroke-miterlimit:4;stroke-dasharray:12.17961, 3.0449025;stroke-dashoffset:0;stroke-opacity:1" id="path6976"/>
    <path d="M 86.949435,1213.5063 L 86.949435,1645.5925 L 840.92528,1645.5925" style="fill:none;fill-opacity:1;fill-rule:evenodd;stroke:#000000;stroke-width:10.14967537;stroke-linecap:butt;stroke-linejoin:miter;stroke-miterlimit:4;stroke-dasharray:none;stroke-opacity:1" id="path6978"/>
    <rect width="120.34615" height="120.34615" x="475.53702" y="1520.0266" style="fill:url(#linearGradient13498);fill-opacity:1;stroke:#001c48;stroke-width:4.05986977;stroke-miterlimit:4;stroke-dasharray:none;stroke-dashoffset:0;stroke-opacity:1" id="rect6980"/>
    <path d="M 93.049582,1589.5764 L 108.96799,1569.2771 L 124.88641,1589.5764 L 140.80482,1569.2771 L 156.72323,1589.5764 L 172.64164,1569.2771 L 188.56006,1589.5764 L 204.47846,1569.2771 L 220.39689,1589.5764 L 236.31529,1569.2771 L 252.2337,1589.5764 L 268.1521,1569.2771 L 284.07051,1589.5764 L 299.98893,1569.2771 L 315.90736,1589.5764 L 331.82577,1569.2771 L 347.74415,1589.5764 L 363.66258,1569.2771 L 379.58098,1589.5764 L 395.49943,1569.2771 L 411.41781,1589.5764 L 427.33622,1569.2771 L 443.2546,1589.5764 L 459.17307,1569.2771 L 475.09145,1589.5764" style="fill:none;fill-opacity:0.75;fill-rule:evenodd;stroke:#000000;stroke-width:3.68830752;stroke-linecap:butt;stroke-linejoin:bevel;stroke-miterlimit:4;stroke-dasharray:none;stroke-opacity:1" id="path6982"/>
    <text x="538.90259" y="1486.6298" style="font-size:27.48463821px;font-style:normal;font-variant:normal;font-weight:normal;font-stretch:normal;text-align:start;line-height:125%;writing-mode:lr-tb;text-anchor:start;fill:#000000;fill-opacity:1;stroke:none;stroke-width:1px;stroke-linecap:butt;stroke-linejoin:miter;stroke-opacity:1;font-family:Verdana" id="text6994" xml:space="preserve"><tspan x="538.90259" y="1486.6298" id="tspan6996">s</tspan></text>
    <text x="516.30994" y="1479.8981" style="font-size:37.45510101px;font-style:normal;font-variant:normal;font-weight:normal;font-stretch:normal;text-align:start;line-height:125%;writing-mode:lr-tb;text-anchor:start;font-family:Verdana" id="text7962" xml:space="preserve"><tspan x="516.30994" y="1479.8981" id="tspan7964"><tspan x="516.30994" y="1479.8981" style="font-size:46.81887436px;line-height:100%;font-family:Verdana" id="tspan7966">F</tspan></tspan></text>
    <path d="M 292.26286,1061.5512 L 292.26286,1087.9403" style="fill:none;fill-opacity:0.75;fill-rule:evenodd;stroke:#000000;stroke-width:2.02993488px;stroke-linecap:butt;stroke-linejoin:miter;stroke-opacity:1" id="path7025"/>
    <path d="M 535.85506,1646.1724 L 535.85506,1672.5616" style="fill:none;fill-opacity:0.75;fill-rule:evenodd;stroke:#000000;stroke-width:2.02993488px;stroke-linecap:butt;stroke-linejoin:miter;stroke-opacity:1" id="path7027"/>
    <path d="M 371.97091,535.57275 L 361.26597,549.97815 L 372.52598,565.17651 L 366.79025,565.17651 L 358.17344,553.54646 L 349.55663,565.17651 L 343.8209,565.17651 L 355.31879,549.6874 L 344.79888,535.57275 L 350.53461,535.57275 L 358.38489,546.11909 L 366.23518,535.57275 L 371.97091,535.57275 M 397.26627,540.59481 L 431.15201,540.59481 L 431.15201,545.03538 L 397.26627,545.03538 L 397.26627,540.59481 M 397.26627,551.37904 L 431.15201,551.37904 L 431.15201,555.87247 L 397.26627,555.87247 L 397.26627,551.37904 M 471.32855,529.22908 C 468.57961,529.22912 466.50912,530.58596 465.11705,533.2996 C 463.74258,535.99569 463.05535,540.05739 463.05535,545.48472 C 463.05535,550.89447 463.74258,554.95618 465.11705,557.66984 C 466.50912,560.36591 468.57961,561.71393 471.32855,561.71393 C 474.09507,561.71393 476.16557,560.36591 477.54006,557.66984 C 478.93211,554.95618 479.62815,550.89447 479.62818,545.48472 C 479.62815,540.05739 478.93211,535.99569 477.54006,533.2996 C 476.16557,530.58596 474.09507,529.22912 471.32855,529.22908 M 471.32855,524.99997 C 475.75147,525.00001 479.12595,526.75333 481.45198,530.25993 C 483.79558,533.74897 484.9674,538.8239 484.96743,545.48472 C 484.9674,552.12796 483.79558,557.20289 481.45198,560.70952 C 479.12595,564.19853 475.75147,565.94304 471.32855,565.94304 C 466.90559,565.94304 463.52231,564.19853 461.17869,560.70952 C 458.85267,557.20289 457.68967,552.12796 457.68967,545.48472 C 457.68967,538.8239 458.85267,533.74897 461.17869,530.25993 C 463.52231,526.75333 466.90559,525.00001 471.32855,524.99997" id="text7950"/>
    <path d="M 500.1061,1702.1733 L 490.16878,1715.5458 L 500.62137,1729.6543 L 495.29693,1729.6543 L 487.298,1718.8582 L 479.29907,1729.6543 L 473.97464,1729.6543 L 484.64805,1715.2759 L 474.88249,1702.1733 L 480.20693,1702.1733 L 487.49429,1711.9634 L 494.78166,1702.1733 L 500.1061,1702.1733 M 523.58761,1704.9214 L 523.58761,1700.4558 L 555.04351,1711.8653 L 555.04351,1715.9383 L 523.58761,1727.3479 L 523.58761,1722.8822 L 548.86029,1713.9263 L 523.58761,1704.9214 M 592.33911,1696.2845 C 589.7873,1696.2846 587.86527,1697.5441 586.57302,1700.0632 C 585.29711,1702.5659 584.65916,1706.3364 584.65916,1711.3745 C 584.65916,1716.3964 585.29711,1720.1668 586.57302,1722.6859 C 587.86527,1725.1886 589.7873,1726.44 592.33911,1726.44 C 594.90726,1726.44 596.82929,1725.1886 598.10521,1722.6859 C 599.39745,1720.1668 600.04358,1716.3964 600.0436,1711.3745 C 600.04358,1706.3364 599.39745,1702.5659 598.10521,1700.0632 C 596.82929,1697.5441 594.90726,1696.2846 592.33911,1696.2845 M 592.33911,1692.3587 C 596.44488,1692.3587 599.57738,1693.9863 601.73663,1697.2415 C 603.91218,1700.4803 604.99996,1705.1913 604.99999,1711.3745 C 604.99996,1717.5414 603.91218,1722.2524 601.73663,1725.5076 C 599.57738,1728.7464 596.44488,1730.3659 592.33911,1730.3659 C 588.23331,1730.3659 585.09264,1728.7464 582.91707,1725.5076 C 580.75784,1722.2524 579.67823,1717.5414 579.67824,1711.3745 C 579.67823,1705.1913 580.75784,1700.4803 582.91707,1697.2415 C 585.09264,1693.9863 588.23331,1692.3587 592.33911,1692.3587" id="text7968"/>
    <path d="M 249.13354,1121.7568 L 238.91461,1135.5082 L 249.66341,1150.0166 L 244.18808,1150.0166 L 235.96247,1138.9146 L 227.73687,1150.0166 L 222.26154,1150.0166 L 233.23743,1135.2307 L 223.19512,1121.7568 L 228.67045,1121.7568 L 236.16433,1131.8244 L 243.65821,1121.7568 L 249.13354,1121.7568 M 305.62781,1124.5828 L 279.58847,1133.8429 L 305.62781,1143.0526 L 305.62781,1147.6448 L 273.28049,1135.912 L 273.28049,1131.7235 L 305.62781,1119.9906 L 305.62781,1124.5828 M 343.98033,1115.7012 C 341.3562,1115.7012 339.3797,1116.9965 338.05083,1119.5869 C 336.73876,1122.1606 336.08273,1126.0379 336.08274,1131.2188 C 336.08273,1136.383 336.73876,1140.2603 338.05083,1142.8507 C 339.3797,1145.4244 341.3562,1146.7112 343.98033,1146.7112 C 346.62126,1146.7112 348.59775,1145.4244 349.90983,1142.8507 C 351.23869,1140.2603 351.90313,1136.383 351.90316,1131.2188 C 351.90313,1126.0379 351.23869,1122.1606 349.90983,1119.5869 C 348.59775,1116.9965 346.62126,1115.7012 343.98033,1115.7012 M 343.98033,1111.6641 C 348.20245,1111.6641 351.42373,1113.3378 353.64416,1116.6852 C 355.88136,1120.0159 356.99998,1124.8604 357,1131.2188 C 356.99998,1137.5605 355.88136,1142.405 353.64416,1145.7524 C 351.42373,1149.083 348.20245,1150.7483 343.98033,1150.7483 C 339.75818,1150.7483 336.5285,1149.083 334.29127,1145.7524 C 332.07086,1142.405 330.96066,1137.5605 330.96066,1131.2188 C 330.96066,1124.8604 332.07086,1120.0159 334.29127,1116.6852 C 336.5285,1113.3378 339.75818,1111.6641 343.98033,1111.6641" id="text7974"/>
    <path d="M 306.47245,897.76078 C 306.4724,899.10815 305.91322,900.21339 304.79479,901.07642 C 303.68518,901.93944 302.16608,902.37095 300.23748,902.37095 C 299.14548,902.37095 298.14155,902.24326 297.22567,901.98788 C 296.31861,901.72368 295.55684,901.43746 294.94041,901.12926 L 294.94041,898.34201 L 295.07249,898.34201 C 295.85625,898.93205 296.72811,899.40318 297.688,899.75546 C 298.64792,900.0989 299.56819,900.27061 300.44884,900.27061 C 301.54082,900.27061 302.39504,900.09448 303.01151,899.74224 C 303.62794,899.38997 303.93618,898.83519 303.93618,898.0778 C 303.93618,897.49659 303.76884,897.05627 303.4342,896.75684 C 303.09957,896.45742 302.45669,896.20206 301.5056,895.99068 C 301.15333,895.91145 300.69099,895.81897 300.11859,895.71329 C 299.55498,895.60763 299.03978,895.49312 298.57306,895.36982 C 297.2785,895.02638 296.35823,894.52444 295.81222,893.86392 C 295.27504,893.19465 295.00644,892.37565 295.00644,891.40692 C 295.00644,890.79932 295.12972,890.22688 295.37629,889.68968 C 295.6317,889.15252 296.01479,888.67256 296.52556,888.24981 C 297.01871,887.83594 297.64395,887.5101 298.40134,887.27231 C 299.16748,887.02575 300.02172,886.90246 300.96399,886.90244 C 301.84462,886.90246 302.73408,887.01254 303.63236,887.23267 C 304.53942,887.44404 305.29234,887.70383 305.89119,888.01204 L 305.89119,890.66721 L 305.75913,890.66721 C 305.12504,890.20047 304.35447,889.80857 303.44742,889.49154 C 302.54034,889.16571 301.65088,889.00279 300.77907,889.00277 C 299.87201,889.00279 299.10583,889.17893 298.48059,889.53116 C 297.85533,889.87463 297.5427,890.3898 297.5427,891.07669 C 297.5427,891.68435 297.73203,892.14227 298.11074,892.45049 C 298.48057,892.75874 299.07942,893.0097 299.90721,893.20344 C 300.36516,893.30913 300.87594,893.41481 301.43955,893.52047 C 302.01195,893.62615 302.4875,893.72302 302.86618,893.81112 C 304.01984,894.07529 304.90925,894.52882 305.53453,895.1717 C 306.15982,895.82337 306.4724,896.6864 306.47245,897.76078" style="font-size:8.80562687px;font-style:normal;font-variant:normal;font-weight:normal;font-stretch:normal;text-align:start;line-height:125%;writing-mode:lr-tb;text-anchor:start;fill:#000000;fill-opacity:1;stroke:none;stroke-width:1px;stroke-linecap:butt;stroke-linejoin:miter;stroke-opacity:1;font-family:Verdana" id="text6960"/>
    <path d="M 297.14908,865.84275 L 280.20503,865.84275 L 280.20503,875.29362 L 294.76384,875.29362 L 294.76384,879.25401 L 280.20503,879.25401 L 280.20503,895.38799 L 275.7496,895.38799 L 275.7496,861.88239 L 297.14908,861.88239 L 297.14908,865.84275" style="font-size:12px;font-style:normal;font-variant:normal;font-weight:normal;font-stretch:normal;text-align:start;line-height:125%;writing-mode:lr-tb;text-anchor:start;font-family:Verdana" id="text7980"/>
    <path d="M 257.75396,914.61667 L 318.65202,914.61667" style="fill:none;fill-opacity:0.75;fill-rule:evenodd;stroke:#000000;stroke-width:2.02993488;stroke-linecap:butt;stroke-linejoin:miter;marker-start:none;marker-end:none;stroke-miterlimit:4;stroke-opacity:1" id="path7031"/>
    <path d="M 319.66698,920.79145 L 319.66698,908.61184 L 329.81666,914.70164 L 319.66698,920.79145 z " style="fill:#000000;fill-opacity:1;fill-rule:evenodd;stroke:#000000;stroke-width:2.02993488px;stroke-linecap:butt;stroke-linejoin:miter;stroke-opacity:1" id="path11495"/>
    <path d="M 571.37892,1501.1981 L 510.48087,1501.1981" style="fill:none;fill-opacity:0.75;fill-rule:evenodd;stroke:#000000;stroke-width:2.02993488;stroke-linecap:butt;stroke-linejoin:miter;marker-start:none;marker-end:none;stroke-miterlimit:4;stroke-opacity:1" id="path12376"/>
    <path d="M 509.46591,1507.3728 L 509.46591,1495.1932 L 499.31623,1501.283 L 509.46591,1507.3728 z " style="fill:#000000;fill-opacity:1;fill-rule:evenodd;stroke:#000000;stroke-width:2.02993488px;stroke-linecap:butt;stroke-linejoin:miter;stroke-opacity:1" id="path12378"/>
    <path d="M -125.33498 263.992 A 11.294722 11.294722 0 1 1  -147.92442,263.992 A 11.294722 11.294722 0 1 1  -125.33498 263.992 z" transform="matrix(2.029935,0,0,2.029935,318.1208,-282.3865)" style="fill:none;fill-opacity:1;stroke:#000000;stroke-width:2;stroke-linecap:butt;stroke-linejoin:round;stroke-miterlimit:4;stroke-dasharray:none;stroke-dashoffset:0;stroke-opacity:1" id="path12380"/>
    <path d="M -179.52344,270.91021 L -181.12891,275.26372 L -177.91211,275.26372 L -179.52344,270.91021 M -180.19141,269.74419 L -178.84961,269.74419 L -175.51563,278.49224 L -176.74609,278.49224 L -177.54297,276.2481 L -181.48633,276.2481 L -182.2832,278.49224 L -183.53125,278.49224 L -180.19141,269.74419" transform="matrix(3.23148,0,0,2.827009,620.8919,-523.2625)" style="stroke:#000000;stroke-opacity:1" id="flowRoot12382"/>
    <path d="M -125.33498 263.992 A 11.294722 11.294722 0 1 1  -147.92442,263.992 A 11.294722 11.294722 0 1 1  -125.33498 263.992 z" transform="matrix(2.029935,0,0,2.029935,318.1208,326.594)" style="fill:none;fill-opacity:1;stroke:#000000;stroke-width:2;stroke-linecap:butt;stroke-linejoin:round;stroke-miterlimit:4;stroke-dasharray:none;stroke-dashoffset:0;stroke-opacity:1" id="path12399"/>
    <path d="M -181.26367,274.31451 L -181.26367,277.51958 L -179.36523,277.51958 C -178.72852,277.51958 -178.25782,277.38873 -177.95313,277.12701 C -177.64454,276.86138 -177.49024,276.45709 -177.49023,275.91411 C -177.49024,275.36724 -177.64454,274.9649 -177.95313,274.70708 C -178.25782,274.44537 -178.72852,274.31451 -179.36523,274.31451 L -181.26367,274.31451 M -181.26367,270.71685 L -181.26367,273.35357 L -179.51172,273.35357 C -178.9336,273.35357 -178.50391,273.24615 -178.22266,273.0313 C -177.93751,272.81256 -177.79493,272.48053 -177.79492,272.03521 C -177.79493,271.59381 -177.93751,271.26373 -178.22266,271.04497 C -178.50391,270.82623 -178.9336,270.71686 -179.51172,270.71685 L -181.26367,270.71685 M -182.44727,269.74419 L -179.42383,269.74419 C -178.52149,269.7442 -177.82618,269.9317 -177.33789,270.30669 C -176.84962,270.6817 -176.60548,271.2149 -176.60547,271.9063 C -176.60548,272.44146 -176.73048,272.86725 -176.98047,273.18365 C -177.23048,273.50006 -177.59766,273.69732 -178.08203,273.77544 C -177.50001,273.90045 -177.04883,274.16217 -176.72852,274.5606 C -176.4043,274.95513 -176.24219,275.44927 -176.24219,276.04302 C -176.24219,276.82427 -176.50782,277.42779 -177.03906,277.85357 C -177.57032,278.27935 -178.32618,278.49224 -179.30664,278.49224 L -182.44727,278.49224 L -182.44727,269.74419" transform="matrix(3.387482,0,0,2.683594,648.704,126.805)" style="stroke:#000000;stroke-opacity:1" id="flowRoot12401"/>
    <path d="M -125.33498 263.992 A 11.294722 11.294722 0 1 1  -147.92442,263.992 A 11.294722 11.294722 0 1 1  -125.33498 263.992 z" transform="matrix(2.029935,0,0,2.029935,318.1208,919.0041)" style="fill:none;fill-opacity:1;stroke:#000000;stroke-width:2;stroke-linecap:butt;stroke-linejoin:round;stroke-miterlimit:4;stroke-dasharray:none;stroke-dashoffset:0;stroke-opacity:1" id="path12411"/>
    <path d="M -175.89648,270.41802 L -175.89648,271.66607 C -176.29493,271.29498 -176.72071,271.01764 -177.17383,270.83404 C -177.62305,270.65045 -178.10157,270.55865 -178.60938,270.55865 C -179.60938,270.55865 -180.375,270.86529 -180.90625,271.47857 C -181.4375,272.08795 -181.70313,272.97076 -181.70313,274.12701 C -181.70313,275.27935 -181.4375,276.16216 -180.90625,276.77544 C -180.375,277.38482 -179.60938,277.68951 -178.60938,277.68951 C -178.10157,277.68951 -177.62305,277.59771 -177.17383,277.41411 C -176.72071,277.23052 -176.29493,276.95318 -175.89648,276.58208 L -175.89648,277.81841 C -176.31055,278.09966 -176.75001,278.3106 -177.21484,278.45122 C -177.67579,278.59185 -178.16407,278.66216 -178.67969,278.66216 C -180.00391,278.66216 -181.04688,278.25787 -181.80859,277.44927 C -182.57031,276.63677 -182.95117,275.52935 -182.95117,274.12701 C -182.95117,272.72076 -182.57031,271.61334 -181.80859,270.80474 C -181.04688,269.99225 -180.00391,269.586 -178.67969,269.58599 C -178.15626,269.586 -177.66407,269.65631 -177.20313,269.79693 C -176.73829,269.93365 -176.30274,270.14069 -175.89648,270.41802" transform="matrix(2.936569,0,0,2.589174,566.1311,745.2985)" style="stroke:#000000;stroke-opacity:1" id="flowRoot12413"/>
  </g>
</svg>