<?xml version="1.0" encoding="UTF-8" standalone="no"?>
<!-- Created with Inkscape (http://www.inkscape.org/) -->

<svg
   xmlns:dc="http://purl.org/dc/elements/1.1/"
   xmlns:cc="http://creativecommons.org/ns#"
   xmlns:rdf="http://www.w3.org/1999/02/22-rdf-syntax-ns#"
   xmlns:svg="http://www.w3.org/2000/svg"
   xmlns="http://www.w3.org/2000/svg"
   xmlns:sodipodi="http://sodipodi.sourceforge.net/DTD/sodipodi-0.dtd"
   xmlns:inkscape="http://www.inkscape.org/namespaces/inkscape"
   width="113.6728mm"
   height="72.491257mm"
   viewBox="0 0 402.77763 256.85879"
   id="svg2"
   version="1.1"
   inkscape:version="0.91 r13725"
   sodipodi:docname="Mittelwertsatz6.svg">
  <sodipodi:namedview
     id="base"
     pagecolor="#ffffff"
     bordercolor="#666666"
     borderopacity="1.0"
     inkscape:pageopacity="0.0"
     inkscape:pageshadow="2"
     inkscape:zoom="1.8703875"
     inkscape:cx="184.15713"
     inkscape:cy="98.370714"
     inkscape:document-units="px"
     inkscape:current-layer="layer4"
     showgrid="false"
     fit-margin-top="5"
     fit-margin-right="5"
     fit-margin-bottom="5"
     fit-margin-left="5"
     inkscape:window-width="1366"
     inkscape:window-height="744"
     inkscape:window-x="0"
     inkscape:window-y="24"
     inkscape:window-maximized="1" />
  <defs
     id="defs4">
    <marker
       inkscape:isstock="true"
       style="overflow:visible"
       id="marker4309"
       refX="0"
       refY="0"
       orient="auto"
       inkscape:stockid="Arrow1Mend">
      <path
         transform="matrix(-0.4,0,0,-0.4,-4,0)"
         style="fill:#000080;fill-opacity:1;fill-rule:evenodd;stroke:#000080;stroke-width:1pt;stroke-opacity:1"
         d="M 0,0 5,-5 -12.5,0 5,5 0,0 Z"
         id="path4311"
         inkscape:connector-curvature="0" />
    </marker>
    <marker
       inkscape:stockid="Arrow1Mend"
       orient="auto"
       refY="0"
       refX="0"
       id="marker4479"
       style="overflow:visible"
       inkscape:isstock="true">
      <path
         inkscape:connector-curvature="0"
         id="path4481"
         d="M 0,0 5,-5 -12.5,0 5,5 0,0 Z"
         style="fill:#000080;fill-opacity:1;fill-rule:evenodd;stroke:#000080;stroke-width:1pt;stroke-opacity:1"
         transform="matrix(-0.4,0,0,-0.4,-4,0)" />
    </marker>
    <marker
       inkscape:stockid="Arrow1Mend"
       orient="auto"
       refY="0"
       refX="0"
       id="marker4309-7"
       style="overflow:visible"
       inkscape:isstock="true">
      <path
         inkscape:connector-curvature="0"
         id="path4311-5"
         d="M 0,0 5,-5 -12.5,0 5,5 0,0 Z"
         style="fill:#000080;fill-opacity:1;fill-rule:evenodd;stroke:#000080;stroke-width:1pt;stroke-opacity:1"
         transform="matrix(-0.4,0,0,-0.4,-4,0)" />
    </marker>
    <marker
       inkscape:isstock="true"
       style="overflow:visible"
       id="marker4501"
       refX="0"
       refY="0"
       orient="auto"
       inkscape:stockid="Arrow1Mend"
       inkscape:collect="always">
      <path
         transform="matrix(-0.4,0,0,-0.4,-4,0)"
         style="fill:#000080;fill-opacity:1;fill-rule:evenodd;stroke:#000080;stroke-width:1pt;stroke-opacity:1"
         d="M 0,0 5,-5 -12.5,0 5,5 0,0 Z"
         id="path4503"
         inkscape:connector-curvature="0" />
    </marker>
    <marker
       inkscape:isstock="true"
       style="overflow:visible"
       id="marker4479-3"
       refX="0"
       refY="0"
       orient="auto"
       inkscape:stockid="Arrow1Mend">
      <path
         transform="matrix(-0.4,0,0,-0.4,-4,0)"
         style="fill:#000080;fill-opacity:1;fill-rule:evenodd;stroke:#000080;stroke-width:1pt;stroke-opacity:1"
         d="M 0,0 5,-5 -12.5,0 5,5 0,0 Z"
         id="path4481-5"
         inkscape:connector-curvature="0" />
    </marker>
  </defs>
  <metadata
     id="metadata7">
    <rdf:RDF>
      <cc:Work
         rdf:about="">
        <dc:format>image/svg+xml</dc:format>
        <dc:type
           rdf:resource="http://purl.org/dc/dcmitype/StillImage" />
        <dc:title></dc:title>
      </cc:Work>
    </rdf:RDF>
  </metadata>
  <g
     style="display:inline"
     transform="translate(-85.831244,-271.1537)"
     id="layer1"
     inkscape:groupmode="layer"
     inkscape:label="f(a) and f(b)">
    <circle
       r="3.591327"
       cy="341.56354"
       cx="457.4809"
       id="path3346-0"
       style="fill:#000000;fill-opacity:1;stroke:none;stroke-width:1;stroke-linecap:round;stroke-miterlimit:4;stroke-dasharray:none;stroke-opacity:1" />
    <circle
       r="3.6822708"
       cy="476.16052"
       cx="122.29427"
       id="path3346"
       style="fill:#000000;fill-opacity:1;stroke:none;stroke-width:1;stroke-linecap:round;stroke-miterlimit:4;stroke-dasharray:none;stroke-opacity:1" />
    <g
       id="g6172"
       transform="translate(-266.81725,300.88267)"
       style="display:inline;stroke-width:0.2;stroke-miterlimit:4;stroke-dasharray:none">
      <g
         id="content"
         transform="matrix(0.36583905,0,0,-0.36583905,-64.021834,283.62461)"
         xml:space="preserve"
         stroke-miterlimit="10.433"
         font-style="normal"
         font-variant="normal"
         font-weight="normal"
         font-stretch="normal"
         font-size-adjust="none"
         letter-spacing="normal"
         word-spacing="normal"
         style="font-style:normal;font-variant:normal;font-weight:normal;font-stretch:normal;letter-spacing:normal;word-spacing:normal;text-anchor:start;fill:none;fill-opacity:1;fill-rule:evenodd;stroke:#000000;stroke-width:0.5466885;stroke-linecap:butt;stroke-linejoin:miter;stroke-miterlimit:4;stroke-dasharray:none;stroke-dashoffset:0;stroke-opacity:1"><path
           d="m 1211.3,365.93 4.3,0 c 1,0 1.5,0 1.5,0.99 0,0.55 -0.5,0.55 -1.4,0.55 l -4.1,0 1,5.68 c 0.2,1.05 0.9,4.58 1.2,5.18 0.5,0.94 1.3,1.69 2.4,1.69 0.2,0 1.5,0 2.4,-0.9 -2.2,-0.19 -2.7,-1.94 -2.7,-2.68 0,-1.15 0.9,-1.75 1.9,-1.75 1.3,0 2.7,1.1 2.7,2.99 0,2.29 -2.3,3.44 -4.3,3.44 -1.7,0 -4.9,-0.9 -6.4,-5.83 -0.3,-1.05 -0.4,-1.54 -1.6,-7.82 l -3.4,0 c -1,0 -1.5,0 -1.5,-0.95 0,-0.59 0.4,-0.59 1.4,-0.59 l 3.2,0 -3.7,-19.68 c -0.9,-4.83 -1.7,-9.37 -4.3,-9.37 -0.2,0 -1.5,0 -2.4,0.9 2.3,0.15 2.7,1.94 2.7,2.69 0,1.15 -0.9,1.74 -1.8,1.74 -1.3,0 -2.8,-1.09 -2.8,-2.98 0,-2.25 2.2,-3.44 4.3,-3.44 2.7,0 4.7,2.94 5.6,4.83 1.6,3.14 2.7,9.17 2.8,9.51 z"
           id="path6175"
           inkscape:connector-curvature="0"
           style="fill:#000000;stroke-width:0.5466885;stroke-miterlimit:4;stroke-dasharray:none" /><path
           d="m 1238.5,334.04 0,0.03 0,0.03 0,0.01 0,0.02 0,0.01 0,0.02 0,0.02 0,0.01 0,0.02 -0.1,0.02 0,0.03 0,0.02 0,0.02 0,0.03 0,0.03 -0.1,0.03 0,0.03 0,0.04 0,0.02 -0.1,0.02 0,0.02 0,0.02 0,0.02 0,0.03 0,0.02 -0.1,0.02 0,0.03 0,0.02 0,0.03 -0.1,0.03 0,0.03 0,0.03 0,0.03 -0.1,0.03 0,0.03 0,0.03 -0.1,0.04 0,0.03 0,0.04 -0.1,0.03 0,0.04 -0.1,0.04 c -6.2,6.28 -7.8,15.69 -7.8,23.31 0,8.67 1.9,17.34 8,23.57 0.7,0.59 0.7,0.69 0.7,0.84 0,0.35 -0.2,0.5 -0.5,0.5 -0.5,0 -5,-3.39 -7.9,-9.72 -2.6,-5.47 -3.2,-11 -3.2,-15.19 0,-3.88 0.6,-9.91 3.3,-15.54 3,-6.12 7.3,-9.36 7.8,-9.36 0.3,0 0.5,0.15 0.5,0.49 z"
           id="path6177"
           inkscape:connector-curvature="0"
           style="fill:#000000;stroke-width:0.5466885;stroke-miterlimit:4;stroke-dasharray:none" /><path
           d="m 1260.6,364.83 -0.1,0.17 -0.1,0.17 -0.1,0.16 -0.1,0.16 -0.1,0.16 -0.1,0.16 -0.1,0.15 -0.1,0.14 -0.1,0.15 -0.1,0.13 -0.2,0.14 -0.1,0.13 -0.1,0.12 -0.1,0.12 -0.2,0.11 -0.1,0.11 -0.2,0.11 -0.1,0.09 -0.1,0.1 -0.2,0.08 -0.2,0.08 -0.1,0.08 -0.2,0.07 -0.2,0.06 -0.1,0.05 -0.2,0.05 -0.2,0.04 -0.2,0.03 -0.2,0.03 -0.2,0.02 -0.2,0.01 -0.2,0.01 0.1,-1.1 c 3.2,0 3.9,-4.08 3.9,-4.38 0,-0.3 -0.1,-0.6 -0.2,-0.85 l -2.5,-9.76 c -0.2,-0.9 -0.2,-1 -1,-1.84 -2.1,-2.75 -4.2,-3.54 -5.6,-3.54 -2.5,0 -3.2,2.74 -3.2,4.68 0,2.49 1.6,8.62 2.8,10.91 1.5,2.94 3.8,4.78 5.8,4.78 l -0.1,1.1 c -5.8,0 -12,-7.32 -12,-14.6 0,-4.68 2.7,-7.97 6.6,-7.97 1,0 3.5,0.2 6.5,3.74 0.4,-2.09 2.1,-3.74 4.5,-3.74 1.8,0 2.9,1.15 3.7,2.74 0.9,1.79 1.5,4.83 1.5,4.93 0,0.5 -0.4,0.5 -0.6,0.5 -0.5,0 -0.5,-0.2 -0.7,-0.89 -0.8,-3.24 -1.7,-6.18 -3.8,-6.18 -1.3,0 -1.5,1.29 -1.5,2.29 0,1.09 0.1,1.49 0.7,3.69 0.5,2.09 0.6,2.59 1.1,4.48 l 1.8,6.97 c 0.3,1.4 0.3,1.5 0.3,1.7 0,0.84 -0.6,1.34 -1.4,1.34 -1.2,0 -2,-1.09 -2.1,-2.19 z"
           id="path6179"
           inkscape:connector-curvature="0"
           style="fill:#000000;stroke-width:0.5466885;stroke-miterlimit:4;stroke-dasharray:none" /><path
           d="m 1282.4,358.45 0,0.37 0,0.39 0,0.39 0,0.41 -0.1,0.84 0,0.88 -0.1,0.92 -0.1,0.94 -0.2,0.98 -0.1,1 -0.2,1.02 -0.2,1.04 -0.3,1.05 -0.3,1.06 -0.4,1.06 -0.4,1.07 -0.2,0.53 -0.2,0.54 -0.2,0.53 -0.3,0.53 c -3,6.12 -7.3,9.36 -7.8,9.36 -0.3,0 -0.5,-0.2 -0.5,-0.5 0,-0.15 0,-0.25 1,-1.15 4.9,-4.92 7.7,-12.85 7.7,-23.26 0,-8.52 -1.8,-17.28 -8,-23.56 -0.7,-0.6 -0.7,-0.69 -0.7,-0.85 0,-0.29 0.2,-0.49 0.5,-0.49 0.5,0 5,3.38 8,9.71 2.5,5.48 3.1,11.01 3.1,15.19 z"
           id="path6181"
           inkscape:connector-curvature="0"
           style="fill:#000000;stroke-width:0.5466885;stroke-miterlimit:4;stroke-dasharray:none" /></g>    </g>
    <g
       id="g6285"
       transform="translate(66.393867,172.25999)"
       style="display:inline;stroke-width:0.2;stroke-miterlimit:4;stroke-dasharray:none">
      <g
         word-spacing="normal"
         letter-spacing="normal"
         font-size-adjust="none"
         font-stretch="normal"
         font-weight="normal"
         font-variant="normal"
         font-style="normal"
         stroke-miterlimit="10.433"
         xml:space="preserve"
         transform="matrix(0.36583905,0,0,-0.36583905,-64.021834,283.62461)"
         id="g6287"
         style="font-style:normal;font-variant:normal;font-weight:normal;font-stretch:normal;letter-spacing:normal;word-spacing:normal;text-anchor:start;fill:none;fill-opacity:1;fill-rule:evenodd;stroke:#000000;stroke-width:0.5466885;stroke-linecap:butt;stroke-linejoin:miter;stroke-miterlimit:4;stroke-dasharray:none;stroke-dashoffset:0;stroke-opacity:1"><path
           id="path6289"
           d="m 1213.3,365.93 4.3,0 c 1,0 1.5,0 1.5,0.99 0,0.55 -0.5,0.55 -1.4,0.55 l -4.1,0 1,5.68 c 0.2,1.05 0.9,4.58 1.2,5.18 0.5,0.94 1.3,1.69 2.4,1.69 0.2,0 1.5,0 2.4,-0.9 -2.2,-0.19 -2.7,-1.94 -2.7,-2.68 0,-1.15 0.9,-1.75 1.9,-1.75 1.3,0 2.7,1.1 2.7,2.99 0,2.29 -2.3,3.44 -4.3,3.44 -1.7,0 -4.9,-0.9 -6.4,-5.83 -0.3,-1.05 -0.4,-1.54 -1.6,-7.82 l -3.4,0 c -1,0 -1.5,0 -1.5,-0.95 0,-0.59 0.4,-0.59 1.4,-0.59 l 3.2,0 -3.7,-19.68 c -0.9,-4.83 -1.7,-9.37 -4.3,-9.37 -0.2,0 -1.5,0 -2.4,0.9 2.3,0.15 2.7,1.94 2.7,2.69 0,1.15 -0.9,1.74 -1.8,1.74 -1.3,0 -2.8,-1.09 -2.8,-2.98 0,-2.25 2.2,-3.44 4.3,-3.44 2.7,0 4.7,2.94 5.6,4.83 1.6,3.14 2.7,9.17 2.8,9.51 z"
           inkscape:connector-curvature="0"
           style="fill:#000000;stroke-width:0.5466885;stroke-miterlimit:4;stroke-dasharray:none" /><path
           id="path6291"
           d="m 1241.5,334.04 0,0.03 0,0.03 0,0.01 0,0.02 0,0.01 0,0.02 0,0.02 0,0.01 0,0.02 -0.1,0.02 0,0.03 0,0.02 0,0.02 0,0.03 0,0.03 -0.1,0.03 0,0.03 0,0.04 0,0.02 -0.1,0.02 0,0.02 0,0.02 0,0.02 0,0.03 0,0.02 -0.1,0.02 0,0.03 0,0.02 0,0.03 -0.1,0.03 0,0.03 0,0.03 0,0.03 -0.1,0.03 0,0.03 0,0.03 -0.1,0.04 0,0.03 0,0.04 -0.1,0.03 0,0.04 -0.1,0.04 c -6.2,6.28 -7.8,15.69 -7.8,23.31 0,8.67 1.9,17.34 8,23.57 0.7,0.59 0.7,0.69 0.7,0.84 0,0.35 -0.2,0.5 -0.5,0.5 -0.5,0 -5,-3.39 -7.9,-9.72 -2.6,-5.47 -3.2,-11 -3.2,-15.19 0,-3.88 0.6,-9.91 3.3,-15.54 3,-6.12 7.3,-9.36 7.8,-9.36 0.3,0 0.5,0.15 0.5,0.49 z"
           inkscape:connector-curvature="0"
           style="fill:#000000;stroke-width:0.5466885;stroke-miterlimit:4;stroke-dasharray:none" /><path
           id="path6293"
           d="m 1255.9,380.02 0,0.01 0,0 0,0.01 0,0.01 0,0.01 0,0.01 0,0.02 0,0.02 0,0.02 0,0.02 0,0.02 0,0.02 0,0.03 0,0.02 0,0.03 -0.1,0.02 0,0.02 0,0.03 0,0.02 0,0.03 0,0.02 -0.1,0.01 0,0.01 0,0.01 0,0.01 0,0.01 0,0.01 0,0.01 -0.1,0.01 0,0.01 0,0.01 0,0.01 0,0 -0.1,0.01 0,0.01 0,0 0,0.01 0,0 -0.1,0.01 0,0 0,0 -0.1,0.01 0,0 0,0 0,0 c -1.2,0 -4.8,-0.4 -6.1,-0.5 -0.4,-0.05 -1,-0.1 -1,-1 0,-0.59 0.5,-0.59 1.2,-0.59 2.4,0 2.5,-0.35 2.5,-0.85 0,-0.35 -0.4,-2.04 -0.7,-3.09 l -4.1,-16.24 c -0.6,-2.49 -0.8,-3.28 -0.8,-5.03 0,-4.73 2.7,-7.82 6.4,-7.82 l 0,1.1 c -1.7,0 -3.4,1.34 -3.4,5.03 0,0.95 0,1.89 0.8,5.03 l 1.1,4.58 c 0.3,1.1 0.3,1.2 0.8,1.75 2.4,3.24 4.7,3.98 5.9,3.98 1.8,0 3.2,-1.49 3.2,-4.68 0,-2.94 -1.7,-8.67 -2.5,-10.56 -1.7,-3.34 -4,-5.13 -5.9,-5.13 l 0,-1.1 c 5.9,0 12,7.43 12,14.6 0,4.53 -2.7,7.97 -6.6,7.97 -2.3,0 -4.4,-1.45 -5.9,-2.99 z"
           inkscape:connector-curvature="0"
           style="fill:#000000;stroke-width:0.5466885;stroke-miterlimit:4;stroke-dasharray:none" /><path
           id="path6295"
           d="m 1280.4,358.45 0,0.37 0,0.39 0,0.39 0,0.41 -0.1,0.84 0,0.88 -0.1,0.92 -0.1,0.94 -0.2,0.98 -0.1,1 -0.2,1.02 -0.2,1.04 -0.3,1.05 -0.3,1.06 -0.4,1.06 -0.4,1.07 -0.2,0.53 -0.2,0.54 -0.2,0.53 -0.3,0.53 c -3,6.12 -7.3,9.36 -7.8,9.36 -0.3,0 -0.5,-0.2 -0.5,-0.5 0,-0.15 0,-0.25 1,-1.15 4.9,-4.92 7.7,-12.85 7.7,-23.26 0,-8.52 -1.8,-17.28 -8,-23.56 -0.7,-0.6 -0.7,-0.69 -0.7,-0.85 0,-0.29 0.2,-0.49 0.5,-0.49 0.5,0 5,3.38 8,9.71 2.5,5.48 3.1,11.01 3.1,15.19 z"
           inkscape:connector-curvature="0"
           style="fill:#000000;stroke-width:0.5466885;stroke-miterlimit:4;stroke-dasharray:none" /></g>    </g>
    <path
       sodipodi:nodetypes="csc"
       inkscape:connector-curvature="0"
       id="path3336"
       d="m 122.88767,475.83849 c 63.65477,-16.34987 68.64046,-188.70926 140.06605,-125.21718 54.5486,48.48969 45.97509,137.31679 195.26623,-10.17669"
       style="display:inline;fill:none;fill-rule:evenodd;stroke:#000000;stroke-width:2;stroke-linecap:butt;stroke-linejoin:miter;stroke-miterlimit:4;stroke-dasharray:none;stroke-opacity:1" />
    <path
       inkscape:connector-curvature="0"
       id="path3368"
       d="M 120.63039,477.39753 454.21245,342.43728"
       style="display:inline;fill:none;fill-rule:evenodd;stroke:#000000;stroke-width:2;stroke-linecap:butt;stroke-linejoin:miter;stroke-miterlimit:4;stroke-dasharray:2, 2;stroke-dashoffset:0;stroke-opacity:1" />
    <path
       style="display:inline;fill:none;fill-rule:evenodd;stroke:#000000;stroke-width:2;stroke-linecap:butt;stroke-linejoin:miter;stroke-miterlimit:4;stroke-dasharray:2, 2;stroke-dashoffset:0;stroke-opacity:1"
       d="M 109.06918,385.98426 343.54506,289.79541"
       id="path5749"
       inkscape:connector-curvature="0" />
  </g>
  <g
     inkscape:label="New"
     id="layer4"
     inkscape:groupmode="layer"
     transform="translate(17.610266,37.815953)">
    <g
       id="g5324"
       transform="translate(-308.01313,-156.84138)"
       style="fill:#000080;stroke:#000080;stroke-width:0.2;stroke-miterlimit:4;stroke-dasharray:none">
      <g
         word-spacing="normal"
         letter-spacing="normal"
         font-size-adjust="none"
         font-stretch="normal"
         font-weight="normal"
         font-variant="normal"
         font-style="normal"
         stroke-miterlimit="10.433"
         xml:space="preserve"
         transform="matrix(0.36583905,0,0,-0.36583905,-64.021834,283.62461)"
         id="g5326"
         style="font-style:normal;font-variant:normal;font-weight:normal;font-stretch:normal;letter-spacing:normal;word-spacing:normal;text-anchor:start;fill:#000080;fill-opacity:1;fill-rule:evenodd;stroke:#000080;stroke-width:0.5466885;stroke-linecap:butt;stroke-linejoin:miter;stroke-miterlimit:4;stroke-dasharray:none;stroke-dashoffset:0;stroke-opacity:1"><path
           id="path5328"
           d="m 1033.1,350.04 4.3,0 c 1,0 1.5,0 1.5,1 0,0.55 -0.5,0.55 -1.3,0.55 l -4.2,0 1.1,5.69 c 0.2,1.04 0.9,4.58 1.2,5.17 0.4,0.95 1.3,1.7 2.3,1.7 0.2,0 1.5,0 2.4,-0.9 -2.1,-0.19 -2.6,-1.94 -2.6,-2.69 0,-1.14 0.9,-1.74 1.8,-1.74 1.3,0 2.7,1.1 2.7,2.99 0,2.3 -2.3,3.44 -4.3,3.44 -1.7,0 -4.8,-0.89 -6.3,-5.83 -0.3,-1.05 -0.5,-1.55 -1.7,-7.83 l -3.4,0 c -0.9,0 -1.5,0 -1.5,-0.94 0,-0.61 0.5,-0.61 1.4,-0.61 l 3.3,0 -3.8,-19.67 c -0.8,-4.83 -1.7,-9.37 -4.3,-9.37 -0.2,0 -1.4,0 -2.4,0.9 2.3,0.14 2.8,1.94 2.8,2.69 0,1.14 -0.9,1.75 -1.9,1.75 -1.3,0 -2.7,-1.09 -2.7,-3 0,-2.23 2.2,-3.44 4.2,-3.44 2.7,0 4.7,2.94 5.6,4.85 1.6,3.14 2.8,9.15 2.8,9.51 z"
           inkscape:connector-curvature="0"
           style="fill:#000080;stroke:#000080;stroke-width:0.5466885;stroke-miterlimit:4;stroke-dasharray:none" /><path
           id="path5330"
           d="m 1054.7,367.21 0,0.06 0.1,0.05 0,0.05 0,0.05 0,0.05 0,0.04 0.1,0.04 0,0.05 0,0.04 0,0.04 0,0.04 0,0.03 0,0.04 0.1,0.04 0,0.03 0,0.03 0,0.03 0,0.04 0,0.03 0,0.03 0,0.02 0,0.03 0,0.03 0,0.03 0,0.05 0,0.05 0,0.05 0,0.04 c 0,1.08 -1,1.93 -2,1.93 -1.4,0 -1.8,-1.1 -1.9,-1.64 l -4.7,-15.1 c 0,-0.06 -0.1,-0.51 -0.1,-0.56 0,-0.41 1,-0.77 1.3,-0.77 0.3,0 0.3,0.08 0.6,0.6 z"
           inkscape:connector-curvature="0"
           style="fill:#000080;stroke:#000080;stroke-width:0.5466885;stroke-miterlimit:4;stroke-dasharray:none" /><path
           id="path5332"
           d="m 1075,318.17 0,0.02 0,0.03 0,0.01 0,0.02 0,0.01 0,0.02 0,0.02 0,0.01 0,0.02 0,0.02 -0.1,0.03 0,0.02 0,0.02 0,0.03 0,0.03 0,0.03 -0.1,0.04 0,0.03 0,0.02 0,0.02 -0.1,0.02 0,0.02 0,0.02 0,0.03 0,0.02 -0.1,0.02 0,0.03 0,0.03 0,0.02 -0.1,0.03 0,0.03 0,0.03 0,0.03 -0.1,0.03 0,0.03 0,0.03 -0.1,0.04 0,0.03 0,0.04 -0.1,0.03 0,0.04 0,0.04 c -6.3,6.28 -7.9,15.69 -7.9,23.31 0,8.68 1.9,17.35 8.1,23.57 0.6,0.61 0.6,0.7 0.6,0.86 0,0.34 -0.2,0.48 -0.5,0.48 -0.5,0 -5,-3.37 -7.9,-9.7 -2.5,-5.49 -3.1,-11.02 -3.1,-15.21 0,-3.89 0.5,-9.9 3.2,-15.54 3,-6.13 7.3,-9.36 7.8,-9.36 0.3,0 0.5,0.14 0.5,0.5 z"
           inkscape:connector-curvature="0"
           style="fill:#000080;stroke:#000080;stroke-width:0.5466885;stroke-miterlimit:4;stroke-dasharray:none" /><path
           id="path5334"
           d="m 1085.5,345.37 -0.5,-0.34 -0.5,-0.34 -0.4,-0.36 -0.4,-0.35 -0.4,-0.36 -0.4,-0.36 -0.4,-0.36 -0.3,-0.37 -0.3,-0.36 -0.3,-0.37 -0.3,-0.36 -0.2,-0.36 -0.3,-0.36 -0.2,-0.36 -0.2,-0.35 -0.2,-0.35 -0.2,-0.34 -0.1,-0.34 -0.2,-0.33 -0.1,-0.32 -0.1,-0.32 -0.1,-0.3 -0.1,-0.3 -0.1,-0.28 0,-0.28 -0.1,-0.26 0,-0.25 -0.1,-0.23 0,-0.23 0,-0.2 0,-0.2 0,-0.17 c 0,-2.39 1.3,-3.8 1.4,-3.94 1.6,-1.66 2.1,-1.84 5.8,-3.25 l 6,-2.33 c 0.8,-0.36 1.8,-0.7 1.8,-2.15 0,-1.14 -0.9,-2.64 -2.5,-2.64 -2.2,0 -3.8,1.2 -4.3,1.61 -0.4,0.18 -0.4,0.23 -0.6,0.23 -0.4,0 -0.5,-0.34 -0.5,-0.55 0,-0.59 2.6,-2.39 5.4,-2.39 3.1,0 5.2,2.89 5.2,5.35 0,2.39 -1.8,3.28 -2.4,3.53 -0.7,0.25 -2.4,0.89 -3,1.14 -1,0.4 -2,0.79 -3.1,1.15 l -2.9,1.19 c -2.3,0.91 -3.8,2.35 -3.8,4.44 0,2.05 2,6.37 6.2,8.47 1.8,-0.66 3.3,-0.66 4.3,-0.66 1.5,0 4.7,0 4.7,1.55 0,1.25 -2.2,1.34 -4.1,1.34 l -0.1,-1.09 c 1.8,0 2,-0.05 2.9,-0.3 -0.4,-0.2 -0.9,-0.39 -3.2,-0.39 -1.2,0 -1.6,0 -2.5,0.39 l 0,0 c 1.1,0.3 2.2,0.3 2.8,0.3 l 0.1,1.09 c -0.9,0 -2.4,0 -4.2,-0.59 -1.3,1.3 -1.5,2.94 -1.5,3.89 0,2.78 1.8,6.62 5.5,8.47 0.9,-1.1 2.1,-1.1 3.2,-1.1 l 0.1,1.1 c -1,0 -1.6,0 -2.1,0.45 l 0,0 c 0.8,0.25 1.8,0.25 2.4,0.25 1.7,0 1.9,-0.06 2.8,-0.31 -0.4,-0.14 -0.9,-0.39 -3.1,-0.39 l -0.1,-1.1 c 1.3,0 4.5,0 4.5,1.55 0,1.3 -2.2,1.34 -4.2,1.34 -0.6,0 -1.8,0 -3.1,-0.25 -0.2,0.44 -0.3,0.8 -0.3,1.65 0,0.7 0.3,1.75 0.3,1.84 0,0.39 -0.3,0.64 -0.6,0.64 -0.9,0 -0.9,-2.28 -0.9,-2.44 0,-1 0.3,-1.73 0.3,-1.94 -5.3,-1.5 -8.7,-5.48 -8.7,-9.31 0,-1.84 0.9,-3.94 3.3,-5.28 z"
           inkscape:connector-curvature="0"
           style="fill:#000080;stroke:#000080;stroke-width:0.5466885;stroke-miterlimit:4;stroke-dasharray:none" /><path
           id="path5336"
           d="m 1111.3,344.84 0,0.04 0,0.04 0,0.04 0,0.04 0,0.04 0,0.04 0,0.04 0,0.03 0,0.04 0,0.03 0,0.03 0,0.03 0,0.03 0,0.03 0,0.03 0,0.02 0,0.03 0,0.02 0,0.02 0,0.03 0,0.04 0,0.04 0,0.03 -0.1,0.03 0,0.03 0,0.03 0,0.02 -0.1,0.02 0,0.01 0,0.02 -0.1,0.01 0,0.01 0,0.01 -0.1,0 0,0.01 0,0 0,0 -0.1,0.01 0,0 0,0 -0.1,0 0,0 0,0.01 -0.1,0 0,0 0,0 -0.1,0 0,0 -0.1,0 0,0 -0.1,0 0,0 c -2.2,-2.2 -5.4,-2.23 -6.8,-2.23 l 0,-1.25 c 0.8,0 3.1,0 5,0.96 l 0,-17.76 c 0,-1.16 0,-1.61 -3.5,-1.61 l -1.3,0 0,-1.25 c 0.6,0.03 4.9,0.14 6.2,0.14 1.1,0 5.5,-0.11 6.3,-0.14 l 0,1.25 -1.4,0 c -3.5,0 -3.5,0.45 -3.5,1.61 z"
           inkscape:connector-curvature="0"
           style="fill:#000080;stroke:#000080;stroke-width:0.5466885;stroke-miterlimit:4;stroke-dasharray:none" /><path
           id="path5338"
           d="m 1136.5,342.57 0,0.37 0,0.39 0,0.39 0,0.41 -0.1,0.84 0,0.88 -0.1,0.92 -0.1,0.95 -0.1,0.98 -0.2,1 -0.2,1.02 -0.2,1.04 -0.3,1.05 -0.3,1.06 -0.4,1.06 -0.3,1.07 -0.3,0.53 -0.2,0.53 -0.2,0.53 -0.3,0.53 c -3,6.13 -7.2,9.36 -7.7,9.36 -0.3,0 -0.5,-0.19 -0.5,-0.48 0,-0.16 0,-0.25 0.9,-1.16 4.9,-4.92 7.7,-12.84 7.7,-23.27 0,-8.51 -1.8,-17.28 -8,-23.56 -0.6,-0.59 -0.6,-0.7 -0.6,-0.84 0,-0.3 0.2,-0.5 0.5,-0.5 0.5,0 4.9,3.39 7.9,9.72 2.5,5.47 3.1,11 3.1,15.18 z"
           inkscape:connector-curvature="0"
           style="fill:#000080;stroke:#000080;stroke-width:0.5466885;stroke-miterlimit:4;stroke-dasharray:none" /><path
           id="path5340"
           d="m 1189.5,346.42 0.1,0 0.2,0 0.1,0 0.1,0.01 0,0 0.1,0.01 0.1,0.01 0.1,0.01 0,0.01 0.1,0.01 0.1,0.02 0,0.02 0.1,0.02 0.1,0.03 0,0.02 0.1,0.03 0,0.04 0.1,0.04 0,0.04 0.1,0.04 0,0.05 0,0.03 0,0.03 0.1,0.03 0,0.03 0,0.03 0,0.03 0,0.03 0,0.04 0,0.03 0,0.04 0,0.04 0,0.04 0.1,0.04 0,0.04 0,0.05 0,0.04 c 0,1 -1,1 -1.7,1 l -29.8,0 c -0.7,0 -1.7,0 -1.7,-1 0,-0.98 1,-0.98 1.7,-0.98 z"
           inkscape:connector-curvature="0"
           style="fill:#000080;stroke:#000080;stroke-width:0.5466885;stroke-miterlimit:4;stroke-dasharray:none" /><path
           id="path5342"
           d="m 1189.5,336.75 0.1,0 0.1,0 0.1,0 0.1,0 0.1,0.01 0.1,0 0,0.01 0.1,0.01 0.1,0.01 0,0.01 0.1,0.01 0.1,0.02 0,0.02 0.1,0.02 0.1,0.03 0,0.02 0.1,0.04 0,0.03 0.1,0.04 0,0.04 0.1,0.05 0,0.02 0,0.03 0,0.02 0,0.03 0.1,0.03 0,0.03 0,0.03 0,0.04 0,0.03 0,0.04 0,0.03 0,0.04 0,0.04 0,0.04 0.1,0.04 0,0.05 0,0.04 0,0.05 c 0,1 -1,1 -1.7,1 l -29.8,0 c -0.7,0 -1.7,0 -1.7,-1 0,-1 1,-1 1.7,-1 z"
           inkscape:connector-curvature="0"
           style="fill:#000080;stroke:#000080;stroke-width:0.5466885;stroke-miterlimit:4;stroke-dasharray:none" /><path
           id="path5344"
           d="m 1232.1,383.76 4.3,0 c 1,0 1.5,0 1.5,1 0,0.55 -0.5,0.55 -1.4,0.55 l -4.1,0 1,5.69 c 0.2,1.04 0.9,4.57 1.2,5.17 0.5,0.95 1.3,1.7 2.4,1.7 0.2,0 1.5,0 2.4,-0.91 -2.2,-0.18 -2.7,-1.93 -2.7,-2.68 0,-1.14 0.9,-1.74 1.9,-1.74 1.3,0 2.7,1.1 2.7,2.99 0,2.29 -2.3,3.43 -4.3,3.43 -1.7,0 -4.9,-0.89 -6.4,-5.82 -0.3,-1.05 -0.4,-1.55 -1.6,-7.83 l -3.4,0 c -1,0 -1.5,0 -1.5,-0.94 0,-0.61 0.4,-0.61 1.4,-0.61 l 3.3,0 -3.8,-19.67 c -0.9,-4.83 -1.7,-9.38 -4.3,-9.38 -0.2,0 -1.5,0 -2.4,0.91 2.3,0.14 2.7,1.94 2.7,2.69 0,1.14 -0.9,1.75 -1.8,1.75 -1.3,0 -2.8,-1.1 -2.8,-3 0,-2.24 2.2,-3.44 4.3,-3.44 2.7,0 4.7,2.94 5.6,4.84 1.6,3.15 2.8,9.16 2.8,9.52 z"
           inkscape:connector-curvature="0"
           style="fill:#000080;stroke:#000080;stroke-width:0.5466885;stroke-miterlimit:4;stroke-dasharray:none" /><path
           id="path5346"
           d="m 1260,351.89 0,0.02 0,0.03 0,0.01 0,0.02 0,0.01 0,0.02 0,0.01 0,0.02 0,0.02 0,0.02 0,0.02 0,0.03 0,0.02 -0.1,0.03 0,0.03 0,0.03 0,0.03 -0.1,0.04 0,0.02 0,0.02 0,0.02 0,0.02 -0.1,0.02 0,0.03 0,0.02 0,0.02 0,0.03 -0.1,0.02 0,0.03 0,0.03 0,0.03 -0.1,0.03 0,0.03 0,0.03 -0.1,0.03 0,0.03 0,0.04 -0.1,0.03 0,0.04 0,0.03 -0.1,0.04 0,0.04 c -6.2,6.28 -7.8,15.69 -7.8,23.31 0,8.67 1.9,17.35 8,23.57 0.6,0.6 0.6,0.7 0.6,0.85 0,0.35 -0.1,0.49 -0.4,0.49 -0.5,0 -5,-3.38 -8,-9.7 -2.5,-5.49 -3.1,-11.02 -3.1,-15.21 0,-3.89 0.5,-9.9 3.3,-15.54 3,-6.13 7.3,-9.36 7.8,-9.36 0.3,0 0.4,0.14 0.4,0.5 z"
           inkscape:connector-curvature="0"
           style="fill:#000080;stroke:#000080;stroke-width:0.5466885;stroke-miterlimit:4;stroke-dasharray:none" /><path
           id="path5348"
           d="m 1274.8,397.87 0,0 0,0.01 0,0 0,0.02 0,0.01 0,0.01 0,0.02 0,0.02 0,0.02 0,0.02 0,0.02 0,0.02 -0.1,0.02 0,0.03 0,0.02 0,0.03 0,0.02 0,0.03 0,0.02 -0.1,0.02 0,0.03 0,0.01 0,0.01 0,0.01 0,0.01 0,0.01 -0.1,0.01 0,0.01 0,0.01 0,0.01 0,0.01 0,0 -0.1,0.01 0,0.01 0,0.01 0,0 0,0.01 -0.1,0 0,0.01 0,0 0,0 -0.1,0 0,0.01 0,0 -0.1,0 c -1.1,0 -4.7,-0.41 -6,-0.5 -0.4,-0.05 -1,-0.1 -1,-1 0,-0.6 0.5,-0.6 1.2,-0.6 2.4,0 2.5,-0.34 2.5,-0.84 0,-0.36 -0.5,-2.05 -0.7,-3.09 l -4.1,-16.24 c -0.6,-2.5 -0.8,-3.29 -0.8,-5.03 0,-4.73 2.7,-7.83 6.4,-7.83 l 0,1.1 c -1.8,0 -3.4,1.34 -3.4,5.03 0,0.95 0,1.89 0.8,5.03 l 1.1,4.59 c 0.3,1.1 0.3,1.19 0.7,1.74 2.5,3.23 4.7,3.98 6,3.98 1.8,0 3.2,-1.48 3.2,-4.69 0,-2.93 -1.7,-8.65 -2.6,-10.56 -1.6,-3.33 -3.9,-5.12 -5.8,-5.12 l 0,-1.1 c 5.8,0 12,7.42 12,14.6 0,4.53 -2.7,7.97 -6.7,7.97 -2.3,0 -4.3,-1.44 -5.8,-2.99 z"
           inkscape:connector-curvature="0"
           style="fill:#000080;stroke:#000080;stroke-width:0.5466885;stroke-miterlimit:4;stroke-dasharray:none" /><path
           id="path5350"
           d="m 1298.6,376.29 0,0.37 0,0.39 0,0.39 0,0.41 0,0.84 -0.1,0.88 -0.1,0.92 -0.1,0.95 -0.1,0.98 -0.2,1 -0.2,1.02 -0.2,1.03 -0.3,1.06 -0.3,1.05 -0.3,1.07 -0.4,1.07 -0.2,0.53 -0.3,0.53 -0.2,0.53 -0.3,0.53 c -2.9,6.12 -7.2,9.36 -7.7,9.36 -0.3,0 -0.5,-0.19 -0.5,-0.49 0,-0.15 0,-0.25 0.9,-1.15 4.9,-4.92 7.8,-12.85 7.8,-23.27 0,-8.51 -1.9,-17.28 -8.1,-23.56 -0.6,-0.59 -0.6,-0.7 -0.6,-0.84 0,-0.3 0.2,-0.5 0.5,-0.5 0.5,0 5,3.39 7.9,9.72 2.5,5.46 3.1,11 3.1,15.18 z"
           inkscape:connector-curvature="0"
           style="fill:#000080;stroke:#000080;stroke-width:0.5466885;stroke-miterlimit:4;stroke-dasharray:none" /><path
           id="path5352"
           d="m 1347.7,375.29 0.1,0 0.2,0 0.1,0.01 0.1,0 0.1,0.01 0.1,0.01 0,0 0.1,0.01 0.1,0.02 0.1,0.01 0,0.02 0.1,0.02 0.1,0.02 0,0.02 0.1,0.03 0,0.03 0.1,0.04 0,0.04 0.1,0.04 0,0.04 0.1,0.05 0,0.03 0,0.03 0,0.03 0,0.03 0,0.03 0,0.03 0.1,0.04 0,0.03 0,0.04 0,0.04 0,0.04 0,0.04 0,0.04 0,0.04 0,0.05 0,0.04 c 0,1 -0.9,1 -1.7,1 l -27,0 c -0.8,0 -1.7,0 -1.7,-1 0,-1 0.9,-1 1.7,-1 z"
           inkscape:connector-curvature="0"
           style="fill:#000080;stroke:#000080;stroke-width:0.5466885;stroke-miterlimit:4;stroke-dasharray:none" /><path
           id="path5354"
           d="m 1382.9,383.76 4.3,0 c 1,0 1.5,0 1.5,1 0,0.55 -0.5,0.55 -1.4,0.55 l -4.1,0 1,5.69 c 0.3,1.04 1,4.57 1.3,5.17 0.4,0.95 1.3,1.7 2.3,1.7 0.2,0 1.5,0 2.4,-0.91 -2.1,-0.18 -2.6,-1.93 -2.6,-2.68 0,-1.14 0.8,-1.74 1.8,-1.74 1.3,0 2.7,1.1 2.7,2.99 0,2.29 -2.3,3.43 -4.3,3.43 -1.7,0 -4.8,-0.89 -6.3,-5.82 -0.3,-1.05 -0.5,-1.55 -1.7,-7.83 l -3.4,0 c -1,0 -1.5,0 -1.5,-0.94 0,-0.61 0.4,-0.61 1.4,-0.61 l 3.3,0 -3.8,-19.67 c -0.9,-4.83 -1.7,-9.38 -4.3,-9.38 -0.2,0 -1.4,0 -2.4,0.91 2.3,0.14 2.7,1.94 2.7,2.69 0,1.14 -0.8,1.75 -1.8,1.75 -1.3,0 -2.7,-1.1 -2.7,-3 0,-2.24 2.2,-3.44 4.2,-3.44 2.7,0 4.7,2.94 5.6,4.84 1.6,3.15 2.8,9.16 2.8,9.52 z"
           inkscape:connector-curvature="0"
           style="fill:#000080;stroke:#000080;stroke-width:0.5466885;stroke-miterlimit:4;stroke-dasharray:none" /><path
           id="path5356"
           d="m 1410.9,351.89 0,0.02 0,0.03 0,0.01 0,0.02 0,0.01 0,0.02 0,0.01 0,0.02 -0.1,0.02 0,0.02 0,0.02 0,0.03 0,0.02 0,0.03 0,0.03 -0.1,0.03 0,0.03 0,0.04 0,0.02 -0.1,0.02 0,0.02 0,0.02 0,0.02 0,0.03 -0.1,0.02 0,0.02 0,0.03 0,0.02 -0.1,0.03 0,0.03 0,0.03 0,0.03 -0.1,0.03 0,0.03 0,0.03 -0.1,0.03 0,0.04 0,0.03 -0.1,0.04 0,0.03 0,0.04 -0.1,0.04 c -6.2,6.28 -7.8,15.69 -7.8,23.31 0,8.67 1.9,17.35 8,23.57 0.7,0.6 0.7,0.7 0.7,0.85 0,0.35 -0.2,0.49 -0.5,0.49 -0.5,0 -5,-3.38 -7.9,-9.7 -2.6,-5.49 -3.2,-11.02 -3.2,-15.21 0,-3.89 0.6,-9.9 3.3,-15.54 3,-6.13 7.3,-9.36 7.8,-9.36 0.3,0 0.5,0.14 0.5,0.5 z"
           inkscape:connector-curvature="0"
           style="fill:#000080;stroke:#000080;stroke-width:0.5466885;stroke-miterlimit:4;stroke-dasharray:none" /><path
           id="path5358"
           d="m 1432.3,382.67 -0.1,0.17 -0.1,0.17 -0.1,0.16 -0.1,0.16 -0.1,0.16 -0.1,0.16 -0.1,0.15 -0.1,0.14 -0.1,0.15 -0.1,0.13 -0.1,0.14 -0.2,0.13 -0.1,0.12 -0.1,0.12 -0.2,0.11 -0.1,0.11 -0.1,0.11 -0.2,0.09 -0.1,0.1 -0.2,0.08 -0.2,0.08 -0.1,0.08 -0.2,0.07 -0.2,0.06 -0.1,0.05 -0.2,0.05 -0.2,0.04 -0.2,0.03 -0.2,0.03 -0.2,0.02 -0.2,0.01 -0.2,0.01 0.1,-1.1 c 3.2,0 3.9,-4.08 3.9,-4.37 0,-0.32 -0.1,-0.61 -0.1,-0.86 l -2.5,-9.77 c -0.3,-0.89 -0.3,-0.98 -1,-1.84 -2.2,-2.74 -4.3,-3.53 -5.7,-3.53 -2.5,0 -3.2,2.73 -3.2,4.68 0,2.49 1.6,8.61 2.8,10.91 1.5,2.94 3.8,4.78 5.8,4.78 l -0.1,1.1 c -5.8,0 -12,-7.32 -12,-14.6 0,-4.69 2.7,-7.97 6.6,-7.97 1,0 3.5,0.21 6.5,3.74 0.4,-2.1 2.1,-3.74 4.5,-3.74 1.8,0 2.9,1.14 3.7,2.74 0.9,1.79 1.5,4.84 1.5,4.93 0,0.5 -0.4,0.5 -0.6,0.5 -0.5,0 -0.5,-0.2 -0.7,-0.9 -0.8,-3.24 -1.7,-6.17 -3.8,-6.17 -1.3,0 -1.5,1.29 -1.5,2.29 0,1.1 0.1,1.49 0.7,3.69 0.5,2.09 0.6,2.59 1.1,4.49 l 1.8,6.96 c 0.3,1.39 0.3,1.5 0.3,1.69 0,0.86 -0.6,1.36 -1.4,1.36 -1.2,0 -2,-1.11 -2.1,-2.2 z"
           inkscape:connector-curvature="0"
           style="fill:#000080;stroke:#000080;stroke-width:0.5466885;stroke-miterlimit:4;stroke-dasharray:none" /><path
           id="path5360"
           d="m 1454.4,376.29 0,0.37 0,0.39 0,0.39 0,0.41 -0.1,0.84 0,0.88 -0.1,0.92 -0.1,0.95 -0.2,0.98 -0.1,1 -0.2,1.02 -0.3,1.03 -0.2,1.06 -0.3,1.05 -0.4,1.07 -0.4,1.07 -0.2,0.53 -0.2,0.53 -0.3,0.53 -0.2,0.53 c -3,6.12 -7.3,9.36 -7.8,9.36 -0.3,0 -0.5,-0.19 -0.5,-0.49 0,-0.15 0,-0.25 1,-1.15 4.9,-4.92 7.7,-12.85 7.7,-23.27 0,-8.51 -1.8,-17.28 -8,-23.56 -0.7,-0.59 -0.7,-0.7 -0.7,-0.84 0,-0.3 0.2,-0.5 0.5,-0.5 0.5,0 5,3.39 7.9,9.72 2.6,5.46 3.2,11 3.2,15.18 z"
           inkscape:connector-curvature="0"
           style="fill:#000080;stroke:#000080;stroke-width:0.5466885;stroke-miterlimit:4;stroke-dasharray:none" /><polyline
           id="polyline5362"
           points="1214,342 1459.6,342 1459.6,344.04 1214,344.04 "
           style="fill:#000080;fill-rule:nonzero;stroke:#000080;stroke-width:0.5466885;stroke-miterlimit:4;stroke-dasharray:none" /><path
           id="path5364"
           d="m 1294.2,329.95 0,0.01 0,0 0,0.01 0,0.01 0,0.01 0,0.01 0,0.02 0,0.02 0,0.02 0,0.02 0,0.02 0,0.02 0,0.03 0,0.02 0,0.03 0,0.02 -0.1,0.02 0,0.03 0,0.02 0,0.03 0,0.02 0,0.01 -0.1,0.01 0,0.01 0,0.01 0,0.01 0,0.01 0,0.01 0,0.01 -0.1,0.01 0,0.01 0,0.01 0,0 0,0.01 -0.1,0.01 0,0 0,0.01 0,0 0,0.01 -0.1,0 0,0 0,0.01 -0.1,0 0,0 0,0 c -1.2,0 -4.8,-0.41 -6.1,-0.5 -0.4,-0.05 -0.9,-0.09 -0.9,-1 0,-0.59 0.4,-0.59 1.2,-0.59 2.4,0 2.4,-0.35 2.4,-0.85 0,-0.36 -0.4,-2.04 -0.7,-3.09 l -4,-16.24 c -0.6,-2.5 -0.8,-3.29 -0.8,-5.03 0,-4.73 2.6,-7.82 6.3,-7.82 l 0,1.09 c -1.7,0 -3.3,1.34 -3.3,5.03 0,0.95 0,1.89 0.7,5.03 l 1.1,4.59 c 0.3,1.1 0.3,1.19 0.8,1.74 2.4,3.23 4.7,3.98 6,3.98 1.8,0 3.1,-1.48 3.1,-4.68 0,-2.94 -1.6,-8.66 -2.5,-10.57 -1.7,-3.32 -4,-5.12 -5.9,-5.12 l 0,-1.09 c 5.9,0 12,7.42 12,14.59 0,4.53 -2.7,7.97 -6.6,7.97 -2.3,0 -4.4,-1.44 -5.9,-2.99 z"
           inkscape:connector-curvature="0"
           style="fill:#000080;stroke:#000080;stroke-width:0.5466885;stroke-miterlimit:4;stroke-dasharray:none" /><path
           id="path5366"
           d="m 1347.7,307.38 0.1,0 0.2,0 0.1,0 0.1,0.01 0.1,0 0.1,0.01 0,0.01 0.1,0.01 0.1,0.01 0.1,0.01 0,0.02 0.1,0.02 0.1,0.02 0,0.02 0.1,0.03 0,0.03 0.1,0.04 0,0.04 0.1,0.04 0,0.05 0.1,0.05 0,0.02 0,0.03 0,0.03 0,0.03 0,0.03 0.1,0.04 0,0.03 0,0.03 0,0.04 0,0.04 0,0.04 0,0.04 0,0.04 0,0.04 0,0.05 0,0.05 c 0,1 -0.9,1 -1.7,1 l -27,0 c -0.8,0 -1.7,0 -1.7,-1 0,-1 0.9,-1 1.7,-1 z"
           inkscape:connector-curvature="0"
           style="fill:#000080;stroke:#000080;stroke-width:0.5466885;stroke-miterlimit:4;stroke-dasharray:none" /><path
           id="path5368"
           d="m 1383.2,314.75 -0.1,0.17 -0.1,0.17 -0.1,0.16 -0.1,0.17 0,0.15 -0.2,0.16 -0.1,0.15 -0.1,0.15 -0.1,0.14 -0.1,0.14 -0.1,0.13 -0.1,0.13 -0.2,0.12 -0.1,0.12 -0.1,0.12 -0.2,0.11 -0.1,0.1 -0.2,0.1 -0.1,0.09 -0.2,0.09 -0.1,0.08 -0.2,0.07 -0.2,0.07 -0.1,0.06 -0.2,0.05 -0.2,0.05 -0.2,0.04 -0.2,0.04 -0.2,0.02 -0.2,0.02 -0.2,0.01 -0.2,0.01 0.1,-1.1 c 3.2,0 3.9,-4.07 3.9,-4.37 0,-0.31 -0.1,-0.61 -0.1,-0.86 l -2.5,-9.77 c -0.3,-0.89 -0.3,-0.98 -1,-1.84 -2.2,-2.73 -4.2,-3.53 -5.6,-3.53 -2.5,0 -3.2,2.73 -3.2,4.69 0,2.48 1.6,8.61 2.7,10.9 1.5,2.94 3.8,4.78 5.8,4.78 l -0.1,1.1 c -5.8,0 -12,-7.32 -12,-14.6 0,-4.68 2.8,-7.96 6.7,-7.96 0.9,0 3.5,0.2 6.4,3.73 0.4,-2.09 2.2,-3.73 4.6,-3.73 1.7,0 2.9,1.14 3.6,2.73 0.9,1.8 1.5,4.84 1.5,4.94 0,0.5 -0.4,0.5 -0.5,0.5 -0.5,0 -0.6,-0.21 -0.7,-0.91 -0.9,-3.23 -1.8,-6.17 -3.8,-6.17 -1.4,0 -1.5,1.3 -1.5,2.3 0,1.09 0.1,1.48 0.6,3.68 0.6,2.1 0.7,2.6 1.1,4.49 l 1.8,6.97 c 0.4,1.39 0.4,1.5 0.4,1.68 0,0.86 -0.6,1.36 -1.5,1.36 -1.2,0 -1.9,-1.11 -2.1,-2.2 z"
           inkscape:connector-curvature="0"
           style="fill:#000080;stroke:#000080;stroke-width:0.5466885;stroke-miterlimit:4;stroke-dasharray:none" /></g>    </g>
    <path
       inkscape:connector-curvature="0"
       id="path5749-3"
       d="M 28.671249,200.39928 357.14338,67.518059"
       style="fill:none;fill-rule:evenodd;stroke:#000000;stroke-width:2;stroke-linecap:butt;stroke-linejoin:miter;stroke-miterlimit:4;stroke-dasharray:2, 2;stroke-dashoffset:0;stroke-opacity:1"
       sodipodi:nodetypes="cc" />
    <circle
       style="fill:#000080;fill-opacity:1;stroke:none;stroke-width:1;stroke-linecap:round;stroke-miterlimit:4;stroke-dasharray:none;stroke-opacity:1"
       id="path3346-7-0"
       cx="257.85913"
       cy="107.60337"
       r="3.9147551" />
    <path
       style="fill:none;fill-rule:evenodd;stroke:#000080;stroke-width:1.16903019px;stroke-linecap:butt;stroke-linejoin:miter;stroke-opacity:1;marker-end:url(#marker4501)"
       d="m 271.36149,142.24617 -11.08454,-27.6379"
       id="path3457"
       inkscape:connector-curvature="0"
       sodipodi:nodetypes="cc" />
    <g
       id="g5855"
       transform="translate(-115.12087,11.80134)"
       style="fill:#000080;stroke:#000080;stroke-width:0.2;stroke-miterlimit:4;stroke-dasharray:none">
      <g
         word-spacing="normal"
         letter-spacing="normal"
         font-size-adjust="none"
         font-stretch="normal"
         font-weight="normal"
         font-variant="normal"
         font-style="normal"
         stroke-miterlimit="10.433"
         xml:space="preserve"
         transform="matrix(0.36583905,0,0,-0.36583905,-64.021834,283.62461)"
         id="g5857"
         style="font-style:normal;font-variant:normal;font-weight:normal;font-stretch:normal;letter-spacing:normal;word-spacing:normal;text-anchor:start;fill:#000080;fill-opacity:1;fill-rule:evenodd;stroke:#000080;stroke-width:0.5466885;stroke-linecap:butt;stroke-linejoin:miter;stroke-miterlimit:4;stroke-dasharray:none;stroke-dashoffset:0;stroke-opacity:1"><path
           id="path5859"
           d="m 1033.1,350.04 4.3,0 c 1,0 1.5,0 1.5,1 0,0.55 -0.5,0.55 -1.3,0.55 l -4.2,0 1.1,5.69 c 0.2,1.04 0.9,4.58 1.2,5.17 0.4,0.95 1.3,1.7 2.3,1.7 0.2,0 1.5,0 2.4,-0.9 -2.1,-0.19 -2.6,-1.94 -2.6,-2.69 0,-1.14 0.9,-1.74 1.8,-1.74 1.3,0 2.7,1.1 2.7,2.99 0,2.3 -2.3,3.44 -4.3,3.44 -1.7,0 -4.8,-0.89 -6.3,-5.83 -0.3,-1.05 -0.5,-1.55 -1.7,-7.83 l -3.4,0 c -0.9,0 -1.5,0 -1.5,-0.94 0,-0.61 0.5,-0.61 1.4,-0.61 l 3.3,0 -3.8,-19.67 c -0.8,-4.83 -1.7,-9.37 -4.3,-9.37 -0.2,0 -1.4,0 -2.4,0.9 2.3,0.14 2.8,1.94 2.8,2.69 0,1.14 -0.9,1.75 -1.9,1.75 -1.3,0 -2.7,-1.09 -2.7,-3 0,-2.23 2.2,-3.44 4.2,-3.44 2.7,0 4.7,2.94 5.6,4.85 1.6,3.14 2.8,9.15 2.8,9.51 z"
           inkscape:connector-curvature="0"
           style="fill:#000080;stroke:#000080;stroke-width:0.5466885;stroke-miterlimit:4;stroke-dasharray:none" /><path
           id="path5861"
           d="m 1054.7,367.21 0,0.06 0.1,0.05 0,0.05 0,0.05 0,0.05 0,0.04 0.1,0.04 0,0.05 0,0.04 0,0.04 0,0.04 0,0.03 0,0.04 0.1,0.04 0,0.03 0,0.03 0,0.03 0,0.04 0,0.03 0,0.03 0,0.02 0,0.03 0,0.03 0,0.03 0,0.05 0,0.05 0,0.05 0,0.04 c 0,1.08 -1,1.93 -2,1.93 -1.4,0 -1.8,-1.1 -1.9,-1.64 l -4.7,-15.1 c 0,-0.06 -0.1,-0.51 -0.1,-0.56 0,-0.41 1,-0.77 1.3,-0.77 0.3,0 0.3,0.08 0.6,0.6 z"
           inkscape:connector-curvature="0"
           style="fill:#000080;stroke:#000080;stroke-width:0.5466885;stroke-miterlimit:4;stroke-dasharray:none" /><path
           id="path5863"
           d="m 1075,318.17 0,0.02 0,0.03 0,0.01 0,0.02 0,0.01 0,0.02 0,0.02 0,0.01 0,0.02 0,0.02 -0.1,0.03 0,0.02 0,0.02 0,0.03 0,0.03 0,0.03 -0.1,0.04 0,0.03 0,0.02 0,0.02 -0.1,0.02 0,0.02 0,0.02 0,0.03 0,0.02 -0.1,0.02 0,0.03 0,0.03 0,0.02 -0.1,0.03 0,0.03 0,0.03 0,0.03 -0.1,0.03 0,0.03 0,0.03 -0.1,0.04 0,0.03 0,0.04 -0.1,0.03 0,0.04 0,0.04 c -6.3,6.28 -7.9,15.69 -7.9,23.31 0,8.68 1.9,17.35 8.1,23.57 0.6,0.61 0.6,0.7 0.6,0.86 0,0.34 -0.2,0.48 -0.5,0.48 -0.5,0 -5,-3.37 -7.9,-9.7 -2.5,-5.49 -3.1,-11.02 -3.1,-15.21 0,-3.89 0.5,-9.9 3.2,-15.54 3,-6.13 7.3,-9.36 7.8,-9.36 0.3,0 0.5,0.14 0.5,0.5 z"
           inkscape:connector-curvature="0"
           style="fill:#000080;stroke:#000080;stroke-width:0.5466885;stroke-miterlimit:4;stroke-dasharray:none" /><path
           id="path5865"
           d="m 1085.5,345.37 -0.5,-0.34 -0.5,-0.34 -0.4,-0.36 -0.4,-0.35 -0.4,-0.36 -0.4,-0.36 -0.4,-0.36 -0.3,-0.37 -0.3,-0.36 -0.3,-0.37 -0.3,-0.36 -0.2,-0.36 -0.3,-0.36 -0.2,-0.36 -0.2,-0.35 -0.2,-0.35 -0.2,-0.34 -0.1,-0.34 -0.2,-0.33 -0.1,-0.32 -0.1,-0.32 -0.1,-0.3 -0.1,-0.3 -0.1,-0.28 0,-0.28 -0.1,-0.26 0,-0.25 -0.1,-0.23 0,-0.23 0,-0.2 0,-0.2 0,-0.17 c 0,-2.39 1.3,-3.8 1.4,-3.94 1.6,-1.66 2.1,-1.84 5.8,-3.25 l 6,-2.33 c 0.8,-0.36 1.8,-0.7 1.8,-2.15 0,-1.14 -0.9,-2.64 -2.5,-2.64 -2.2,0 -3.8,1.2 -4.3,1.61 -0.4,0.18 -0.4,0.23 -0.6,0.23 -0.4,0 -0.5,-0.34 -0.5,-0.55 0,-0.59 2.6,-2.39 5.4,-2.39 3.1,0 5.2,2.89 5.2,5.35 0,2.39 -1.8,3.28 -2.4,3.53 -0.7,0.25 -2.4,0.89 -3,1.14 -1,0.4 -2,0.79 -3.1,1.15 l -2.9,1.19 c -2.3,0.91 -3.8,2.35 -3.8,4.44 0,2.05 2,6.37 6.2,8.47 1.8,-0.66 3.3,-0.66 4.3,-0.66 1.5,0 4.7,0 4.7,1.55 0,1.25 -2.2,1.34 -4.1,1.34 l -0.1,-1.09 c 1.8,0 2,-0.05 2.9,-0.3 -0.4,-0.2 -0.9,-0.39 -3.2,-0.39 -1.2,0 -1.6,0 -2.5,0.39 l 0,0 c 1.1,0.3 2.2,0.3 2.8,0.3 l 0.1,1.09 c -0.9,0 -2.4,0 -4.2,-0.59 -1.3,1.3 -1.5,2.94 -1.5,3.89 0,2.78 1.8,6.62 5.5,8.47 0.9,-1.1 2.1,-1.1 3.2,-1.1 l 0.1,1.1 c -1,0 -1.6,0 -2.1,0.45 l 0,0 c 0.8,0.25 1.8,0.25 2.4,0.25 1.7,0 1.9,-0.06 2.8,-0.31 -0.4,-0.14 -0.9,-0.39 -3.1,-0.39 l -0.1,-1.1 c 1.3,0 4.5,0 4.5,1.55 0,1.3 -2.2,1.34 -4.2,1.34 -0.6,0 -1.8,0 -3.1,-0.25 -0.2,0.44 -0.3,0.8 -0.3,1.65 0,0.7 0.3,1.75 0.3,1.84 0,0.39 -0.3,0.64 -0.6,0.64 -0.9,0 -0.9,-2.28 -0.9,-2.44 0,-1 0.3,-1.73 0.3,-1.94 -5.3,-1.5 -8.7,-5.48 -8.7,-9.31 0,-1.84 0.9,-3.94 3.3,-5.28 z"
           inkscape:connector-curvature="0"
           style="fill:#000080;stroke:#000080;stroke-width:0.5466885;stroke-miterlimit:4;stroke-dasharray:none" /><path
           id="path5867"
           d="m 1117.3,329.02 -1.2,0 c -0.1,-0.76 -0.5,-2.82 -0.9,-3.17 -0.3,-0.2 -3,-0.2 -3.5,-0.2 l -6.4,0 c 3.7,3.23 4.9,4.2 7,5.84 2.6,2.06 5,4.22 5,7.53 0,4.22 -3.7,6.8 -8.2,6.8 -4.3,0 -7.2,-3.03 -7.2,-6.23 0,-1.79 1.5,-1.96 1.8,-1.96 0.9,0 1.9,0.6 1.9,1.85 0,0.62 -0.3,1.84 -2.1,1.84 1.1,2.47 3.5,3.23 5.1,3.23 3.5,0 5.3,-2.7 5.3,-5.53 0,-3.03 -2.2,-5.43 -3.3,-6.68 l -8.4,-8.3 c -0.3,-0.31 -0.3,-0.39 -0.3,-1.36 l 14.3,0 z"
           inkscape:connector-curvature="0"
           style="fill:#000080;stroke:#000080;stroke-width:0.5466885;stroke-miterlimit:4;stroke-dasharray:none" /><path
           id="path5869"
           d="m 1136.5,342.57 0,0.37 0,0.39 0,0.39 0,0.41 -0.1,0.84 0,0.88 -0.1,0.92 -0.1,0.95 -0.1,0.98 -0.2,1 -0.2,1.02 -0.2,1.04 -0.3,1.05 -0.3,1.06 -0.4,1.06 -0.3,1.07 -0.3,0.53 -0.2,0.53 -0.2,0.53 -0.3,0.53 c -3,6.13 -7.2,9.36 -7.7,9.36 -0.3,0 -0.5,-0.19 -0.5,-0.48 0,-0.16 0,-0.25 0.9,-1.16 4.9,-4.92 7.7,-12.84 7.7,-23.27 0,-8.51 -1.8,-17.28 -8,-23.56 -0.6,-0.59 -0.6,-0.7 -0.6,-0.84 0,-0.3 0.2,-0.5 0.5,-0.5 0.5,0 4.9,3.39 7.9,9.72 2.5,5.47 3.1,11 3.1,15.18 z"
           inkscape:connector-curvature="0"
           style="fill:#000080;stroke:#000080;stroke-width:0.5466885;stroke-miterlimit:4;stroke-dasharray:none" /><path
           id="path5871"
           d="m 1189.5,346.42 0.1,0 0.2,0 0.1,0 0.1,0.01 0,0 0.1,0.01 0.1,0.01 0.1,0.01 0,0.01 0.1,0.01 0.1,0.02 0,0.02 0.1,0.02 0.1,0.03 0,0.02 0.1,0.03 0,0.04 0.1,0.04 0,0.04 0.1,0.04 0,0.05 0,0.03 0,0.03 0.1,0.03 0,0.03 0,0.03 0,0.03 0,0.03 0,0.04 0,0.03 0,0.04 0,0.04 0,0.04 0.1,0.04 0,0.04 0,0.05 0,0.04 c 0,1 -1,1 -1.7,1 l -29.8,0 c -0.7,0 -1.7,0 -1.7,-1 0,-0.98 1,-0.98 1.7,-0.98 z"
           inkscape:connector-curvature="0"
           style="fill:#000080;stroke:#000080;stroke-width:0.5466885;stroke-miterlimit:4;stroke-dasharray:none" /><path
           id="path5873"
           d="m 1189.5,336.75 0.1,0 0.1,0 0.1,0 0.1,0 0.1,0.01 0.1,0 0,0.01 0.1,0.01 0.1,0.01 0,0.01 0.1,0.01 0.1,0.02 0,0.02 0.1,0.02 0.1,0.03 0,0.02 0.1,0.04 0,0.03 0.1,0.04 0,0.04 0.1,0.05 0,0.02 0,0.03 0,0.02 0,0.03 0.1,0.03 0,0.03 0,0.03 0,0.04 0,0.03 0,0.04 0,0.03 0,0.04 0,0.04 0,0.04 0.1,0.04 0,0.05 0,0.04 0,0.05 c 0,1 -1,1 -1.7,1 l -29.8,0 c -0.7,0 -1.7,0 -1.7,-1 0,-1 1,-1 1.7,-1 z"
           inkscape:connector-curvature="0"
           style="fill:#000080;stroke:#000080;stroke-width:0.5466885;stroke-miterlimit:4;stroke-dasharray:none" /><path
           id="path5875"
           d="m 1232.1,383.76 4.3,0 c 1,0 1.5,0 1.5,1 0,0.55 -0.5,0.55 -1.4,0.55 l -4.1,0 1,5.69 c 0.2,1.04 0.9,4.57 1.2,5.17 0.5,0.95 1.3,1.7 2.4,1.7 0.2,0 1.5,0 2.4,-0.91 -2.2,-0.18 -2.7,-1.93 -2.7,-2.68 0,-1.14 0.9,-1.74 1.9,-1.74 1.3,0 2.7,1.1 2.7,2.99 0,2.29 -2.3,3.43 -4.3,3.43 -1.7,0 -4.9,-0.89 -6.4,-5.82 -0.3,-1.05 -0.4,-1.55 -1.6,-7.83 l -3.4,0 c -1,0 -1.5,0 -1.5,-0.94 0,-0.61 0.4,-0.61 1.4,-0.61 l 3.3,0 -3.8,-19.67 c -0.9,-4.83 -1.7,-9.38 -4.3,-9.38 -0.2,0 -1.5,0 -2.4,0.91 2.3,0.14 2.7,1.94 2.7,2.69 0,1.14 -0.9,1.75 -1.8,1.75 -1.3,0 -2.8,-1.1 -2.8,-3 0,-2.24 2.2,-3.44 4.3,-3.44 2.7,0 4.7,2.94 5.6,4.84 1.6,3.15 2.8,9.16 2.8,9.52 z"
           inkscape:connector-curvature="0"
           style="fill:#000080;stroke:#000080;stroke-width:0.5466885;stroke-miterlimit:4;stroke-dasharray:none" /><path
           id="path5877"
           d="m 1260,351.89 0,0.02 0,0.03 0,0.01 0,0.02 0,0.01 0,0.02 0,0.01 0,0.02 0,0.02 0,0.02 0,0.02 0,0.03 0,0.02 -0.1,0.03 0,0.03 0,0.03 0,0.03 -0.1,0.04 0,0.02 0,0.02 0,0.02 0,0.02 -0.1,0.02 0,0.03 0,0.02 0,0.02 0,0.03 -0.1,0.02 0,0.03 0,0.03 0,0.03 -0.1,0.03 0,0.03 0,0.03 -0.1,0.03 0,0.03 0,0.04 -0.1,0.03 0,0.04 0,0.03 -0.1,0.04 0,0.04 c -6.2,6.28 -7.8,15.69 -7.8,23.31 0,8.67 1.9,17.35 8,23.57 0.6,0.6 0.6,0.7 0.6,0.85 0,0.35 -0.1,0.49 -0.4,0.49 -0.5,0 -5,-3.38 -8,-9.7 -2.5,-5.49 -3.1,-11.02 -3.1,-15.21 0,-3.89 0.5,-9.9 3.3,-15.54 3,-6.13 7.3,-9.36 7.8,-9.36 0.3,0 0.4,0.14 0.4,0.5 z"
           inkscape:connector-curvature="0"
           style="fill:#000080;stroke:#000080;stroke-width:0.5466885;stroke-miterlimit:4;stroke-dasharray:none" /><path
           id="path5879"
           d="m 1274.8,397.87 0,0 0,0.01 0,0 0,0.02 0,0.01 0,0.01 0,0.02 0,0.02 0,0.02 0,0.02 0,0.02 0,0.02 -0.1,0.02 0,0.03 0,0.02 0,0.03 0,0.02 0,0.03 0,0.02 -0.1,0.02 0,0.03 0,0.01 0,0.01 0,0.01 0,0.01 0,0.01 -0.1,0.01 0,0.01 0,0.01 0,0.01 0,0.01 0,0 -0.1,0.01 0,0.01 0,0.01 0,0 0,0.01 -0.1,0 0,0.01 0,0 0,0 -0.1,0 0,0.01 0,0 -0.1,0 c -1.1,0 -4.7,-0.41 -6,-0.5 -0.4,-0.05 -1,-0.1 -1,-1 0,-0.6 0.5,-0.6 1.2,-0.6 2.4,0 2.5,-0.34 2.5,-0.84 0,-0.36 -0.5,-2.05 -0.7,-3.09 l -4.1,-16.24 c -0.6,-2.5 -0.8,-3.29 -0.8,-5.03 0,-4.73 2.7,-7.83 6.4,-7.83 l 0,1.1 c -1.8,0 -3.4,1.34 -3.4,5.03 0,0.95 0,1.89 0.8,5.03 l 1.1,4.59 c 0.3,1.1 0.3,1.19 0.7,1.74 2.5,3.23 4.7,3.98 6,3.98 1.8,0 3.2,-1.48 3.2,-4.69 0,-2.93 -1.7,-8.65 -2.6,-10.56 -1.6,-3.33 -3.9,-5.12 -5.8,-5.12 l 0,-1.1 c 5.8,0 12,7.42 12,14.6 0,4.53 -2.7,7.97 -6.7,7.97 -2.3,0 -4.3,-1.44 -5.8,-2.99 z"
           inkscape:connector-curvature="0"
           style="fill:#000080;stroke:#000080;stroke-width:0.5466885;stroke-miterlimit:4;stroke-dasharray:none" /><path
           id="path5881"
           d="m 1298.6,376.29 0,0.37 0,0.39 0,0.39 0,0.41 0,0.84 -0.1,0.88 -0.1,0.92 -0.1,0.95 -0.1,0.98 -0.2,1 -0.2,1.02 -0.2,1.03 -0.3,1.06 -0.3,1.05 -0.3,1.07 -0.4,1.07 -0.2,0.53 -0.3,0.53 -0.2,0.53 -0.3,0.53 c -2.9,6.12 -7.2,9.36 -7.7,9.36 -0.3,0 -0.5,-0.19 -0.5,-0.49 0,-0.15 0,-0.25 0.9,-1.15 4.9,-4.92 7.8,-12.85 7.8,-23.27 0,-8.51 -1.9,-17.28 -8.1,-23.56 -0.6,-0.59 -0.6,-0.7 -0.6,-0.84 0,-0.3 0.2,-0.5 0.5,-0.5 0.5,0 5,3.39 7.9,9.72 2.5,5.46 3.1,11 3.1,15.18 z"
           inkscape:connector-curvature="0"
           style="fill:#000080;stroke:#000080;stroke-width:0.5466885;stroke-miterlimit:4;stroke-dasharray:none" /><path
           id="path5883"
           d="m 1347.7,375.29 0.1,0 0.2,0 0.1,0.01 0.1,0 0.1,0.01 0.1,0.01 0,0 0.1,0.01 0.1,0.02 0.1,0.01 0,0.02 0.1,0.02 0.1,0.02 0,0.02 0.1,0.03 0,0.03 0.1,0.04 0,0.04 0.1,0.04 0,0.04 0.1,0.05 0,0.03 0,0.03 0,0.03 0,0.03 0,0.03 0,0.03 0.1,0.04 0,0.03 0,0.04 0,0.04 0,0.04 0,0.04 0,0.04 0,0.04 0,0.05 0,0.04 c 0,1 -0.9,1 -1.7,1 l -27,0 c -0.8,0 -1.7,0 -1.7,-1 0,-1 0.9,-1 1.7,-1 z"
           inkscape:connector-curvature="0"
           style="fill:#000080;stroke:#000080;stroke-width:0.5466885;stroke-miterlimit:4;stroke-dasharray:none" /><path
           id="path5885"
           d="m 1382.9,383.76 4.3,0 c 1,0 1.5,0 1.5,1 0,0.55 -0.5,0.55 -1.4,0.55 l -4.1,0 1,5.69 c 0.3,1.04 1,4.57 1.3,5.17 0.4,0.95 1.3,1.7 2.3,1.7 0.2,0 1.5,0 2.4,-0.91 -2.1,-0.18 -2.6,-1.93 -2.6,-2.68 0,-1.14 0.8,-1.74 1.8,-1.74 1.3,0 2.7,1.1 2.7,2.99 0,2.29 -2.3,3.43 -4.3,3.43 -1.7,0 -4.8,-0.89 -6.3,-5.82 -0.3,-1.05 -0.5,-1.55 -1.7,-7.83 l -3.4,0 c -1,0 -1.5,0 -1.5,-0.94 0,-0.61 0.4,-0.61 1.4,-0.61 l 3.3,0 -3.8,-19.67 c -0.9,-4.83 -1.7,-9.38 -4.3,-9.38 -0.2,0 -1.4,0 -2.4,0.91 2.3,0.14 2.7,1.94 2.7,2.69 0,1.14 -0.8,1.75 -1.8,1.75 -1.3,0 -2.7,-1.1 -2.7,-3 0,-2.24 2.2,-3.44 4.2,-3.44 2.7,0 4.7,2.94 5.6,4.84 1.6,3.15 2.8,9.16 2.8,9.52 z"
           inkscape:connector-curvature="0"
           style="fill:#000080;stroke:#000080;stroke-width:0.5466885;stroke-miterlimit:4;stroke-dasharray:none" /><path
           id="path5887"
           d="m 1410.9,351.89 0,0.02 0,0.03 0,0.01 0,0.02 0,0.01 0,0.02 0,0.01 0,0.02 -0.1,0.02 0,0.02 0,0.02 0,0.03 0,0.02 0,0.03 0,0.03 -0.1,0.03 0,0.03 0,0.04 0,0.02 -0.1,0.02 0,0.02 0,0.02 0,0.02 0,0.03 -0.1,0.02 0,0.02 0,0.03 0,0.02 -0.1,0.03 0,0.03 0,0.03 0,0.03 -0.1,0.03 0,0.03 0,0.03 -0.1,0.03 0,0.04 0,0.03 -0.1,0.04 0,0.03 0,0.04 -0.1,0.04 c -6.2,6.28 -7.8,15.69 -7.8,23.31 0,8.67 1.9,17.35 8,23.57 0.7,0.6 0.7,0.7 0.7,0.85 0,0.35 -0.2,0.49 -0.5,0.49 -0.5,0 -5,-3.38 -7.9,-9.7 -2.6,-5.49 -3.2,-11.02 -3.2,-15.21 0,-3.89 0.6,-9.9 3.3,-15.54 3,-6.13 7.3,-9.36 7.8,-9.36 0.3,0 0.5,0.14 0.5,0.5 z"
           inkscape:connector-curvature="0"
           style="fill:#000080;stroke:#000080;stroke-width:0.5466885;stroke-miterlimit:4;stroke-dasharray:none" /><path
           id="path5889"
           d="m 1432.3,382.67 -0.1,0.17 -0.1,0.17 -0.1,0.16 -0.1,0.16 -0.1,0.16 -0.1,0.16 -0.1,0.15 -0.1,0.14 -0.1,0.15 -0.1,0.13 -0.1,0.14 -0.2,0.13 -0.1,0.12 -0.1,0.12 -0.2,0.11 -0.1,0.11 -0.1,0.11 -0.2,0.09 -0.1,0.1 -0.2,0.08 -0.2,0.08 -0.1,0.08 -0.2,0.07 -0.2,0.06 -0.1,0.05 -0.2,0.05 -0.2,0.04 -0.2,0.03 -0.2,0.03 -0.2,0.02 -0.2,0.01 -0.2,0.01 0.1,-1.1 c 3.2,0 3.9,-4.08 3.9,-4.37 0,-0.32 -0.1,-0.61 -0.1,-0.86 l -2.5,-9.77 c -0.3,-0.89 -0.3,-0.98 -1,-1.84 -2.2,-2.74 -4.3,-3.53 -5.7,-3.53 -2.5,0 -3.2,2.73 -3.2,4.68 0,2.49 1.6,8.61 2.8,10.91 1.5,2.94 3.8,4.78 5.8,4.78 l -0.1,1.1 c -5.8,0 -12,-7.32 -12,-14.6 0,-4.69 2.7,-7.97 6.6,-7.97 1,0 3.5,0.21 6.5,3.74 0.4,-2.1 2.1,-3.74 4.5,-3.74 1.8,0 2.9,1.14 3.7,2.74 0.9,1.79 1.5,4.84 1.5,4.93 0,0.5 -0.4,0.5 -0.6,0.5 -0.5,0 -0.5,-0.2 -0.7,-0.9 -0.8,-3.24 -1.7,-6.17 -3.8,-6.17 -1.3,0 -1.5,1.29 -1.5,2.29 0,1.1 0.1,1.49 0.7,3.69 0.5,2.09 0.6,2.59 1.1,4.49 l 1.8,6.96 c 0.3,1.39 0.3,1.5 0.3,1.69 0,0.86 -0.6,1.36 -1.4,1.36 -1.2,0 -2,-1.11 -2.1,-2.2 z"
           inkscape:connector-curvature="0"
           style="fill:#000080;stroke:#000080;stroke-width:0.5466885;stroke-miterlimit:4;stroke-dasharray:none" /><path
           id="path5891"
           d="m 1454.4,376.29 0,0.37 0,0.39 0,0.39 0,0.41 -0.1,0.84 0,0.88 -0.1,0.92 -0.1,0.95 -0.2,0.98 -0.1,1 -0.2,1.02 -0.3,1.03 -0.2,1.06 -0.3,1.05 -0.4,1.07 -0.4,1.07 -0.2,0.53 -0.2,0.53 -0.3,0.53 -0.2,0.53 c -3,6.12 -7.3,9.36 -7.8,9.36 -0.3,0 -0.5,-0.19 -0.5,-0.49 0,-0.15 0,-0.25 1,-1.15 4.9,-4.92 7.7,-12.85 7.7,-23.27 0,-8.51 -1.8,-17.28 -8,-23.56 -0.7,-0.59 -0.7,-0.7 -0.7,-0.84 0,-0.3 0.2,-0.5 0.5,-0.5 0.5,0 5,3.39 7.9,9.72 2.6,5.46 3.2,11 3.2,15.18 z"
           inkscape:connector-curvature="0"
           style="fill:#000080;stroke:#000080;stroke-width:0.5466885;stroke-miterlimit:4;stroke-dasharray:none" /><polyline
           id="polyline5893"
           points="1214,342 1459.6,342 1459.6,344.04 1214,344.04 "
           style="fill:#000080;fill-rule:nonzero;stroke:#000080;stroke-width:0.5466885;stroke-miterlimit:4;stroke-dasharray:none" /><path
           id="path5895"
           d="m 1294.2,329.95 0,0.01 0,0 0,0.01 0,0.01 0,0.01 0,0.01 0,0.02 0,0.02 0,0.02 0,0.02 0,0.02 0,0.02 0,0.03 0,0.02 0,0.03 0,0.02 -0.1,0.02 0,0.03 0,0.02 0,0.03 0,0.02 0,0.01 -0.1,0.01 0,0.01 0,0.01 0,0.01 0,0.01 0,0.01 0,0.01 -0.1,0.01 0,0.01 0,0.01 0,0 0,0.01 -0.1,0.01 0,0 0,0.01 0,0 0,0.01 -0.1,0 0,0 0,0.01 -0.1,0 0,0 0,0 c -1.2,0 -4.8,-0.41 -6.1,-0.5 -0.4,-0.05 -0.9,-0.09 -0.9,-1 0,-0.59 0.4,-0.59 1.2,-0.59 2.4,0 2.4,-0.35 2.4,-0.85 0,-0.36 -0.4,-2.04 -0.7,-3.09 l -4,-16.24 c -0.6,-2.5 -0.8,-3.29 -0.8,-5.03 0,-4.73 2.6,-7.82 6.3,-7.82 l 0,1.09 c -1.7,0 -3.3,1.34 -3.3,5.03 0,0.95 0,1.89 0.7,5.03 l 1.1,4.59 c 0.3,1.1 0.3,1.19 0.8,1.74 2.4,3.23 4.7,3.98 6,3.98 1.8,0 3.1,-1.48 3.1,-4.68 0,-2.94 -1.6,-8.66 -2.5,-10.57 -1.7,-3.32 -4,-5.12 -5.9,-5.12 l 0,-1.09 c 5.9,0 12,7.42 12,14.59 0,4.53 -2.7,7.97 -6.6,7.97 -2.3,0 -4.4,-1.44 -5.9,-2.99 z"
           inkscape:connector-curvature="0"
           style="fill:#000080;stroke:#000080;stroke-width:0.5466885;stroke-miterlimit:4;stroke-dasharray:none" /><path
           id="path5897"
           d="m 1347.7,307.38 0.1,0 0.2,0 0.1,0 0.1,0.01 0.1,0 0.1,0.01 0,0.01 0.1,0.01 0.1,0.01 0.1,0.01 0,0.02 0.1,0.02 0.1,0.02 0,0.02 0.1,0.03 0,0.03 0.1,0.04 0,0.04 0.1,0.04 0,0.05 0.1,0.05 0,0.02 0,0.03 0,0.03 0,0.03 0,0.03 0.1,0.04 0,0.03 0,0.03 0,0.04 0,0.04 0,0.04 0,0.04 0,0.04 0,0.04 0,0.05 0,0.05 c 0,1 -0.9,1 -1.7,1 l -27,0 c -0.8,0 -1.7,0 -1.7,-1 0,-1 0.9,-1 1.7,-1 z"
           inkscape:connector-curvature="0"
           style="fill:#000080;stroke:#000080;stroke-width:0.5466885;stroke-miterlimit:4;stroke-dasharray:none" /><path
           id="path5899"
           d="m 1383.2,314.75 -0.1,0.17 -0.1,0.17 -0.1,0.16 -0.1,0.17 0,0.15 -0.2,0.16 -0.1,0.15 -0.1,0.15 -0.1,0.14 -0.1,0.14 -0.1,0.13 -0.1,0.13 -0.2,0.12 -0.1,0.12 -0.1,0.12 -0.2,0.11 -0.1,0.1 -0.2,0.1 -0.1,0.09 -0.2,0.09 -0.1,0.08 -0.2,0.07 -0.2,0.07 -0.1,0.06 -0.2,0.05 -0.2,0.05 -0.2,0.04 -0.2,0.04 -0.2,0.02 -0.2,0.02 -0.2,0.01 -0.2,0.01 0.1,-1.1 c 3.2,0 3.9,-4.07 3.9,-4.37 0,-0.31 -0.1,-0.61 -0.1,-0.86 l -2.5,-9.77 c -0.3,-0.89 -0.3,-0.98 -1,-1.84 -2.2,-2.73 -4.2,-3.53 -5.6,-3.53 -2.5,0 -3.2,2.73 -3.2,4.69 0,2.48 1.6,8.61 2.7,10.9 1.5,2.94 3.8,4.78 5.8,4.78 l -0.1,1.1 c -5.8,0 -12,-7.32 -12,-14.6 0,-4.68 2.8,-7.96 6.7,-7.96 0.9,0 3.5,0.2 6.4,3.73 0.4,-2.09 2.2,-3.73 4.6,-3.73 1.7,0 2.9,1.14 3.6,2.73 0.9,1.8 1.5,4.84 1.5,4.94 0,0.5 -0.4,0.5 -0.5,0.5 -0.5,0 -0.6,-0.21 -0.7,-0.91 -0.9,-3.23 -1.8,-6.17 -3.8,-6.17 -1.4,0 -1.5,1.3 -1.5,2.3 0,1.09 0.1,1.48 0.6,3.68 0.6,2.1 0.7,2.6 1.1,4.49 l 1.8,6.97 c 0.4,1.39 0.4,1.5 0.4,1.68 0,0.86 -0.6,1.36 -1.5,1.36 -1.2,0 -1.9,-1.11 -2.1,-2.2 z"
           inkscape:connector-curvature="0"
           style="fill:#000080;stroke:#000080;stroke-width:0.5466885;stroke-miterlimit:4;stroke-dasharray:none" /></g>    </g>
    <circle
       style="fill:#000080;fill-opacity:1;stroke:none;stroke-width:1;stroke-linecap:round;stroke-miterlimit:4;stroke-dasharray:none;stroke-opacity:1"
       id="path3346-7-0-6"
       cx="120.29594"
       cy="29.396343"
       r="3.9147551" />
  </g>
</svg>
