<?xml version="1.0" encoding="UTF-8" standalone="no"?>
<!-- Generator: Adobe Illustrator 17.0.0, SVG Export Plug-In . SVG Version: 6.00 Build 0)  -->

<svg
   xmlns:dc="http://purl.org/dc/elements/1.1/"
   xmlns:cc="http://creativecommons.org/ns#"
   xmlns:rdf="http://www.w3.org/1999/02/22-rdf-syntax-ns#"
   xmlns:svg="http://www.w3.org/2000/svg"
   xmlns="http://www.w3.org/2000/svg"
   xmlns:xlink="http://www.w3.org/1999/xlink"
   xmlns:sodipodi="http://sodipodi.sourceforge.net/DTD/sodipodi-0.dtd"
   xmlns:inkscape="http://www.inkscape.org/namespaces/inkscape"
   version="1.1"
   id="Layer_1"
   x="0px"
   y="0px"
   width="241.18431"
   height="251.42319"
   viewBox="0 0 241.18431 251.4232"
   enable-background="new 0 0 500.824 310.843"
   xml:space="preserve"
   sodipodi:docname="presto_emacs.svg"
   inkscape:version="0.92.3 (2405546, 2018-03-11)"><metadata
   id="metadata959"><rdf:RDF><cc:Work
       rdf:about=""><dc:format>image/svg+xml</dc:format><dc:type
         rdf:resource="http://purl.org/dc/dcmitype/StillImage" /><dc:title></dc:title></cc:Work></rdf:RDF></metadata><defs
   id="defs957"><linearGradient
   y2="300.73987"
   x2="236.61363"
   y1="-161.8512"
   x1="-122.20192"
   spreadMethod="pad"
   gradientTransform="matrix(0.08192422,0,0,0.07764193,294.12229,448.16182)"
   gradientUnits="userSpaceOnUse"
   id="linearGradient4245"
   xlink:href="#linearGradient4284" /><linearGradient
   id="linearGradient4284"><stop
     offset="0"
     style="stop-color:#8381c5;stop-opacity:1"
     id="stop4286" /><stop
     id="stop4290"
     style="stop-color:#7e55b3;stop-opacity:0.99607843"
     offset="0.56639391" /><stop
     offset="1"
     style="stop-color:#a52ecb;stop-opacity:0.99215686"
     id="stop4288" /></linearGradient><linearGradient
   y2="66.018341"
   x2="173.94518"
   y1="396.6066"
   x1="447.80933"
   gradientTransform="matrix(0.09251715,0,0,0.09251715,271.34355,424.93466)"
   gradientUnits="userSpaceOnUse"
   id="linearGradient4247"
   xlink:href="#linearGradient4292" /><linearGradient
   id="linearGradient4292"><stop
     id="stop4294"
     offset="0"
     style="stop-color:#411f5d;stop-opacity:1" /><stop
     id="stop4296"
     offset="1"
     style="stop-color:#5b2a85;stop-opacity:1" /></linearGradient><filter
   height="1.088351"
   y="-0.044175494"
   width="1.0892535"
   x="-0.044626798"
   id="filter4350"
   style="color-interpolation-filters:sRGB"><feGaussianBlur
     id="feGaussianBlur4352"
     stdDeviation="8.7848425" /></filter>
	
	
</defs><sodipodi:namedview
   pagecolor="#ffffff"
   bordercolor="#666666"
   borderopacity="1"
   objecttolerance="10"
   gridtolerance="10"
   guidetolerance="10"
   inkscape:pageopacity="0"
   inkscape:pageshadow="2"
   inkscape:window-width="1920"
   inkscape:window-height="1017"
   id="namedview955"
   showgrid="false"
   inkscape:zoom="0.47122342"
   inkscape:cx="140.40664"
   inkscape:cy="185.13139"
   inkscape:window-x="-8"
   inkscape:window-y="-8"
   inkscape:window-maximized="1"
   inkscape:current-layer="Layer_1"
   fit-margin-top="0"
   fit-margin-left="0"
   fit-margin-right="0"
   fit-margin-bottom="0" />
<rect
   y="0"
   width="241.18431"
   height="251.42319"
   id="rect888"
   x="0"
   style="stroke-width:0.62411422" />

<g
   id="g5519"
   transform="matrix(2.5847499,0,0,2.5847499,-599.16451,-1033.6522)"><path
     transform="matrix(0.09251715,0,0,0.09251715,271.34355,424.93466)"
     d="m 491.66937,257.75916 c 0,131.79436 -105.76,238.63481 -236.22155,238.63481 -130.46155,0 -236.221539,-106.84045 -236.221539,-238.63481 0,-131.79437 105.759989,-238.634808 236.221539,-238.634808 130.46155,0 236.22155,106.840438 236.22155,238.634808 z"
     id="path4233"
     style="opacity:0.40500004;fill:#211f46;fill-opacity:0.99607843;stroke:#0a0b1b;stroke-width:8.53333378;stroke-miterlimit:4;stroke-dasharray:none;stroke-opacity:1;filter:url(#filter4350)"
     inkscape:connector-curvature="0" /><path
     style="opacity:1;fill:url(#linearGradient4245);fill-opacity:1;stroke:url(#linearGradient4247);stroke-width:1.25045323;stroke-miterlimit:4;stroke-dasharray:none;stroke-opacity:1"
     id="path4235"
     d="m 316.83139,448.78181 c 0,12.19323 -9.78461,22.07781 -21.85454,22.07781 -12.06992,0 -21.85455,-9.88458 -21.85455,-22.07781 0,-12.19324 9.78463,-22.07782 21.85455,-22.07782 12.06993,0 21.85454,9.88458 21.85454,22.07782 z"
     inkscape:connector-curvature="0" /><path
     style="fill:#ffffff;fill-opacity:1;fill-rule:evenodd;stroke:#000000;stroke-width:0;stroke-linecap:butt;stroke-linejoin:miter;stroke-miterlimit:4;stroke-dasharray:none;stroke-opacity:1"
     id="path4237"
     d="m 287.46535,464.28956 c 0,0 1.85048,0.1309 4.23105,-0.0789 0.96407,-0.085 4.62438,-0.4445 7.36096,-1.04465 0,0 3.33655,-0.71406 5.12157,-1.37188 1.86773,-0.68829 2.88409,-1.27247 3.34156,-2.10022 -0.0199,-0.1696 0.14085,-0.77104 -0.72047,-1.1323 -2.20206,-0.92363 -4.75594,-0.75657 -9.80942,-0.86371 -5.60411,-0.19255 -7.46838,-1.1306 -8.46146,-1.8861 -0.9523,-0.76642 -0.47344,-2.8868 3.60696,-4.75453 2.05541,-0.99459 10.11286,-2.83003 10.11286,-2.83003 -2.71361,-1.3413 -7.77362,-3.69927 -8.81376,-4.20846 -0.91226,-0.44657 -2.37216,-1.11899 -2.68861,-1.93253 -0.35879,-0.78102 0.84734,-1.4538 1.52107,-1.64647 2.16983,-0.62588 5.23296,-1.01488 8.02077,-1.05855 1.4013,-0.022 1.62875,-0.11211 1.62875,-0.11211 1.93353,-0.32074 3.20638,-1.64361 2.67606,-3.73864 -0.47609,-2.13848 -2.98703,-3.39503 -5.37317,-2.96002 -2.24702,0.40964 -7.66292,1.98282 -7.66292,1.98282 6.69446,-0.0579 7.81493,0.0538 8.31535,0.75344 0.29552,0.4132 -0.13429,0.97975 -1.91968,1.27134 -1.94371,0.31746 -5.98417,0.69975 -5.98417,0.69975 -3.87609,0.2302 -6.60639,0.2456 -7.42528,1.97936 -0.53499,1.13268 0.5705,2.13406 1.05504,2.76087 2.04757,2.2771 5.00515,3.5052 6.90889,4.40958 0.7163,0.34028 2.81799,0.98289 2.81799,0.98289 -6.17608,-0.33969 -10.63128,1.55676 -13.24466,3.74027 -2.95582,2.73399 -1.64826,5.99283 4.40741,7.99938 3.57672,1.18515 5.35055,1.74253 10.68577,1.2621 3.1425,-0.16939 3.63788,-0.0686 3.66921,0.18927 0.0441,0.36304 -3.49041,1.26484 -4.45537,1.54318 -2.45487,0.7081 -8.89009,2.13791 -8.9223,2.14485 z"
     inkscape:connector-curvature="0" /></g><g
   id="g950"
   transform="translate(-279.77622,-27.587763)">
		<g
   id="g934">
			<circle
   style="fill:#5890ff"
   id="circle904"
   r="4.5009999"
   cy="111.96"
   cx="360.22101" />
			<circle
   style="fill:#5890ff"
   id="circle906"
   r="5"
   cy="124.327"
   cx="372.58801" />
			<circle
   style="fill:#5890ff"
   id="circle908"
   r="5.4990001"
   cy="136.694"
   cx="384.95499" />
			<circle
   style="fill:#5890ff"
   id="circle910"
   r="5.9980001"
   cy="149.061"
   cx="397.32199" />
			<circle
   style="fill:#1edcff"
   id="circle912"
   r="4.0009999"
   cy="111.96"
   cx="335.48801" />
			<circle
   style="fill:#1edcff"
   id="circle914"
   r="4.5009999"
   cy="124.326"
   cx="347.854" />
			<circle
   style="fill:#1edcff"
   id="circle916"
   r="5"
   cy="136.694"
   cx="360.22198" />
			<circle
   style="fill:#1edcff"
   id="circle918"
   r="5.4990001"
   cy="149.061"
   cx="372.58801" />
			<circle
   style="fill:#1edcff"
   id="circle920"
   r="5.9980001"
   cy="161.42799"
   cx="384.95499" />
			<circle
   style="fill:#ffffff"
   id="circle922"
   r="3.5020001"
   cy="111.959"
   cx="310.754" />
			<circle
   style="fill:#ffffff"
   id="circle924"
   r="4.0009999"
   cy="124.326"
   cx="323.121" />
			<circle
   style="fill:#ffffff"
   id="circle926"
   r="4.5009999"
   cy="136.69299"
   cx="335.48801" />
			<circle
   style="fill:#ffffff"
   id="circle928"
   r="5"
   cy="149.06"
   cx="347.85501" />
			<circle
   style="fill:#ffffff"
   id="circle930"
   r="5.4990001"
   cy="161.427"
   cx="360.22101" />
			<circle
   style="fill:#ffffff"
   id="circle932"
   r="5.9980001"
   cy="173.79401"
   cx="372.58899" />
		</g>
		<g
   id="g948">
			<circle
   style="fill:#5890ff"
   id="circle936"
   r="4.0009999"
   cy="161.427"
   cx="335.48901" />
			<circle
   style="fill:#5890ff"
   id="circle938"
   r="4.0009999"
   cy="173.79401"
   cx="323.12201" />
			<circle
   style="fill:#5890ff"
   id="circle940"
   r="4.0019999"
   cy="186.16"
   cx="310.755" />
			<circle
   style="fill:#5890ff"
   id="circle942"
   r="4.0009999"
   cy="186.161"
   cx="335.48901" />
			<circle
   style="fill:#5890ff"
   id="circle944"
   r="4.0009999"
   cy="186.162"
   cx="360.22101" />
			<circle
   style="fill:#5890ff"
   id="circle946"
   r="4.0009999"
   cy="173.79401"
   cx="347.85501" />
		</g>
	</g></svg>