<svg height='300px' width='300px'  fill="#000000" xmlns="http://www.w3.org/2000/svg" xmlns:xlink="http://www.w3.org/1999/xlink" version="1.1" x="0px" y="0px" viewBox="206 206 100 100" enable-background="new 206 206 100 100" xml:space="preserve"><g><path fill="#000000" d="M230.77,219.29l-3.864-9.238c-0.007-0.016-0.017-0.03-0.025-0.046c-0.02-0.042-0.041-0.084-0.067-0.123   c-0.017-0.025-0.038-0.047-0.057-0.07c-0.022-0.027-0.042-0.055-0.066-0.079c-0.024-0.024-0.052-0.044-0.079-0.066   c-0.023-0.019-0.045-0.04-0.071-0.057c-0.039-0.026-0.081-0.046-0.123-0.067c-0.016-0.008-0.03-0.018-0.046-0.025   c-0.001,0-0.002-0.001-0.003-0.001c-0.06-0.025-0.123-0.044-0.187-0.057c-0.022-0.004-0.043-0.004-0.065-0.007   c-0.042-0.006-0.085-0.012-0.128-0.012c-0.034,0-0.068,0.006-0.102,0.01c-0.03,0.003-0.061,0.003-0.091,0.009   c-0.064,0.013-0.126,0.032-0.186,0.057c-0.001,0-0.002,0.001-0.003,0.001c-0.017,0.007-0.031,0.018-0.048,0.026   c-0.041,0.02-0.083,0.04-0.121,0.066c-0.026,0.017-0.047,0.038-0.071,0.057c-0.027,0.021-0.054,0.041-0.079,0.066   c-0.025,0.025-0.045,0.052-0.066,0.079c-0.019,0.023-0.039,0.045-0.057,0.07c-0.026,0.039-0.046,0.081-0.067,0.123   c-0.008,0.016-0.018,0.029-0.025,0.046l-3.863,9.237c-0.055,0.131-0.078,0.268-0.076,0.401l0,77.741   c0,0.007-0.002,0.013-0.002,0.02c0,0.001,0,0.003,0,0.004l0,4.109c0,0.032,0.006,0.061,0.009,0.092   c0.003,0.036,0.004,0.073,0.011,0.108c0.002,0.008,0.006,0.016,0.007,0.024c0.102,0.44,0.494,0.768,0.965,0.768h7.727   c0.548,0,0.992-0.444,0.992-0.992v-4.106c0-0.003,0.001-0.005,0.001-0.008l-0.001-77.767   C230.848,219.553,230.824,219.42,230.77,219.29z M225.991,213.008l2.373,5.673l-2.373,0l-2.373,0L225.991,213.008z    M224.998,220.666v75.793l-1.877,0.001l0-75.794H224.998z M228.862,300.574h-5.742l0-2.129l2.871-0.001l2.872,0.001   L228.862,300.574L228.862,300.574z M226.983,296.459v-75.793h1.878l0.001,75.794L226.983,296.459z"></path><path fill="#000000" d="M288.604,215.792h-15.239c-1.125,0-2.04,0.915-2.04,2.04v15.239c0,1.125,0.915,2.04,2.04,2.04h15.239   c1.125,0,2.04-0.915,2.04-2.04v-15.239C290.644,216.707,289.729,215.792,288.604,215.792z M288.659,233.07   c0,0.028-0.027,0.055-0.055,0.055h-15.239c-0.028,0-0.055-0.027-0.055-0.055v-15.239c0-0.028,0.027-0.055,0.055-0.055h15.239   c0.028,0,0.055,0.027,0.055,0.055V233.07z"></path><path fill="#000000" d="M288.604,246.342h-15.239c-1.125,0-2.04,0.915-2.04,2.04v15.239c0,1.125,0.915,2.04,2.04,2.04h15.239   c1.125,0,2.04-0.915,2.04-2.04v-15.239C290.644,247.257,289.729,246.342,288.604,246.342z M288.659,263.62   c0,0.028-0.027,0.055-0.055,0.055h-15.239c-0.028,0-0.055-0.027-0.055-0.055v-15.239c0-0.028,0.027-0.055,0.055-0.055h15.239   c0.028,0,0.055,0.027,0.055,0.055V263.62z"></path><path fill="#000000" d="M288.604,276.892h-15.239c-1.125,0-2.04,0.915-2.04,2.04v15.239c0,1.125,0.915,2.04,2.04,2.04h15.239   c1.125,0,2.04-0.915,2.04-2.04v-15.239C290.644,277.807,289.729,276.892,288.604,276.892z M288.659,294.17   c0,0.028-0.027,0.055-0.055,0.055h-15.239c-0.028,0-0.055-0.027-0.055-0.055v-15.239c0-0.028,0.027-0.055,0.055-0.055h15.239   c0.028,0,0.055,0.027,0.055,0.055V294.17z"></path><path fill="#000000" d="M252.46,212c-7.417,0-13.451,6.034-13.451,13.451c0,7.417,6.034,13.451,13.451,13.451   c7.417,0,13.451-6.034,13.451-13.451C265.911,218.034,259.877,212,252.46,212z M252.46,236.917   c-6.322,0-11.466-5.144-11.466-11.466s5.144-11.466,11.466-11.466s11.466,5.144,11.466,11.466S258.782,236.917,252.46,236.917z"></path><path fill="#000000" d="M258.635,224.458c-0.548,0-0.992,0.444-0.992,0.992c0,2.858-2.325,5.183-5.183,5.183   c-2.858,0-5.183-2.325-5.183-5.183c0-0.548-0.444-0.992-0.992-0.992s-0.992,0.444-0.992,0.992c0,3.952,3.215,7.167,7.168,7.167   s7.167-3.215,7.167-7.167C259.627,224.903,259.183,224.458,258.635,224.458z"></path><circle fill="#000000" cx="249.328" cy="221.091" r="1.745"></circle><circle fill="#000000" cx="255.541" cy="221.091" r="1.745"></circle><path fill="#000000" d="M252.46,242.55c-7.417,0-13.451,6.034-13.451,13.451s6.034,13.451,13.451,13.451   c7.417,0,13.451-6.034,13.451-13.451C265.911,248.584,259.877,242.55,252.46,242.55z M252.46,267.467   c-6.322,0-11.466-5.144-11.466-11.466c0-6.322,5.144-11.466,11.466-11.466s11.466,5.144,11.466,11.466   C263.926,262.323,258.782,267.467,252.46,267.467z"></path><path fill="#000000" d="M258.635,258.569h-12.35c-0.548,0-0.992,0.444-0.992,0.992s0.444,0.992,0.992,0.992h12.35   c0.548,0,0.992-0.444,0.992-0.992S259.183,258.569,258.635,258.569z"></path><circle fill="#000000" cx="249.328" cy="252.564" r="1.745"></circle><circle fill="#000000" cx="255.541" cy="252.564" r="1.745"></circle><path fill="#000000" d="M252.46,273.1c-7.417,0-13.451,6.034-13.451,13.451s6.034,13.451,13.451,13.451   c7.417,0,13.451-6.034,13.451-13.451C265.911,279.134,259.877,273.1,252.46,273.1z M252.46,298.017   c-6.322,0-11.466-5.144-11.466-11.466c0-6.323,5.144-11.466,11.466-11.466s11.466,5.144,11.466,11.466   C263.926,292.873,258.782,298.017,252.46,298.017z"></path><path fill="#000000" d="M252.46,284.93c-3.952,0-7.168,3.215-7.168,7.167c0,0.548,0.444,0.992,0.992,0.992s0.992-0.444,0.992-0.992   c0-2.858,2.325-5.182,5.183-5.182c2.858,0,5.183,2.325,5.183,5.182c0,0.548,0.444,0.992,0.992,0.992s0.992-0.444,0.992-0.992   C259.627,288.145,256.412,284.93,252.46,284.93z"></path><circle fill="#000000" cx="249.328" cy="281.466" r="1.745"></circle><circle fill="#000000" cx="255.541" cy="281.466" r="1.745"></circle><path fill="#000000" d="M285.149,221.639l-5.915,5.915l-2.607-2.606c-0.387-0.387-1.016-0.387-1.403,0   c-0.388,0.388-0.388,1.016,0,1.404l3.308,3.308c0.194,0.194,0.448,0.291,0.702,0.291s0.508-0.097,0.702-0.291l6.616-6.616   c0.388-0.388,0.388-1.016,0-1.404C286.165,221.252,285.536,221.252,285.149,221.639z"></path></g></svg>