<?xml version="1.0" standalone="no"?>
<!DOCTYPE svg PUBLIC "-//W3C//DTD SVG 20010904//EN"
 "http://www.w3.org/TR/2001/REC-SVG-20010904/DTD/svg10.dtd">
<svg version="1.0" xmlns="http://www.w3.org/2000/svg"
 width="1280.000000pt" height="640.000000pt" viewBox="0 0 1280.000000 640.000000"
 preserveAspectRatio="xMidYMid meet">
<metadata>
Created by potrace 1.15, written by Peter Selinger 2001-2017
</metadata>
<g transform="translate(0.000000,640.000000) scale(0.100000,-0.100000)"
fill="#000000" stroke="none">
<path d="M7410 3910 l0 -960 -357 0 -358 0 118 -118 c65 -65 119 -126 121
-136 3 -21 960 -982 999 -1002 22 -12 35 -13 60 -5 39 13 1021 993 1032 1029
5 16 1 30 -10 42 -15 16 -34 20 -121 22 l-104 3 85 90 c47 50 85 91 85 93 0 1
-134 2 -297 2 l-298 0 3 825 2 824 -27 31 c-22 23 -38 30 -70 32 l-43 3 0 93
0 92 -410 0 -410 0 0 -960z"/>
<path d="M4245 4290 l-570 -570 155 0 c143 0 153 -1 132 -16 -26 -18 -30 -65
-5 -85 20 -17 440 -30 447 -14 3 6 5 -394 5 -887 l1 -898 88 0 87 0 1 -31 c1
-19 11 -41 28 -57 l26 -27 332 -3 c350 -3 377 0 401 42 9 16 13 238 17 901 6
989 1 934 78 954 20 6 138 12 262 14 150 2 232 7 247 15 28 15 37 45 23 74
-17 34 -952 968 -969 968 -8 0 -57 43 -110 95 -54 52 -99 95 -102 95 -2 0
-261 -256 -574 -570z"/>
<path d="M11420 4185 l0 -365 -950 0 -950 0 0 -410 0 -410 58 0 57 0 1 -38 c1
-59 12 -88 41 -108 27 -18 64 -19 895 -19 l868 0 0 -268 0 -269 58 50 c58 51
58 51 54 21 -7 -45 7 -116 27 -140 16 -20 21 -21 48 -10 16 6 248 231 516 499
445 446 487 490 487 520 0 41 -13 67 -57 113 -31 32 -32 37 -18 49 14 12 -50
80 -552 582 -312 312 -571 568 -575 568 -5 0 -8 -164 -8 -365z"/>
<path d="M562 3978 c-309 -310 -562 -569 -562 -576 0 -8 38 -55 85 -104 46
-50 82 -95 78 -101 -8 -13 976 -993 1006 -1002 19 -6 29 -2 43 15 16 20 18 45
19 244 0 264 6 311 43 343 l27 23 880 0 c940 0 932 0 958 48 7 14 11 138 11
366 0 343 0 345 -22 371 -16 18 -34 27 -60 28 l-38 2 0 83 0 82 -874 0 c-481
0 -881 3 -890 6 -14 5 -16 35 -16 229 0 205 -2 225 -19 246 l-19 24 -36 -19
c-20 -11 -37 -26 -38 -35 -1 -9 -5 53 -8 137 l-5 152 -563 -562z"/>
</g>
</svg>
