<?xml version='1.0' encoding='UTF-8'?>
<!DOCTYPE svg PUBLIC "-//W3C//DTD SVG 1.0//EN" "http://www.w3.org/TR/2001/REC-SVG-20010904/DTD/svg10.dtd">
<svg viewBox="0 0 448 360" xmlns="http://www.w3.org/2000/svg" xmlns:inkspace="http://www.inkscape.org/namespaces/inkscape" xmlns:xlink="http://www.w3.org/1999/xlink">
  <defs id="defs_block">
    <filter height="1.504" id="filter_blur" inkspace:collect="always" width="1.1575" x="-0.07875" y="-0.252">
      <feGaussianBlur id="feGaussianBlur3780" inkspace:collect="always" stdDeviation="4.2" />
    </filter>
  </defs>
  <title>blockdiag</title>
  <desc />
  <ellipse cx="131" cy="66" fill="rgb(0,0,0)" rx="64.0" ry="20.0" stroke="rgb(0,0,0)" style="filter:url(#filter_blur);opacity:0.7;fill-opacity:1" />
  <ellipse cx="323" cy="66" fill="rgb(0,0,0)" rx="64.0" ry="20.0" stroke="rgb(0,0,0)" style="filter:url(#filter_blur);opacity:0.7;fill-opacity:1" />
  <ellipse cx="323" cy="146" fill="rgb(0,0,0)" rx="64.0" ry="20.0" stroke="rgb(0,0,0)" style="filter:url(#filter_blur);opacity:0.7;fill-opacity:1" />
  <ellipse cx="323" cy="226" fill="rgb(0,0,0)" rx="64.0" ry="20.0" stroke="rgb(0,0,0)" style="filter:url(#filter_blur);opacity:0.7;fill-opacity:1" />
  <ellipse cx="323" cy="306" fill="rgb(0,0,0)" rx="64.0" ry="20.0" stroke="rgb(0,0,0)" style="filter:url(#filter_blur);opacity:0.7;fill-opacity:1" />
  <ellipse cx="128" cy="60" fill="rgb(255,192,203)" rx="64.0" ry="20.0" stroke="rgb(0,0,0)" />
  <text fill="rgb(0,0,0)" font-family="sans-serif" font-size="8" font-style="normal" font-weight="normal" text-anchor="middle" textLength="28" x="128.0" y="64">default</text>
  <ellipse cx="320" cy="60" fill="rgb(255,255,255)" rx="64.0" ry="20.0" stroke="rgb(0,0,0)" />
  <text fill="rgb(0,0,0)" font-family="sans-serif" font-size="8" font-style="normal" font-weight="normal" text-anchor="middle" textLength="45" x="320.5" y="65">code_block</text>
  <ellipse cx="320" cy="140" fill="rgb(255,255,255)" rx="64.0" ry="20.0" stroke="rgb(0,0,0)" />
  <text fill="rgb(0,0,0)" font-family="sans-serif" font-size="8" font-style="normal" font-weight="normal" text-anchor="middle" textLength="45" x="320.5" y="145">inline_code</text>
  <ellipse cx="320" cy="220" fill="rgb(255,255,255)" rx="64.0" ry="20.0" stroke="rgb(0,0,0)" />
  <text fill="rgb(0,0,0)" font-family="sans-serif" font-size="8" font-style="normal" font-weight="normal" text-anchor="middle" textLength="46" x="320.0" y="225">block_math</text>
  <ellipse cx="320" cy="300" fill="rgb(255,255,255)" rx="64.0" ry="20.0" stroke="rgb(0,0,0)" />
  <text fill="rgb(0,0,0)" font-family="sans-serif" font-size="8" font-style="normal" font-weight="normal" text-anchor="middle" textLength="47" x="320.5" y="305">inline_math</text>
  <path d="M 200 60 L 248 60" fill="none" stroke="rgb(0,0,0)" />
  <polygon fill="rgb(0,0,0)" points="193,60 200,56 200,64 193,60" stroke="rgb(0,0,0)" />
  <polygon fill="rgb(0,0,0)" points="255,60 248,56 248,64 255,60" stroke="rgb(0,0,0)" />
  <path d="M 200 60 L 224 60" fill="none" stroke="rgb(0,0,0)" />
  <path d="M 224 60 L 224 140" fill="none" stroke="rgb(0,0,0)" />
  <path d="M 224 140 L 248 140" fill="none" stroke="rgb(0,0,0)" />
  <polygon fill="rgb(0,0,0)" points="193,60 200,56 200,64 193,60" stroke="rgb(0,0,0)" />
  <polygon fill="rgb(0,0,0)" points="255,140 248,136 248,144 255,140" stroke="rgb(0,0,0)" />
  <path d="M 200 60 L 224 60" fill="none" stroke="rgb(0,0,0)" />
  <path d="M 224 60 L 224 220" fill="none" stroke="rgb(0,0,0)" />
  <path d="M 224 220 L 248 220" fill="none" stroke="rgb(0,0,0)" />
  <polygon fill="rgb(0,0,0)" points="193,60 200,56 200,64 193,60" stroke="rgb(0,0,0)" />
  <polygon fill="rgb(0,0,0)" points="255,220 248,216 248,224 255,220" stroke="rgb(0,0,0)" />
  <path d="M 200 60 L 224 60" fill="none" stroke="rgb(0,0,0)" />
  <path d="M 224 60 L 224 300" fill="none" stroke="rgb(0,0,0)" />
  <path d="M 224 300 L 248 300" fill="none" stroke="rgb(0,0,0)" />
  <polygon fill="rgb(0,0,0)" points="193,60 200,56 200,64 193,60" stroke="rgb(0,0,0)" />
  <polygon fill="rgb(0,0,0)" points="255,300 248,296 248,304 255,300" stroke="rgb(0,0,0)" />
  <rect fill="white" height="13" stroke="rgb(0,0,0)" width="49" x="200" y="39" />
  <text fill="rgb(0,0,0)" font-family="sans-serif" font-size="8" font-style="normal" font-weight="normal" text-anchor="middle" textLength="33" x="224.5" y="50">↵```/```</text>
  <rect fill="white" height="13" stroke="rgb(0,0,0)" width="45" x="202" y="119" />
  <text fill="rgb(0,0,0)" font-family="sans-serif" font-size="8" font-style="normal" font-weight="normal" text-anchor="middle" textLength="29" x="224.5" y="130">↵    /↵.</text>
  <rect fill="white" height="13" stroke="rgb(0,0,0)" width="33" x="208" y="199" />
  <text fill="rgb(0,0,0)" font-family="sans-serif" font-size="8" font-style="normal" font-weight="normal" text-anchor="middle" textLength="17" x="224.5" y="210">↵$$</text>
  <rect fill="white" height="13" stroke="rgb(0,0,0)" width="26" x="211" y="279" />
  <text fill="rgb(0,0,0)" font-family="sans-serif" font-size="8" font-style="normal" font-weight="normal" text-anchor="middle" textLength="10" x="224.0" y="290">$$</text>
</svg>
