<?xml version="1.0" encoding="UTF-8" standalone="no"?>
<!-- Created with Inkscape (http://www.inkscape.org/) -->
<svg xmlns:dc="http://purl.org/dc/elements/1.1/" xmlns:cc="http://creativecommons.org/ns#" xmlns:rdf="http://www.w3.org/1999/02/22-rdf-syntax-ns#" xmlns:svg="http://www.w3.org/2000/svg" xmlns="http://www.w3.org/2000/svg" version="1.0" width="300" height="200" viewBox="0 0 1511 1077" id="svg2">
  <desc id="desc6">
    <Title id="Title8"/>
    <Creator id="Creator10">FreeHEP Graphics2D Driver</Creator>
    <Producer id="Producer12">org.freehep.graphicsio.svg.SVGGraphics2D Revision: 9331 </Producer>
    <Source id="Source14"/>
    <Date id="Date16">Thursday, August 2, 2007 4:39:02 PM VET</Date>
  </desc>
  <g id="text3639" style="font-size:75.38999939px;font-style:normal;font-variant:normal;font-weight:normal;font-stretch:normal;text-align:start;line-height:100%;writing-mode:lr-tb;text-anchor:start;fill:#000000;fill-opacity:1;stroke:none;font-family:Latin Modern Roman Slanted;-inkscape-font-specification:Latin Modern Roman Slanted">
    <path d="m 497.5785,114.69413 c 2.56326,-15.379542 -6.78511,-27.592737 -20.50608,-27.592737 -13.4948,0 -27.06501,12.062416 -29.62827,27.592737 -2.63865,15.45494 7.01128,27.21579 20.43069,27.21579 13.72097,0 27.1404,-11.98702 29.70366,-27.21579 m -7.61439,-1.05546 c -3.31716,19.97833 -14.70106,26.31111 -21.63693,26.31111 -7.23743,0 -16.28424,-6.63434 -12.96708,-26.31111 3.24177,-19.525987 15.07801,-24.652527 21.33537,-24.652527 6.55892,0 16.51041,5.352709 13.26864,24.652527" id="path3070"/>
  </g>
  <g id="text3729" style="font-size:75.38999939px;font-style:normal;font-variant:normal;font-weight:normal;font-stretch:normal;text-align:start;line-height:100%;writing-mode:lr-tb;text-anchor:start;fill:#000000;fill-opacity:1;stroke:none;font-family:Latin Modern Roman Slanted;-inkscape-font-specification:Latin Modern Roman Slanted">
    <path d="m 747.73346,406.87012 0.37695,-2.33709 -1.35702,0 c -4.52339,0 -5.50347,-0.52774 -5.88042,-3.0156 l -8.44368,-47.11875 c -0.22617,-0.98007 -0.30156,-1.5078 -1.5078,-1.5078 -1.20624,0 -1.5078,0.45234 -2.03553,1.5078 l -23.14473,45.08322 c -1.96014,3.84488 -5.20191,4.97574 -9.27297,5.05113 l -0.37695,2.33709 7.76517,-0.22617 8.59446,0.22617 0.37695,-2.33709 c -3.76949,0 -5.35269,-1.88475 -4.97574,-3.84489 0,-0.22617 0.22617,-0.98007 0.30156,-1.13085 l 5.12652,-9.87609 18.62133,0 2.11092,11.53467 c 0,0.30156 0.0754,0.7539 0,1.05546 -0.37695,2.26169 -4.59879,2.2617 -6.63432,2.2617 l -0.37695,2.33709 c 2.78943,-0.22617 8.06674,-0.22617 10.93155,-0.22617 l 9.8007,0.22617 m -16.28424,-19.52601 -16.96275,0 12.51474,-24.50175 4.44801,24.50175" id="path3073"/>
  </g>
  <g transform="scale(1.3088,1.3088)" id="g97" style="fill:none;stroke:#808080;stroke-width:4.11445618;stroke-linecap:square;stroke-linejoin:miter;stroke-miterlimit:10;stroke-opacity:1;stroke-dasharray:none;stroke-dashoffset:0">
    <clipPath id="clip8">
      <path d="M 0,0 0,823 1155,823 1155,0 0,0 z" id="path100"/>
    </clipPath>
    <g clip-path="url(#clip8)" id="g102" style="fill:none;stroke:#808080;stroke-width:4.11445618;stroke-miterlimit:10;stroke-opacity:1;stroke-dasharray:none">
      <g id="g104" style="fill:none;stroke:#808080;stroke-width:4.11445618;stroke-linecap:round;stroke-linejoin:round;stroke-miterlimit:10;stroke-opacity:1;stroke-dasharray:none">
        <path d="M 503.51822,806.54218 786.67178,16.457824" id="path106" style="fill:none;stroke:#808080;stroke-width:4.11445618;stroke-miterlimit:10;stroke-opacity:1;stroke-dasharray:none"/>
      </g>
    </g>
  </g>
  <g transform="scale(1.3088,1.3088)" id="g108" style="fill:none;stroke:#808080;stroke-width:4.11445618;stroke-linecap:square;stroke-linejoin:miter;stroke-miterlimit:10;stroke-opacity:1;stroke-dasharray:none;stroke-dashoffset:0">
    <clipPath id="clip9">
      <path d="M 0,0 0,823 1155,823 1155,0 0,0 z" id="path111"/>
    </clipPath>
    <g clip-path="url(#clip9)" id="g113" style="fill:none;stroke:#808080;stroke-width:4.11445618;stroke-miterlimit:10;stroke-opacity:1;stroke-dasharray:none">
      <g id="g115" style="fill:none;stroke:#808080;stroke-width:4.11445618;stroke-linecap:round;stroke-linejoin:round;stroke-miterlimit:10;stroke-opacity:1;stroke-dasharray:none">
        <path d="M 20.57228,803.08034 905.28772,18.249661" id="path117" style="fill:none;stroke:#808080;stroke-width:4.11445618;stroke-miterlimit:10;stroke-opacity:1;stroke-dasharray:none"/>
      </g>
    </g>
  </g>
  <g transform="scale(1.3088,1.3088)" id="g119" style="fill:none;stroke:#808080;stroke-width:4.11445618;stroke-linecap:square;stroke-linejoin:miter;stroke-miterlimit:10;stroke-opacity:1;stroke-dasharray:none;stroke-dashoffset:0">
    <clipPath id="clip10">
      <path d="M 0,0 0,823 1155,823 1155,0 0,0 z" id="path122"/>
    </clipPath>
    <g clip-path="url(#clip10)" id="g124" style="fill:none;stroke:#808080;stroke-width:4.11445618;stroke-miterlimit:10;stroke-opacity:1;stroke-dasharray:none">
      <g id="g126" style="fill:none;stroke:#808080;stroke-width:4.11445618;stroke-linecap:round;stroke-linejoin:round;stroke-miterlimit:10;stroke-opacity:1;stroke-dasharray:none">
        <path d="m 596.09,802.42772 0,-781.85544" id="path128" style="fill:none;stroke:#808080;stroke-width:4.11445618;stroke-miterlimit:10;stroke-opacity:1;stroke-dasharray:none"/>
      </g>
    </g>
  </g>
  <g transform="scale(1.3088,1.3088)" id="g31" style="fill:#b97100;fill-opacity:0.40625;stroke:#803900;stroke-width:4.11445618;stroke-linecap:square;stroke-linejoin:miter;stroke-miterlimit:10;stroke-opacity:1;stroke-dasharray:none;stroke-dashoffset:0">
    <clipPath id="clip2">
      <path d="M 0,0 0,823 1155,823 1155,0 0,0 z" id="path34"/>
    </clipPath>
    <g clip-path="url(#clip2)" id="g36" style="fill:#b97100;fill-opacity:0.40625;stroke:#803900;stroke-width:4.11445618;stroke-miterlimit:10;stroke-opacity:1;stroke-dasharray:none">
      <g id="g38" style="fill:#b97100;fill-opacity:0.40625;stroke:#803900;stroke-width:4.11445618;stroke-miterlimit:10;stroke-opacity:1;stroke-dasharray:none">
        <path d="m 730.44,173.36 -134.35,119.18 0,255.71 134.35,-374.89 z" id="path40" style="fill:#b97100;fill-opacity:0.40625;stroke:#803900;stroke-width:4.11445618;stroke-miterlimit:10;stroke-opacity:1;stroke-dasharray:none"/>
      </g>
    </g>
  </g>
  <metadata id="metadata342">
    <rdf:RDF>
      <cc:Work rdf:about="">
        <dc:format>image/svg+xml</dc:format>
        <dc:type rdf:resource="http://purl.org/dc/dcmitype/StillImage"/>
        <dc:title/>
      </cc:Work>
    </rdf:RDF>
  </metadata>
  <defs id="defs340"/>
  <g transform="scale(1.3088,1.3088)" id="g53" style="fill:none;stroke:#800000;stroke-width:4.11445618;stroke-linecap:square;stroke-linejoin:miter;stroke-miterlimit:10;stroke-opacity:1;stroke-dasharray:none;stroke-dashoffset:0">
    <clipPath id="clip4">
      <path d="M 0,0 0,823 1155,823 1155,0 0,0 z" id="path56"/>
    </clipPath>
    <g clip-path="url(#clip4)" id="g58" style="fill:none;stroke:#800000;stroke-width:4.11445618;stroke-miterlimit:10;stroke-opacity:1;stroke-dasharray:none">
      <g id="g60" style="fill:none;stroke:#800000;stroke-width:4.11445618;stroke-linecap:round;stroke-linejoin:round;stroke-miterlimit:10;stroke-opacity:1;stroke-dasharray:none">
        <path d="M 16.457824,779.93109 1138.5422,781.36891" id="path62" style="fill:none;stroke:#800000;stroke-width:4.11445618;stroke-miterlimit:10;stroke-opacity:1;stroke-dasharray:none"/>
      </g>
    </g>
  </g>
  <g transform="scale(1.3088,1.3088)" id="g64" style="fill:none;stroke:#000000;stroke-width:4.11445618;stroke-linecap:square;stroke-linejoin:miter;stroke-miterlimit:10;stroke-opacity:1;stroke-dasharray:8.22891198, 16.45782396;stroke-dashoffset:0">
    <clipPath id="clip5">
      <path d="M 0,0 0,823 1155,823 1155,0 0,0 z" id="path67"/>
    </clipPath>
    <g clip-path="url(#clip5)" id="g69" style="fill:none;stroke:#000000;stroke-width:4.11445618;stroke-miterlimit:10;stroke-opacity:1;stroke-dasharray:8.22891198, 16.45782396;stroke-dashoffset:0">
      <g id="g71" style="fill:none;stroke:#000000;stroke-width:4.11445618;stroke-linecap:round;stroke-linejoin:round;stroke-miterlimit:10;stroke-opacity:1;stroke-dasharray:8.22891198, 16.45782396;stroke-dashoffset:0">
        <path d="M 1033.1658,802.42772 362.97417,20.57228" id="path73" style="fill:none;stroke:#000000;stroke-width:4.11445618;stroke-miterlimit:10;stroke-opacity:1;stroke-dasharray:8.22891198, 16.45782396;stroke-dashoffset:0"/>
      </g>
    </g>
  </g>
  <g transform="matrix(1.3088,0,0,1.3088,24.544318,9.8177272)" id="g75" style="fill:none;stroke:#000000;stroke-width:4.11445618;stroke-linecap:square;stroke-linejoin:miter;stroke-miterlimit:10;stroke-opacity:1;stroke-dasharray:8.22891198, 16.45782396;stroke-dashoffset:0">
    <clipPath id="clip6">
      <path d="M 0,0 0,823 1155,823 1155,0 0,0 z" id="path78"/>
    </clipPath>
    <g clip-path="url(#clip6)" id="g80" style="fill:none;stroke:#000000;stroke-width:4.11445618;stroke-miterlimit:10;stroke-opacity:1;stroke-dasharray:8.22891198, 16.45782396;stroke-dashoffset:0">
      <g id="g82" style="fill:none;stroke:#000000;stroke-width:4.11445618;stroke-linecap:round;stroke-linejoin:round;stroke-miterlimit:10;stroke-opacity:1;stroke-dasharray:8.22891198, 16.45782396;stroke-dashoffset:0">
        <path d="M 303.39793,19.296288 1101.5121,307.22371" id="path84" style="fill:none;stroke:#000000;stroke-width:4.11445618;stroke-miterlimit:10;stroke-opacity:1;stroke-dasharray:8.22891198, 16.45782396;stroke-dashoffset:0"/>
      </g>
    </g>
  </g>
  <g transform="scale(1.3088,1.3088)" id="g86" style="fill:none;stroke:#000000;stroke-width:4.11445618;stroke-linecap:square;stroke-linejoin:miter;stroke-miterlimit:10;stroke-opacity:1;stroke-dasharray:8.22891198, 16.45782396;stroke-dashoffset:0">
    <clipPath id="clip7">
      <path d="M 0,0 0,823 1155,823 1155,0 0,0 z" id="path89"/>
    </clipPath>
    <g clip-path="url(#clip7)" id="g91" style="fill:none;stroke:#000000;stroke-width:4.11445618;stroke-miterlimit:10;stroke-opacity:1;stroke-dasharray:8.22891198, 16.45782396;stroke-dashoffset:0">
      <g id="g93" style="fill:none;stroke:#000000;stroke-width:4.11445618;stroke-linecap:round;stroke-linejoin:round;stroke-miterlimit:10;stroke-opacity:1;stroke-dasharray:8.22891198, 16.45782396;stroke-dashoffset:0">
        <path d="M 702.18339,802.42772 375.84661,20.57228" id="path95" style="fill:none;stroke:#000000;stroke-width:4.11445618;stroke-miterlimit:10;stroke-opacity:1;stroke-dasharray:8.22891198, 16.45782396;stroke-dashoffset:0"/>
      </g>
    </g>
  </g>
  <g transform="scale(1.3088,1.3088)" id="g130" style="fill:none;stroke:#808080;stroke-width:4.11445618;stroke-linecap:square;stroke-linejoin:miter;stroke-miterlimit:10;stroke-opacity:1;stroke-dasharray:none;stroke-dashoffset:0">
    <clipPath id="clip11">
      <path d="M 0,0 0,823 1155,823 1155,0 0,0 z" id="path133"/>
    </clipPath>
    <g clip-path="url(#clip11)" id="g135" style="fill:none;stroke:#808080;stroke-width:4.11445618;stroke-miterlimit:10;stroke-opacity:1;stroke-dasharray:none">
      <g id="g137" style="fill:none;stroke:#808080;stroke-width:4.11445618;stroke-linecap:round;stroke-linejoin:round;stroke-miterlimit:10;stroke-opacity:1;stroke-dasharray:none">
        <path d="M 16.457824,793.6939 1138.5422,283.2961" id="path139" style="fill:none;stroke:#808080;stroke-width:4.11445618;stroke-miterlimit:10;stroke-opacity:1;stroke-dasharray:none"/>
      </g>
    </g>
  </g>
  <g transform="scale(1.3088,1.3088)" id="g141" style="stroke:#808080;stroke-width:4.11445618;stroke-linecap:square;stroke-linejoin:miter;stroke-miterlimit:10;stroke-opacity:1;stroke-dasharray:none;stroke-dashoffset:0">
    <clipPath id="clip12">
      <path d="M 0,0 0,823 1155,823 1155,0 0,0 z" id="path144"/>
    </clipPath>
    <g clip-path="url(#clip12)" id="g146" style="stroke:#808080;stroke-width:4.11445618;stroke-miterlimit:10;stroke-opacity:1;stroke-dasharray:none">
      <g id="g148" style="fill:none;stroke:#808080;stroke-width:4.11445618;stroke-linecap:round;stroke-linejoin:round;stroke-miterlimit:10;stroke-opacity:1;stroke-dasharray:none">
        <path d="M 586.04724,802.42772 946.99276,20.57228" id="path150" style="stroke:#808080;stroke-width:4.11445618;stroke-miterlimit:10;stroke-opacity:1;stroke-dasharray:none"/>
      </g>
    </g>
  </g>
  <g transform="scale(1.3088,1.3088)" id="g152" style="fill:none;stroke:#808080;stroke-width:4.11445618;stroke-linecap:square;stroke-linejoin:miter;stroke-miterlimit:10;stroke-opacity:1;stroke-dasharray:none;stroke-dashoffset:0">
    <clipPath id="clip13">
      <path d="M 0,0 0,823 1155,823 1155,0 0,0 z" id="path155"/>
    </clipPath>
    <g clip-path="url(#clip13)" id="g157" style="fill:none;stroke:#808080;stroke-width:4.11445618;stroke-miterlimit:10;stroke-opacity:1;stroke-dasharray:none">
      <g id="g159" style="fill:none;stroke:#808080;stroke-width:4.11445618;stroke-linecap:round;stroke-linejoin:round;stroke-miterlimit:10;stroke-opacity:1;stroke-dasharray:none">
        <path d="M 481.75228,806.09937 1134.4277,269.91063" id="path161" style="fill:none;stroke:#808080;stroke-width:4.11445618;stroke-miterlimit:10;stroke-opacity:1;stroke-dasharray:none"/>
      </g>
    </g>
  </g>
  <g transform="scale(1.3088,1.3088)" id="g42" style="fill:#31cdcf;fill-opacity:0.38125;stroke:#007f80;stroke-width:4.11445618;stroke-linecap:square;stroke-linejoin:miter;stroke-miterlimit:10;stroke-opacity:1;stroke-dasharray:none;stroke-dashoffset:0">
    <clipPath id="clip3">
      <path d="M 0,0 0,823 1155,823 1155,0 0,0 z" id="path45"/>
    </clipPath>
    <g clip-path="url(#clip3)" id="g47" style="fill:#31cdcf;fill-opacity:0.38125;stroke:#007f80;stroke-width:4.11445618;stroke-miterlimit:10;stroke-opacity:1;stroke-dasharray:none">
      <g id="g49" style="fill:#31cdcf;fill-opacity:0.38125;stroke:#007f80;stroke-width:4.11445618;stroke-miterlimit:10;stroke-opacity:1;stroke-dasharray:none">
        <path d="M 1092.8,304.09 742.55,463.42 647.04,670.31 1092.8,304.09 z" id="path51" style="fill:#31cdcf;fill-opacity:0.38125;stroke:#007f80;stroke-width:4.11445618;stroke-miterlimit:10;stroke-opacity:1;stroke-dasharray:none"/>
      </g>
    </g>
  </g>
  <g transform="matrix(4.4813085,0,0,4.4813085,-1231.1237,-158.121)" id="g229" style="fill:#000000;fill-opacity:1;stroke:none">
    <clipPath id="clip20">
      <path d="M 0,0 0,823 1155,823 1155,0 0,0 z" id="path232"/>
    </clipPath>
    <g clip-path="url(#clip20)" id="g234" style="fill:#000000;fill-opacity:1;stroke:none">
      <g id="g236" style="fill:#000000;fill-opacity:1;stroke:none">
        <path d="m 391.06,49.841 c 0,1.656 -1.34,3 -3,3 -1.66,0 -3,-1.344 -3,-3 0,-1.657 1.34,-3 3,-3 1.66,0 3,1.343 3,3 z" id="path238" style="fill:#000000;fill-opacity:1;stroke:none"/>
      </g>
    </g>
  </g>
  <g transform="matrix(4.5414381,0,0,4.5414381,-2361.2482,-560.41014)" id="g240" style="fill:#000000;fill-opacity:1;stroke:none">
    <clipPath id="clip21">
      <path d="M 0,0 0,823 1155,823 1155,0 0,0 z" id="path243"/>
    </clipPath>
    <g clip-path="url(#clip21)" id="g245" style="fill:#000000;fill-opacity:1;stroke:none">
      <g id="g247" style="fill:#000000;fill-opacity:1;stroke:none">
        <path d="m 733.44,173.36 c 0,1.66 -1.34,3 -3,3 -1.65,0 -3,-1.34 -3,-3 0,-1.66 1.35,-3 3,-3 1.66,0 3,1.34 3,3 z" id="path249" style="fill:#000000;fill-opacity:1;stroke:none"/>
      </g>
    </g>
  </g>
  <g transform="matrix(4.4919671,0,0,4.4919671,-1897.454,-931.2037)" id="g251" style="fill:#000000;fill-opacity:1;stroke:none">
    <clipPath id="clip22">
      <path d="M 0,0 0,823 1155,823 1155,0 0,0 z" id="path254"/>
    </clipPath>
    <g clip-path="url(#clip22)" id="g256" style="fill:#000000;fill-opacity:1;stroke:none">
      <g id="g258" style="fill:#000000;fill-opacity:1;stroke:none">
        <path d="m 599.09,292.54 c 0,1.66 -1.34,3 -3,3 -1.66,0 -3,-1.34 -3,-3 0,-1.65 1.34,-3 3,-3 1.66,0 3,1.35 3,3 z" id="path260" style="fill:#000000;fill-opacity:1;stroke:none"/>
      </g>
    </g>
  </g>
  <g transform="matrix(4.4780969,0,0,4.4780969,-1889.1862,-1737.567)" id="g262" style="fill:#000000;fill-opacity:1;stroke:none">
    <clipPath id="clip23">
      <path d="M 0,0 0,823 1155,823 1155,0 0,0 z" id="path265"/>
    </clipPath>
    <g clip-path="url(#clip23)" id="g267" style="fill:#000000;fill-opacity:1;stroke:none">
      <g id="g269" style="fill:#000000;fill-opacity:1;stroke:none">
        <path d="m 599.09,548.25 c 0,1.65 -1.34,3 -3,3 -1.66,0 -3,-1.35 -3,-3 0,-1.66 1.34,-3 3,-3 1.66,0 3,1.34 3,3 z" id="path271" style="fill:#000000;fill-opacity:1;stroke:none"/>
      </g>
    </g>
  </g>
  <g transform="matrix(4.4889789,0,0,4.4889789,-2361.4419,-1473.7585)" id="g273" style="fill:#000000;fill-opacity:1;stroke:none">
    <clipPath id="clip24">
      <path d="M 0,0 0,823 1155,823 1155,0 0,0 z" id="path276"/>
    </clipPath>
    <g clip-path="url(#clip24)" id="g278" style="fill:#000000;fill-opacity:1;stroke:none">
      <g id="g280" style="fill:#000000;fill-opacity:1;stroke:none">
        <path d="m 745.55,463.42 c 0,1.65 -1.34,3 -3,3 -1.65,0 -3,-1.35 -3,-3 0,-1.66 1.35,-3 3,-3 1.66,0 3,1.34 3,3 z" id="path282" style="fill:#000000;fill-opacity:1;stroke:none"/>
      </g>
    </g>
  </g>
  <g transform="matrix(4.4780969,0,0,4.4780969,-3463.4076,-963.75149)" id="g284" style="fill:#000000;fill-opacity:1;stroke:none">
    <clipPath id="clip25">
      <path d="M 0,0 0,823 1155,823 1155,0 0,0 z" id="path287"/>
    </clipPath>
    <g clip-path="url(#clip25)" id="g289" style="fill:#000000;fill-opacity:1;stroke:none">
      <g id="g291" style="fill:#000000;fill-opacity:1;stroke:none">
        <path d="m 1095.8,304.09 c 0,1.66 -1.3,3 -3,3 -1.6,0 -3,-1.34 -3,-3 0,-1.66 1.4,-3 3,-3 1.7,0 3,1.34 3,3 z" id="path293" style="fill:#000000;fill-opacity:1;stroke:none"/>
      </g>
    </g>
  </g>
  <g transform="matrix(4.4855589,0,0,4.4855589,-2055.4901,-2129.4133)" id="g295" style="fill:#000000;fill-opacity:1;stroke:none">
    <clipPath id="clip26">
      <path d="M 0,0 0,823 1155,823 1155,0 0,0 z" id="path298"/>
    </clipPath>
    <g clip-path="url(#clip26)" id="g300" style="fill:#000000;fill-opacity:1;stroke:none">
      <g id="g302" style="fill:#000000;fill-opacity:1;stroke:none">
        <path d="m 650.04,670.31 c 0,1.66 -1.34,3 -3,3 -1.66,0 -3,-1.34 -3,-3 0,-1.66 1.34,-3 3,-3 1.66,0 3,1.34 3,3 z" id="path304" style="fill:#000000;fill-opacity:1;stroke:none"/>
      </g>
    </g>
  </g>
  <g transform="matrix(4.4913458,0,0,4.4913458,-148.40529,-2482.2903)" id="g306" style="fill:#000000;fill-opacity:1;stroke:none">
    <clipPath id="clip27">
      <path d="M 0,0 0,823 1155,823 1155,0 0,0 z" id="path309"/>
    </clipPath>
    <g clip-path="url(#clip27)" id="g311" style="fill:#000000;fill-opacity:1;stroke:none">
      <g id="g313" style="fill:#000000;fill-opacity:1;stroke:none">
        <path d="m 49.631,779.97 c 0,1.65 -1.344,3 -3,3 -1.657,0 -3,-1.35 -3,-3 0,-1.66 1.343,-3 3,-3 1.656,0 3,1.34 3,3 z" id="path315" style="fill:#000000;fill-opacity:1;stroke:none"/>
      </g>
    </g>
  </g>
  <g transform="matrix(4.493433,0,0,4.493433,-1633.1753,-2485.829)" id="g317" style="fill:#000000;fill-opacity:1;stroke:none">
    <clipPath id="clip28">
      <path d="M 0,0 0,823 1155,823 1155,0 0,0 z" id="path320"/>
    </clipPath>
    <g clip-path="url(#clip28)" id="g322" style="fill:#000000;fill-opacity:1;stroke:none">
      <g id="g324" style="fill:#000000;fill-opacity:1;stroke:none">
        <path d="m 515.83,780.57 c 0,1.65 -1.34,3 -3,3 -1.66,0 -3,-1.35 -3,-3 0,-1.66 1.34,-3 3,-3 1.66,0 3,1.34 3,3 z" id="path326" style="fill:#000000;fill-opacity:1;stroke:none"/>
      </g>
    </g>
  </g>
  <g transform="matrix(4.4766503,0,0,4.4766503,-1888.3238,-2473.0457)" id="g328" style="fill:#000000;fill-opacity:1;stroke:none">
    <clipPath id="clip29">
      <path d="M 0,0 0,823 1155,823 1155,0 0,0 z" id="path331"/>
    </clipPath>
    <g clip-path="url(#clip29)" id="g333" style="fill:#000000;fill-opacity:1;stroke:none">
      <g id="g335" style="fill:#000000;fill-opacity:1;stroke:none">
        <path d="m 599.09,780.67 c 0,1.66 -1.34,3 -3,3 -1.66,0 -3,-1.34 -3,-3 0,-1.65 1.34,-3 3,-3 1.66,0 3,1.35 3,3 z" id="path337" style="fill:#000000;fill-opacity:1;stroke:none"/>
      </g>
    </g>
  </g>
  <g id="text5673" style="font-size:75.38999939px;font-style:normal;font-variant:normal;font-weight:normal;font-stretch:normal;text-align:start;line-height:100%;writing-mode:lr-tb;text-anchor:start;fill:#000000;fill-opacity:1;stroke:none;font-family:Latin Modern Roman Slanted;-inkscape-font-specification:Latin Modern Roman Slanted">
    <path d="m 948.73452,186.64678 c 1.05546,-6.55893 -4.14646,-12.21318 -12.36396,-13.11786 7.53899,-1.43241 13.49481,-6.25738 14.47488,-11.83623 1.05546,-6.55893 -4.82497,-12.74091 -14.62566,-12.74091 l -27.59274,0 -0.37695,2.33709 1.80936,0 c 5.80503,0 5.80503,0.82929 5.35269,3.54333 l -6.63432,39.73053 c -0.45234,2.71403 -0.7539,3.54333 -6.55893,3.54333 l -1.80936,0 -0.37695,2.33709 29.55288,0 c 10.02686,0 17.94282,-6.70972 19.14906,-13.79637 m -5.20191,-24.95409 c -0.82929,4.82495 -5.57887,11.15772 -13.94715,11.15772 l -10.93155,0 3.09099,-18.54594 c 0.45234,-2.48787 0.67852,-3.0156 4.22184,-3.0156 l 9.34836,0 c 7.31282,0 8.89602,6.40815 8.21751,10.40382 m -2.33709,24.8787 c -0.90468,5.35268 -5.88043,11.53467 -13.64559,11.53467 l -9.42375,0 c -3.54332,0 -3.61872,-0.52774 -3.16638,-3.0156 l 3.39255,-20.58147 14.17332,0 c 7.4636,0 9.49914,7.01127 8.66985,12.0624" id="path3067"/>
  </g>
  <g id="text5677" style="font-size:75.38999939px;font-style:normal;font-variant:normal;font-weight:normal;font-stretch:normal;text-align:start;line-height:100%;writing-mode:lr-tb;text-anchor:start;fill:#000000;fill-opacity:1;stroke:none;font-family:Latin Modern Roman Slanted;-inkscape-font-specification:Latin Modern Roman Slanted">
    <path d="m 1124.3686,968.75316 c 0.377,-2.41248 -1.5832,-4.59879 -4.825,-4.59879 -5.5034,0 -9.0468,5.05113 -10.7053,8.2929 l 1.4324,-8.2929 -10.63,0.82929 -0.377,2.33709 c 5.2773,0 5.8051,0.52773 5.1266,4.22184 l -3.3172,20.20452 c -0.6031,3.39254 -1.4324,3.39255 -6.4835,3.39255 l -0.377,2.33709 8.6699,-0.22617 c 3.0156,0 6.5589,0 9.4991,0.22617 l 0.3769,-2.33709 -1.5831,0 c -5.5789,0 -5.5789,-0.8293 -5.1266,-3.54333 l 1.9602,-11.61006 c 1.2062,-7.46361 5.5035,-14.17332 11.2331,-14.17332 0.5277,0 0.6785,0 0.8293,0.0754 -0.2262,0.0754 -1.8848,0.98007 -2.2617,2.94021 -0.3016,2.11091 1.0554,3.24177 2.714,3.24177 1.357,0 3.3926,-0.90469 3.8449,-3.31716" id="path3085"/>
  </g>
  <g id="text5681" style="font-size:75.38999939px;font-style:normal;font-variant:normal;font-weight:normal;font-stretch:normal;text-align:start;line-height:100%;writing-mode:lr-tb;text-anchor:start;fill:#000000;fill-opacity:1;stroke:none;font-family:Latin Modern Roman Slanted;-inkscape-font-specification:Latin Modern Roman Slanted">
    <path d="m 749.86277,766.65453 c 0.15078,-0.7539 0.22617,-1.28163 -0.7539,-1.28163 -0.82929,0 -0.90468,0.45234 -1.13085,1.20624 -2.41248,10.78076 -11.45929,16.96275 -19.67679,16.96275 -4.59879,0 -18.99828,-2.56328 -15.22878,-25.02948 3.76949,-22.54159 18.8475,-25.10487 23.44629,-25.10487 8.2175,0 13.79637,6.8605 13.49481,17.86743 0,1.05546 -0.0754,1.28163 0.98007,1.28163 1.20624,0 1.28163,-0.22617 1.5078,-1.80936 l 3.0156,-17.86743 c 0.15078,-1.28163 0.30156,-1.80936 -0.52773,-1.80936 -0.30156,0 -0.60312,0 -1.35702,0.90468 l -4.74957,5.57886 c -2.33709,-2.71404 -5.50348,-6.48354 -12.74091,-6.48354 -14.09792,0 -28.27125,11.98702 -30.83451,27.36657 -2.56326,15.60571 7.6144,27.44196 21.63693,27.44196 12.28856,0 21.48615,-10.47922 22.91856,-19.22445" id="path3079"/>
  </g>
  <g id="text5685" style="font-size:75.38999939px;font-style:normal;font-variant:normal;font-weight:normal;font-stretch:normal;text-align:start;line-height:100%;writing-mode:lr-tb;text-anchor:start;fill:#000000;fill-opacity:1;stroke:none;font-family:Latin Modern Roman Slanted;-inkscape-font-specification:Latin Modern Roman Slanted">
    <path d="m 993.9511,543.23915 c 2.41247,-14.32408 -5.80505,-26.16033 -18.69672,-26.16033 l -27.59274,0 -0.37695,2.33709 1.80936,0 c 5.80502,0 5.80503,0.82929 5.35269,3.54333 l -6.63432,39.73053 c -0.45234,2.71404 -0.75391,3.54333 -6.55893,3.54333 l -1.80936,0 -0.37695,2.33709 27.59274,0 c 12.6655,0 24.95409,-11.15773 27.29118,-25.33104 m -7.539,0 c -1.35702,8.36828 -3.54334,12.89169 -6.93588,16.5858 -1.80936,2.03553 -6.8605,6.40815 -14.47488,6.40815 l -7.61439,0 c -3.54333,0 -3.61872,-0.52773 -3.16638,-3.0156 l 6.7851,-40.78599 c 0.45234,-2.48787 0.67851,-3.0156 4.22184,-3.0156 l 7.539,0 c 4.67417,0 9.57453,1.65859 12.51474,7.01127 2.48786,4.44801 2.11092,10.93156 1.13085,16.81197" id="path3076"/>
  </g>
  <g id="text5689" style="font-size:75.38999939px;font-style:normal;font-variant:normal;font-weight:normal;font-stretch:normal;text-align:start;line-height:100%;writing-mode:lr-tb;text-anchor:start;fill:#000000;fill-opacity:1;stroke:none;font-family:Latin Modern Roman Slanted;-inkscape-font-specification:Latin Modern Roman Slanted">
    <path d="m 1451.9435,345.08191 -1.8847,0 c -3.8449,11.61005 -6.4836,17.11353 -19.4506,17.11353 l -10.0269,0 c -3.5433,0 -3.6187,-0.52773 -3.1664,-3.0156 l 3.3172,-20.12913 6.7851,0 c 7.3128,0 7.7651,2.41249 6.7097,8.82063 l 1.8847,0 3.3172,-19.97835 -1.8848,0 c -1.0554,6.48354 -2.2617,8.82063 -9.5745,8.82063 l -6.7851,0 3.0156,-18.0936 c 0.377,-2.48787 0.6031,-3.0156 4.1465,-3.0156 l 9.7253,0 c 11.5346,0 12.8917,4.14646 12.3639,14.62566 l 1.8848,0 0.6785,-16.96275 -42.4446,0 -0.3769,2.33709 1.8093,0 c 5.8051,0 5.8051,0.82929 5.3527,3.54333 l -6.5589,39.50436 c -0.4523,2.71404 -0.7539,3.54333 -6.5589,3.54333 l -1.8094,0 -0.3769,2.33709 43.5,0 6.4081,-19.45062" id="path3088"/>
  </g>
  <g id="text5693" style="font-size:75.38999939px;font-style:normal;font-variant:normal;font-weight:normal;font-stretch:normal;text-align:start;line-height:100%;writing-mode:lr-tb;text-anchor:start;fill:#000000;fill-opacity:1;stroke:none;font-family:Latin Modern Roman Slanted;-inkscape-font-specification:Latin Modern Roman Slanted">
    <path d="m 933.76167,875.50773 0.67851,-16.96275 -41.38911,0 -0.37695,2.33709 1.80936,0 c 5.80502,0 5.80503,0.82929 5.35269,3.54333 l -6.55893,39.50436 c -0.45234,2.71404 -0.75391,3.54333 -6.55893,3.54333 l -1.80936,0 -0.37695,2.33709 c 2.71404,-0.22617 8.59446,-0.22617 11.53467,-0.22617 3.09099,0 9.95148,0 12.59013,0.22617 l 0.37695,-2.33709 -2.48787,0 c -7.16204,0 -7.01127,-0.98007 -6.55893,-3.61872 l 3.09099,-18.54594 6.48354,0 c 7.23743,0 7.61439,2.41249 6.55893,8.82063 l 1.88475,0 3.31716,-19.97835 -1.88475,0 c -1.05546,6.33275 -2.26171,8.82063 -9.49914,8.82063 l -6.48354,0 3.24177,-19.07367 c 0.37695,-2.48787 0.60312,-3.0156 4.14645,-3.0156 l 9.0468,0 c 11.30849,0 12.51474,4.22185 11.98701,14.62566 l 1.88475,0" id="path3082"/>
  </g>
</svg>