<?xml version="1.0" encoding="utf-8"?>
<!-- Generator: Adobe Illustrator 16.0.4, SVG Export Plug-In . SVG Version: 6.00 Build 0)  -->
<!DOCTYPE svg PUBLIC "-//W3C//DTD SVG 1.1//EN" "http://www.w3.org/Graphics/SVG/1.1/DTD/svg11.dtd">
<svg version="1.1" id="Layer_2" xmlns="http://www.w3.org/2000/svg" xmlns:xlink="http://www.w3.org/1999/xlink" x="0px" y="0px"
	 width="403.48px" height="362.982px" viewBox="0 0 403.48 362.982" enable-background="new 0 0 403.48 362.982"
	 xml:space="preserve">
<g>
	<g>
		
			<line fill="none" stroke="#000000" stroke-width="3" stroke-miterlimit="10" x1="21.399" y1="198.899" x2="383.303" y2="198.899"/>
		<g>
			<path d="M392.899,198.899c-4.516,1.675-10.117,4.534-13.59,7.562l2.734-7.562l-2.734-7.56
				C382.782,194.367,388.383,197.226,392.899,198.899z"/>
		</g>
	</g>
</g>
<g>
	<g>
		
			<line fill="none" stroke="#000000" stroke-width="3" stroke-miterlimit="10" x1="182.399" y1="348.899" x2="182.399" y2="22.745"/>
		<g>
			<path d="M182.399,13.149c1.675,4.515,4.534,10.118,7.562,13.59l-7.562-2.735l-7.56,2.735
				C177.867,23.267,180.725,17.665,182.399,13.149z"/>
		</g>
	</g>
</g>
<path fill="none" stroke="#000000" stroke-width="3" stroke-miterlimit="10" d="M117.101,247.399
	c-14.045,56.752-40.603,83.589-65.746,92.957c-6.503,2.423-38.67,8.543-38.67,8.543"/>
<g>
	<g>
		<path fill="none" stroke="#000000" stroke-width="3" stroke-miterlimit="10" d="M227.76,92.564c0,0-88.951,29.035-111.249,155.395
			"/>
		<g>
			<path d="M114.814,258.692c-1.06-5.349-3.247-12.124-6.006-16.55l7.959,4.417l8.942-1.696
				C121.701,248.199,117.498,253.946,114.814,258.692z"/>
		</g>
	</g>
</g>
<g>
	<g>
		<path fill="none" stroke="#000000" stroke-width="3" stroke-miterlimit="10" d="M374.899,67.899c0,0-93.527,3.074-145.615,24.035"
			/>
		<g>
			<path d="M219.399,96.399c3.902-3.807,8.387-9.338,10.59-14.066l0.643,9.081l6.302,6.567
				C231.95,96.443,224.84,96.058,219.399,96.399z"/>
		</g>
	</g>
</g>
<g>
	<g>
		<path fill="none" stroke="#000000" stroke-width="3" stroke-miterlimit="10" d="M182.399,198.899c0,0,22.701-2.432,37.808-29.197"
			/>
		<g>
			<path d="M224.899,159.899c-0.553,5.424-0.445,12.543,0.897,17.583l-6.317-6.555l-9.047-0.996
				C215.242,167.916,220.944,163.651,224.899,159.899z"/>
		</g>
	</g>
</g>
<path fill="none" stroke="#000000" stroke-width="3" stroke-miterlimit="10" d="M222.739,164.821
	c36.534-87.408,109.662-93.906,109.662-93.906"/>
<path fill="none" stroke="#000000" stroke-width="3" stroke-miterlimit="10" d="M232.99,255.963c0,0,17.702-36.018,21.825-52.728
	c29.877-121.086,81.584-132.32,81.584-132.32"/>
<g>
	<g>
		<path fill="none" stroke="#000000" stroke-width="3" stroke-miterlimit="10" d="M229.696,260.369
			c-17.077,21.754-67.097,70.562-176.927,79.431"/>
		<g>
			<polygon points="236.899,249.899 220.626,260.362 229.057,261.083 232.608,268.763 			"/>
		</g>
	</g>
</g>
<rect x="151.848" y="15.399" fill="none" width="16" height="19"/>
<text transform="matrix(1 0 0 1 155.709 26.5713)" font-family="'AdobeArabic-Regular'" font-size="22">D</text>
<rect x="151.072" y="62.774" fill="none" width="17.551" height="19"/>
<text transform="matrix(1 0 0 1 156.4849 73.9463)" font-family="'AdobeArabic-Regular'" font-size="22">D</text>
<rect x="157.646" y="70.024" fill="none" width="16" height="19"/>
<text transform="matrix(1 0 0 1 168.0371 78.1494)" font-family="'AdobeArabic-Regular'" font-size="16">S</text>
<rect x="151.29" y="104.743" fill="none" width="17.117" height="19"/>
<text transform="matrix(1 0 0 1 156.2676 115.915)" font-family="'AdobeArabic-Regular'" font-size="22">D</text>
<rect x="156.288" y="111.993" fill="none" width="16" height="19"/>
<text transform="matrix(1 0 0 1 167.897 120.1182)" font-family="'AdobeArabic-Regular'" font-size="16">r</text>
<rect x="86.881" y="175.899" fill="none" width="27" height="19"/>
<text transform="matrix(1 0 0 1 104.6538 187.0713)" font-family="'AdobeArabic-Regular'" font-size="22">E</text>
<rect x="106.694" y="183.149" fill="none" width="16" height="19"/>
<text transform="matrix(1 0 0 1 114.6704 191.2744)" font-family="'AdobeArabic-Regular'" font-size="16">C</text>
<rect x="358.881" y="176.399" fill="none" width="27" height="19"/>
<text transform="matrix(1 0 0 1 376.6538 187.5713)" font-family="'AdobeArabic-Regular'" font-size="22">E</text>
<g>
	<g>
		<line fill="none" stroke="#000000" stroke-width="2" stroke-miterlimit="10" x1="182.399" y1="67.899" x2="188.399" y2="67.899"/>
		
			<line fill="none" stroke="#000000" stroke-width="2" stroke-miterlimit="10" stroke-dasharray="11.8655,11.8655" x1="200.265" y1="67.899" x2="360.449" y2="67.899"/>
		<line fill="none" stroke="#000000" stroke-width="2" stroke-miterlimit="10" x1="366.381" y1="67.899" x2="372.381" y2="67.899"/>
	</g>
</g>
</svg>
