<?xml version="1.0" encoding="UTF-8" standalone="no"?>
<!-- Created with Inkscape (http://www.inkscape.org/) -->
<svg
   xmlns:dc="http://purl.org/dc/elements/1.1/"
   xmlns:cc="http://creativecommons.org/ns#"
   xmlns:rdf="http://www.w3.org/1999/02/22-rdf-syntax-ns#"
   xmlns:svg="http://www.w3.org/2000/svg"
   xmlns="http://www.w3.org/2000/svg"
   xmlns:sodipodi="http://sodipodi.sourceforge.net/DTD/sodipodi-0.dtd"
   xmlns:inkscape="http://www.inkscape.org/namespaces/inkscape"
   id="svg4250"
   sodipodi:version="0.32"
   inkscape:version="0.46"
   width="404.46463"
   height="260"
   version="1.0"
   sodipodi:docname="Law_of_cosines_with_acute_angles.svg"
   inkscape:output_extension="org.inkscape.output.svg.inkscape">
  <sodipodi:namedview
     inkscape:window-height="724"
     inkscape:window-width="1270"
     inkscape:pageshadow="2"
     inkscape:pageopacity="0.0"
     guidetolerance="10.0"
     gridtolerance="10.0"
     objecttolerance="10.0"
     borderopacity="1.0"
     bordercolor="#666666"
     pagecolor="#ffffff"
     id="base"
     showgrid="true"
     inkscape:snap-global="false"
     inkscape:zoom="1.9038462"
     inkscape:cx="280.98316"
     inkscape:cy="130"
     inkscape:window-x="5"
     inkscape:window-y="47"
     inkscape:current-layer="svg4250">
    <inkscape:grid
       type="xygrid"
       id="grid4261"
       visible="true"
       enabled="true" />
  </sodipodi:namedview>
  <metadata
     id="metadata4255">
    <rdf:RDF>
      <cc:Work
         rdf:about="">
        <dc:format>image/svg+xml</dc:format>
        <dc:type
           rdf:resource="http://purl.org/dc/dcmitype/StillImage" />
      </cc:Work>
    </rdf:RDF>
  </metadata>
  <defs
     id="defs4253">
    <inkscape:perspective
       sodipodi:type="inkscape:persp3d"
       inkscape:vp_x="0 : 526.18109 : 1"
       inkscape:vp_y="0 : 1000 : 0"
       inkscape:vp_z="744.09448 : 526.18109 : 1"
       inkscape:persp3d-origin="372.04724 : 350.78739 : 1"
       id="perspective4257" />
  </defs>
  <rect
     style="fill:#ff9999;fill-opacity:1;stroke:#000000;stroke-width:1;stroke-linecap:square;stroke-linejoin:miter;stroke-miterlimit:10.30000019;stroke-dasharray:none;stroke-opacity:1"
     id="rect4263"
     width="145"
     height="140"
     x="0.5"
     y="119.5" />
  <rect
     style="fill:#ff9999;fill-opacity:1;stroke:#000000;stroke-width:0.84882683;stroke-linecap:butt;stroke-linejoin:miter;stroke-miterlimit:5.80000019;stroke-dasharray:none;stroke-opacity:1"
     id="rect4774"
     width="84.882675"
     height="84.882675"
     x="-29.533323"
     y="101.06969"
     transform="matrix(0.5056123,-0.8627608,0.8627608,0.5056123,0,0)" />
  <path
     style="fill:#9999ff;fill-opacity:1;fill-rule:evenodd;stroke:#000000;stroke-width:1px;stroke-linecap:butt;stroke-linejoin:bevel;stroke-opacity:1"
     d="M 145.5,119.5 L 72.5,76.499998 L 0.5,119.5 L 145.5,119.5 z"
     id="path4776" />
  <rect
     style="fill:#ff9999;fill-opacity:1;stroke:#000000;stroke-width:0.83145463;stroke-linecap:butt;stroke-linejoin:miter;stroke-miterlimit:5.80000019;stroke-dasharray:none;stroke-opacity:1"
     id="rect4778"
     width="83.145447"
     height="83.145447"
     x="124.93554"
     y="211.49469"
     transform="matrix(0.8557823,-0.5173361,0.5173361,0.8557823,0,0)" />
  <path
     style="fill:#9999ff;fill-opacity:1;fill-rule:evenodd;stroke:#000000;stroke-width:1px;stroke-linecap:butt;stroke-linejoin:bevel;stroke-opacity:1"
     d="M 403.5,187.5 L 330.5,144.5 L 258.5,187.5 L 403.5,187.5 z"
     id="path4780" />
  <path
     style="fill:#999999;fill-opacity:1;fill-rule:evenodd;stroke:#000000;stroke-width:1px;stroke-linecap:butt;stroke-linejoin:bevel;stroke-opacity:1"
     d="M 145.5,259.5 L 188.5,190.5 L 145.5,119.5 L 145.5,259.5 z"
     id="path4782"
     sodipodi:nodetypes="cccc" />
  <path
     style="fill:#d9d9d9;fill-opacity:1;fill-rule:evenodd;stroke:#000000;stroke-width:1px;stroke-linecap:butt;stroke-linejoin:bevel;stroke-opacity:1"
     d="M 188.5,190.5 L 188.5,46.499998 L 145.5,119.5 L 188.5,190.5 z"
     id="path4784"
     sodipodi:nodetypes="cccc" />
  <path
     style="fill:#999999;fill-opacity:1;fill-rule:evenodd;stroke:#000000;stroke-width:1px;stroke-linecap:butt;stroke-linejoin:bevel;stroke-opacity:1"
     d="M 216.5,256.5 L 259.5,187.5 L 216.5,116.5 L 216.5,256.5 z"
     id="path4790"
     sodipodi:nodetypes="cccc" />
  <path
     style="fill:#d9d9d9;fill-opacity:1;fill-rule:evenodd;stroke:#000000;stroke-width:1px;stroke-linecap:butt;stroke-linejoin:bevel;stroke-opacity:1"
     d="M 330.5,144.5 L 330.5,0.5 L 287.5,73.499998 L 330.5,144.5 z"
     id="path4792"
     sodipodi:nodetypes="cccc" />
  <rect
     style="fill:#ffd9d9;fill-opacity:1;stroke:#000000;stroke-width:1.08635008;stroke-linecap:square;stroke-linejoin:bevel;stroke-miterlimit:5.80000019;stroke-dasharray:none;stroke-opacity:1"
     id="rect4794"
     width="143.97711"
     height="80.882469"
     x="377.49637"
     y="221.27942"
     transform="matrix(1,0,-0.5310429,0.8473449,0,0)"
     ry="0" />
  <rect
     style="fill:#ffd9d9;fill-opacity:1;stroke:#000000;stroke-width:1.09809196;stroke-linecap:square;stroke-linejoin:bevel;stroke-miterlimit:5.80000019;stroke-dasharray:none;stroke-opacity:1"
     id="rect4796"
     width="143.85437"
     height="84.415588"
     x="-192.8772"
     y="-467.38718"
     transform="matrix(0,1,-0.8629991,-0.5052054,0,0)"
     ry="0" />
  <g
     transform="matrix(0.69415,0,0,0.69415,211.98238,110.14932)"
     id="g4816">
    <g
       style="font-style:normal;font-variant:normal;font-weight:normal;font-stretch:normal;letter-spacing:normal;word-spacing:normal;text-anchor:start;fill:none;fill-opacity:1;stroke:#000000;stroke-linecap:butt;stroke-linejoin:miter;stroke-miterlimit:10.43299961;stroke-dasharray:none;stroke-dashoffset:0;stroke-opacity:1"
       id="content"
       transform="matrix(0.3828571,0,0,-0.3828571,-67,326.25)"
       xml:space="preserve"
       stroke-miterlimit="10.433"
       fill-rule="even-odd"
       font-style="normal"
       font-variant="normal"
       font-weight="normal"
       font-stretch="normal"
       font-size-adjust="none"
       letter-spacing="normal"
       word-spacing="normal"><path
         style="fill:#000000;stroke-width:0"
         d="M 474.58,424.83 L 474.5,425 L 474.41,425.17 L 474.31,425.33 L 474.22,425.49 L 474.12,425.65 L 474.02,425.81 L 473.91,425.96 L 473.8,426.1 L 473.69,426.25 L 473.57,426.38 L 473.45,426.52 L 473.33,426.65 L 473.2,426.77 L 473.07,426.89 L 472.93,427 L 472.79,427.11 L 472.65,427.22 L 472.5,427.31 L 472.35,427.41 L 472.2,427.49 L 472.04,427.57 L 471.87,427.65 L 471.7,427.72 L 471.53,427.78 L 471.36,427.83 L 471.17,427.88 L 470.99,427.92 L 470.8,427.95 L 470.61,427.98 L 470.41,428 L 470.2,428.01 L 470,428.02 L 470.05,426.92 C 473.29,426.92 473.98,422.84 473.98,422.54 C 473.98,422.24 473.88,421.94 473.83,421.69 L 471.34,411.93 C 471.09,411.03 471.09,410.93 470.35,410.09 C 468.16,407.34 466.11,406.55 464.72,406.55 C 462.23,406.55 461.53,409.29 461.53,411.23 C 461.53,413.72 463.12,419.85 464.27,422.14 C 465.81,425.08 468.05,426.92 470.05,426.92 L 470,428.02 C 464.17,428.02 457.99,420.7 457.99,413.42 C 457.99,408.74 460.73,405.45 464.62,405.45 C 465.61,405.45 468.11,405.65 471.09,409.19 C 471.49,407.1 473.23,405.45 475.62,405.45 C 477.37,405.45 478.52,406.6 479.31,408.19 C 480.16,409.98 480.81,413.02 480.81,413.12 C 480.81,413.62 480.36,413.62 480.21,413.62 C 479.71,413.62 479.66,413.42 479.51,412.73 C 478.66,409.49 477.77,406.55 475.73,406.55 C 474.38,406.55 474.23,407.84 474.23,408.84 C 474.23,409.93 474.33,410.33 474.88,412.53 C 475.43,414.62 475.53,415.12 475.98,417.01 C 476.82,420.2 477.02,421.14 477.77,423.98 C 478.12,425.38 478.12,425.48 478.12,425.68 C 478.12,426.52 477.52,427.02 476.67,427.02 C 475.48,427.02 474.73,425.93 474.58,424.83 z"
         id="path4819" /><path
         style="fill:#000000;stroke-width:0"
         d="M 493.91,440.02 L 493.91,440.03 L 493.91,440.03 L 493.91,440.04 L 493.91,440.05 L 493.9,440.06 L 493.9,440.07 L 493.9,440.09 L 493.9,440.11 L 493.9,440.13 L 493.89,440.15 L 493.89,440.17 L 493.88,440.19 L 493.87,440.22 L 493.86,440.24 L 493.85,440.27 L 493.84,440.29 L 493.83,440.31 L 493.81,440.34 L 493.79,440.36 L 493.77,440.39 L 493.75,440.41 L 493.74,440.42 L 493.72,440.43 L 493.71,440.44 L 493.7,440.45 L 493.68,440.46 L 493.67,440.47 L 493.65,440.48 L 493.63,440.49 L 493.62,440.5 L 493.6,440.51 L 493.58,440.52 L 493.56,440.52 L 493.54,440.53 L 493.52,440.54 L 493.49,440.54 L 493.47,440.55 L 493.45,440.55 L 493.42,440.56 L 493.4,440.56 L 493.37,440.56 L 493.34,440.57 L 493.32,440.57 L 493.29,440.57 L 493.26,440.57 C 492.11,440.57 488.48,440.17 487.18,440.07 C 486.78,440.02 486.23,439.97 486.23,439.07 C 486.23,438.48 486.68,438.48 487.43,438.48 C 489.82,438.48 489.92,438.13 489.92,437.63 C 489.92,437.28 489.47,435.59 489.22,434.54 L 485.14,418.3 C 484.54,415.81 484.34,415.02 484.34,413.27 C 484.34,408.54 486.98,405.45 490.67,405.45 L 490.67,406.55 C 488.97,406.55 487.33,407.89 487.33,411.58 C 487.33,412.53 487.33,413.47 488.13,416.61 L 489.22,421.19 C 489.52,422.29 489.52,422.39 489.97,422.94 C 492.41,426.18 494.65,426.92 495.95,426.92 C 497.74,426.92 499.09,425.43 499.09,422.24 C 499.09,419.3 497.44,413.57 496.55,411.68 C 494.9,408.34 492.61,406.55 490.67,406.55 L 490.67,405.45 C 496.55,405.45 502.67,412.88 502.67,420.05 C 502.67,424.58 500.03,428.02 496.05,428.02 C 493.76,428.02 491.71,426.57 490.22,425.03 L 493.91,440.02 z"
         id="path4821" /><path
         style="fill:#000000;stroke-width:0"
         d="M 528.88,425.23 L 528.79,425.22 L 528.7,425.21 L 528.61,425.2 L 528.52,425.18 L 528.44,425.17 L 528.35,425.15 L 528.27,425.13 L 528.2,425.11 L 528.12,425.09 L 528.05,425.07 L 527.98,425.04 L 527.91,425.02 L 527.84,424.99 L 527.78,424.96 L 527.66,424.9 L 527.54,424.83 L 527.44,424.76 L 527.34,424.69 L 527.24,424.61 L 527.16,424.53 L 527.08,424.44 L 527.01,424.36 L 526.95,424.27 L 526.89,424.18 L 526.83,424.09 L 526.79,424 L 526.74,423.91 L 526.71,423.82 L 526.67,423.73 L 526.65,423.64 L 526.62,423.55 L 526.6,423.46 L 526.58,423.38 L 526.57,423.3 L 526.56,423.22 L 526.55,423.14 L 526.55,423.07 L 526.54,423 L 526.54,422.94 C 526.54,421.64 527.44,420.64 528.83,420.64 C 530.13,420.64 531.12,421.49 531.12,422.98 C 531.12,426.38 527.34,428.32 523.5,428.32 C 517.28,428.32 512.7,422.94 512.7,416.76 C 512.7,410.38 517.62,405.45 523.4,405.45 C 530.08,405.45 531.67,411.43 531.67,411.93 C 531.67,412.43 531.18,412.43 531.02,412.43 C 530.58,412.43 530.48,412.23 530.38,411.93 C 528.93,407.3 525.7,406.7 523.85,406.7 C 521.21,406.7 516.83,408.84 516.83,416.86 C 516.83,424.98 520.91,427.07 523.55,427.07 C 524,427.07 527.14,427.02 528.88,425.23 z"
         id="path4823" /><path
         style="fill:#000000;stroke-width:0"
         d="M 557.46,416.66 L 557.45,417.25 L 557.4,417.84 L 557.33,418.42 L 557.24,418.99 L 557.11,419.55 L 556.96,420.1 L 556.79,420.64 L 556.59,421.17 L 556.37,421.69 L 556.12,422.19 L 555.86,422.68 L 555.57,423.15 L 555.26,423.61 L 554.93,424.05 L 554.58,424.47 L 554.22,424.88 L 553.83,425.27 L 553.43,425.63 L 553.02,425.98 L 552.58,426.31 L 552.14,426.61 L 551.68,426.9 L 551.2,427.16 L 550.72,427.39 L 550.22,427.6 L 549.71,427.79 L 549.19,427.95 L 548.66,428.08 L 548.12,428.18 L 547.57,428.26 L 547.01,428.3 L 546.45,428.32 L 546.4,427.22 C 548.59,427.22 550.74,426.12 552.03,423.98 C 553.33,421.84 553.33,418.95 553.33,417.06 C 553.33,415.27 553.33,412.57 552.23,410.38 C 551.14,408.14 548.95,406.7 546.45,406.7 L 546.45,406.7 C 544.31,406.7 542.12,407.74 540.77,410.04 C 539.53,412.23 539.53,415.27 539.53,417.06 C 539.53,419 539.53,421.69 540.73,423.88 C 542.07,426.18 544.41,427.22 546.4,427.22 L 546.45,428.32 C 540.23,428.32 535.4,422.89 535.4,416.66 C 535.4,410.23 540.57,405.45 546.4,405.45 C 552.43,405.45 557.46,410.33 557.46,416.66 z"
         id="path4825" /><path
         style="fill:#000000;stroke-width:0"
         d="M 568.36,415.66 L 568.47,415.64 L 568.6,415.62 L 568.74,415.59 L 568.9,415.56 L 569.07,415.52 L 569.25,415.47 L 569.43,415.42 L 569.63,415.37 L 569.84,415.31 L 570.05,415.24 L 570.26,415.16 L 570.48,415.07 L 570.7,414.98 L 570.92,414.88 L 571.14,414.76 L 571.36,414.64 L 571.58,414.51 L 571.79,414.37 L 571.99,414.22 L 572.19,414.06 L 572.38,413.88 L 572.56,413.69 L 572.73,413.49 L 572.89,413.28 L 573.03,413.06 L 573.1,412.94 L 573.16,412.82 L 573.22,412.69 L 573.27,412.57 L 573.32,412.44 L 573.37,412.3 L 573.41,412.16 L 573.44,412.02 L 573.47,411.87 L 573.5,411.72 L 573.52,411.57 L 573.53,411.41 L 573.54,411.25 L 573.54,411.08 C 573.54,408.54 571.8,406.55 567.91,406.55 C 563.73,406.55 561.93,409.39 560.99,413.62 C 560.84,414.27 560.79,414.47 560.29,414.47 C 559.65,414.47 559.65,414.12 559.65,413.22 L 559.65,406.65 C 559.65,405.8 559.65,405.45 560.19,405.45 C 560.44,405.45 560.49,405.5 561.44,406.45 C 561.53,406.55 561.53,406.65 562.43,407.59 C 564.62,405.5 566.87,405.45 567.91,405.45 C 573.64,405.45 575.93,408.79 575.93,412.38 C 575.93,415.02 574.44,416.51 573.84,417.11 C 572.2,418.7 570.25,419.1 568.16,419.5 C 565.37,420.05 562.03,420.7 562.03,423.59 C 562.03,425.33 563.33,427.37 567.61,427.37 C 573.09,427.37 573.34,422.89 573.44,421.34 C 573.49,420.89 573.94,420.89 574.04,420.89 C 574.69,420.89 574.69,421.14 574.69,422.09 L 574.69,427.12 C 574.69,427.97 574.69,428.32 574.14,428.32 C 573.89,428.32 573.79,428.32 573.15,427.72 C 572.99,427.52 572.5,427.07 572.3,426.92 C 570.4,428.32 568.36,428.32 567.61,428.32 C 561.53,428.32 559.65,424.98 559.65,422.19 C 559.65,420.45 560.44,419.05 561.78,417.96 C 563.38,416.66 564.77,416.36 568.36,415.66 z"
         id="path4827" /><path
         style="fill:#000000;stroke-width:0"
         d="M 589.04,418.65 L 589.14,418.92 L 589.23,419.17 L 589.34,419.42 L 589.45,419.66 L 589.56,419.89 L 589.67,420.12 L 589.79,420.34 L 589.92,420.55 L 590.05,420.75 L 590.18,420.94 L 590.31,421.13 L 590.45,421.31 L 590.73,421.66 L 591.02,421.97 L 591.32,422.26 L 591.63,422.53 L 591.94,422.78 L 592.26,423 L 592.57,423.2 L 592.89,423.38 L 593.21,423.55 L 593.52,423.69 L 593.84,423.82 L 594.14,423.93 L 594.44,424.03 L 594.73,424.11 L 595.01,424.18 L 595.27,424.24 L 595.53,424.29 L 595.77,424.33 L 595.99,424.36 L 596.19,424.39 L 596.38,424.41 L 596.54,424.42 L 596.69,424.42 L 596.8,424.43 L 596.9,424.43 L 596.96,424.43 C 604.48,424.43 605.03,415.71 605.03,411.78 C 605.03,408.74 604.78,407.89 604.43,406.9 C 603.34,403.26 601.84,397.48 601.84,396.19 C 601.84,395.64 602.09,395.29 602.49,395.29 C 603.14,395.29 603.54,396.39 604.09,398.28 C 605.23,402.46 605.73,405.3 605.93,406.85 C 606.03,407.5 606.13,408.14 606.33,408.79 C 607.92,413.72 611.11,421.14 613.1,425.08 C 613.45,425.68 614.05,426.77 614.05,426.97 C 614.05,427.47 613.55,427.47 613.45,427.47 C 613.3,427.47 613,427.47 612.85,427.12 C 610.26,422.39 608.27,417.41 606.28,412.38 C 606.23,413.92 606.18,417.71 604.23,422.54 C 603.04,425.58 601.05,428.02 597.61,428.02 C 591.38,428.02 587.9,420.45 587.9,418.9 C 587.9,418.4 588.34,418.4 588.84,418.4 L 589.04,418.65 z"
         id="path4829" /></g>  </g>
  <g
     transform="matrix(0.69415,0,0,0.69415,270.83806,-23.066953)"
     id="g4855">
    <g
       style="font-style:normal;font-variant:normal;font-weight:normal;font-stretch:normal;letter-spacing:normal;word-spacing:normal;text-anchor:start;fill:none;fill-opacity:1;stroke:#000000;stroke-linecap:butt;stroke-linejoin:miter;stroke-miterlimit:10.43299961;stroke-dasharray:none;stroke-dashoffset:0;stroke-opacity:1"
       id="g4857"
       transform="matrix(0.3828571,0,0,-0.3828571,-67,326.25)"
       xml:space="preserve"
       stroke-miterlimit="10.433"
       fill-rule="even-odd"
       font-style="normal"
       font-variant="normal"
       font-weight="normal"
       font-stretch="normal"
       font-size-adjust="none"
       letter-spacing="normal"
       word-spacing="normal"><path
         style="fill:#000000;stroke-width:0"
         d="M 474.58,424.83 L 474.5,425 L 474.41,425.17 L 474.31,425.33 L 474.22,425.49 L 474.12,425.65 L 474.02,425.81 L 473.91,425.96 L 473.8,426.1 L 473.69,426.25 L 473.57,426.38 L 473.45,426.52 L 473.33,426.65 L 473.2,426.77 L 473.07,426.89 L 472.93,427 L 472.79,427.11 L 472.65,427.22 L 472.5,427.31 L 472.35,427.41 L 472.2,427.49 L 472.04,427.57 L 471.87,427.65 L 471.7,427.72 L 471.53,427.78 L 471.36,427.83 L 471.17,427.88 L 470.99,427.92 L 470.8,427.95 L 470.61,427.98 L 470.41,428 L 470.2,428.01 L 470,428.02 L 470.05,426.92 C 473.29,426.92 473.98,422.84 473.98,422.54 C 473.98,422.24 473.88,421.94 473.83,421.69 L 471.34,411.93 C 471.09,411.03 471.09,410.93 470.35,410.09 C 468.16,407.34 466.11,406.55 464.72,406.55 C 462.23,406.55 461.53,409.29 461.53,411.23 C 461.53,413.72 463.12,419.85 464.27,422.14 C 465.81,425.08 468.05,426.92 470.05,426.92 L 470,428.02 C 464.17,428.02 457.99,420.7 457.99,413.42 C 457.99,408.74 460.73,405.45 464.62,405.45 C 465.61,405.45 468.11,405.65 471.09,409.19 C 471.49,407.1 473.23,405.45 475.62,405.45 C 477.37,405.45 478.52,406.6 479.31,408.19 C 480.16,409.98 480.81,413.02 480.81,413.12 C 480.81,413.62 480.36,413.62 480.21,413.62 C 479.71,413.62 479.66,413.42 479.51,412.73 C 478.66,409.49 477.77,406.55 475.73,406.55 C 474.38,406.55 474.23,407.84 474.23,408.84 C 474.23,409.93 474.33,410.33 474.88,412.53 C 475.43,414.62 475.53,415.12 475.98,417.01 C 476.82,420.2 477.02,421.14 477.77,423.98 C 478.12,425.38 478.12,425.48 478.12,425.68 C 478.12,426.52 477.52,427.02 476.67,427.02 C 475.48,427.02 474.73,425.93 474.58,424.83 z"
         id="path4859" /><path
         style="fill:#000000;stroke-width:0"
         d="M 493.91,440.02 L 493.91,440.03 L 493.91,440.03 L 493.91,440.04 L 493.91,440.05 L 493.9,440.06 L 493.9,440.07 L 493.9,440.09 L 493.9,440.11 L 493.9,440.13 L 493.89,440.15 L 493.89,440.17 L 493.88,440.19 L 493.87,440.22 L 493.86,440.24 L 493.85,440.27 L 493.84,440.29 L 493.83,440.31 L 493.81,440.34 L 493.79,440.36 L 493.77,440.39 L 493.75,440.41 L 493.74,440.42 L 493.72,440.43 L 493.71,440.44 L 493.7,440.45 L 493.68,440.46 L 493.67,440.47 L 493.65,440.48 L 493.63,440.49 L 493.62,440.5 L 493.6,440.51 L 493.58,440.52 L 493.56,440.52 L 493.54,440.53 L 493.52,440.54 L 493.49,440.54 L 493.47,440.55 L 493.45,440.55 L 493.42,440.56 L 493.4,440.56 L 493.37,440.56 L 493.34,440.57 L 493.32,440.57 L 493.29,440.57 L 493.26,440.57 C 492.11,440.57 488.48,440.17 487.18,440.07 C 486.78,440.02 486.23,439.97 486.23,439.07 C 486.23,438.48 486.68,438.48 487.43,438.48 C 489.82,438.48 489.92,438.13 489.92,437.63 C 489.92,437.28 489.47,435.59 489.22,434.54 L 485.14,418.3 C 484.54,415.81 484.34,415.02 484.34,413.27 C 484.34,408.54 486.98,405.45 490.67,405.45 L 490.67,406.55 C 488.97,406.55 487.33,407.89 487.33,411.58 C 487.33,412.53 487.33,413.47 488.13,416.61 L 489.22,421.19 C 489.52,422.29 489.52,422.39 489.97,422.94 C 492.41,426.18 494.65,426.92 495.95,426.92 C 497.74,426.92 499.09,425.43 499.09,422.24 C 499.09,419.3 497.44,413.57 496.55,411.68 C 494.9,408.34 492.61,406.55 490.67,406.55 L 490.67,405.45 C 496.55,405.45 502.67,412.88 502.67,420.05 C 502.67,424.58 500.03,428.02 496.05,428.02 C 493.76,428.02 491.71,426.57 490.22,425.03 L 493.91,440.02 z"
         id="path4861" /><path
         style="fill:#000000;stroke-width:0"
         d="M 528.88,425.23 L 528.79,425.22 L 528.7,425.21 L 528.61,425.2 L 528.52,425.18 L 528.44,425.17 L 528.35,425.15 L 528.27,425.13 L 528.2,425.11 L 528.12,425.09 L 528.05,425.07 L 527.98,425.04 L 527.91,425.02 L 527.84,424.99 L 527.78,424.96 L 527.66,424.9 L 527.54,424.83 L 527.44,424.76 L 527.34,424.69 L 527.24,424.61 L 527.16,424.53 L 527.08,424.44 L 527.01,424.36 L 526.95,424.27 L 526.89,424.18 L 526.83,424.09 L 526.79,424 L 526.74,423.91 L 526.71,423.82 L 526.67,423.73 L 526.65,423.64 L 526.62,423.55 L 526.6,423.46 L 526.58,423.38 L 526.57,423.3 L 526.56,423.22 L 526.55,423.14 L 526.55,423.07 L 526.54,423 L 526.54,422.94 C 526.54,421.64 527.44,420.64 528.83,420.64 C 530.13,420.64 531.12,421.49 531.12,422.98 C 531.12,426.38 527.34,428.32 523.5,428.32 C 517.28,428.32 512.7,422.94 512.7,416.76 C 512.7,410.38 517.62,405.45 523.4,405.45 C 530.08,405.45 531.67,411.43 531.67,411.93 C 531.67,412.43 531.18,412.43 531.02,412.43 C 530.58,412.43 530.48,412.23 530.38,411.93 C 528.93,407.3 525.7,406.7 523.85,406.7 C 521.21,406.7 516.83,408.84 516.83,416.86 C 516.83,424.98 520.91,427.07 523.55,427.07 C 524,427.07 527.14,427.02 528.88,425.23 z"
         id="path4863" /><path
         style="fill:#000000;stroke-width:0"
         d="M 557.46,416.66 L 557.45,417.25 L 557.4,417.84 L 557.33,418.42 L 557.24,418.99 L 557.11,419.55 L 556.96,420.1 L 556.79,420.64 L 556.59,421.17 L 556.37,421.69 L 556.12,422.19 L 555.86,422.68 L 555.57,423.15 L 555.26,423.61 L 554.93,424.05 L 554.58,424.47 L 554.22,424.88 L 553.83,425.27 L 553.43,425.63 L 553.02,425.98 L 552.58,426.31 L 552.14,426.61 L 551.68,426.9 L 551.2,427.16 L 550.72,427.39 L 550.22,427.6 L 549.71,427.79 L 549.19,427.95 L 548.66,428.08 L 548.12,428.18 L 547.57,428.26 L 547.01,428.3 L 546.45,428.32 L 546.4,427.22 C 548.59,427.22 550.74,426.12 552.03,423.98 C 553.33,421.84 553.33,418.95 553.33,417.06 C 553.33,415.27 553.33,412.57 552.23,410.38 C 551.14,408.14 548.95,406.7 546.45,406.7 L 546.45,406.7 C 544.31,406.7 542.12,407.74 540.77,410.04 C 539.53,412.23 539.53,415.27 539.53,417.06 C 539.53,419 539.53,421.69 540.73,423.88 C 542.07,426.18 544.41,427.22 546.4,427.22 L 546.45,428.32 C 540.23,428.32 535.4,422.89 535.4,416.66 C 535.4,410.23 540.57,405.45 546.4,405.45 C 552.43,405.45 557.46,410.33 557.46,416.66 z"
         id="path4865" /><path
         style="fill:#000000;stroke-width:0"
         d="M 568.36,415.66 L 568.47,415.64 L 568.6,415.62 L 568.74,415.59 L 568.9,415.56 L 569.07,415.52 L 569.25,415.47 L 569.43,415.42 L 569.63,415.37 L 569.84,415.31 L 570.05,415.24 L 570.26,415.16 L 570.48,415.07 L 570.7,414.98 L 570.92,414.88 L 571.14,414.76 L 571.36,414.64 L 571.58,414.51 L 571.79,414.37 L 571.99,414.22 L 572.19,414.06 L 572.38,413.88 L 572.56,413.69 L 572.73,413.49 L 572.89,413.28 L 573.03,413.06 L 573.1,412.94 L 573.16,412.82 L 573.22,412.69 L 573.27,412.57 L 573.32,412.44 L 573.37,412.3 L 573.41,412.16 L 573.44,412.02 L 573.47,411.87 L 573.5,411.72 L 573.52,411.57 L 573.53,411.41 L 573.54,411.25 L 573.54,411.08 C 573.54,408.54 571.8,406.55 567.91,406.55 C 563.73,406.55 561.93,409.39 560.99,413.62 C 560.84,414.27 560.79,414.47 560.29,414.47 C 559.65,414.47 559.65,414.12 559.65,413.22 L 559.65,406.65 C 559.65,405.8 559.65,405.45 560.19,405.45 C 560.44,405.45 560.49,405.5 561.44,406.45 C 561.53,406.55 561.53,406.65 562.43,407.59 C 564.62,405.5 566.87,405.45 567.91,405.45 C 573.64,405.45 575.93,408.79 575.93,412.38 C 575.93,415.02 574.44,416.51 573.84,417.11 C 572.2,418.7 570.25,419.1 568.16,419.5 C 565.37,420.05 562.03,420.7 562.03,423.59 C 562.03,425.33 563.33,427.37 567.61,427.37 C 573.09,427.37 573.34,422.89 573.44,421.34 C 573.49,420.89 573.94,420.89 574.04,420.89 C 574.69,420.89 574.69,421.14 574.69,422.09 L 574.69,427.12 C 574.69,427.97 574.69,428.32 574.14,428.32 C 573.89,428.32 573.79,428.32 573.15,427.72 C 572.99,427.52 572.5,427.07 572.3,426.92 C 570.4,428.32 568.36,428.32 567.61,428.32 C 561.53,428.32 559.65,424.98 559.65,422.19 C 559.65,420.45 560.44,419.05 561.78,417.96 C 563.38,416.66 564.77,416.36 568.36,415.66 z"
         id="path4867" /><path
         style="fill:#000000;stroke-width:0"
         d="M 589.04,418.65 L 589.14,418.92 L 589.23,419.17 L 589.34,419.42 L 589.45,419.66 L 589.56,419.89 L 589.67,420.12 L 589.79,420.34 L 589.92,420.55 L 590.05,420.75 L 590.18,420.94 L 590.31,421.13 L 590.45,421.31 L 590.73,421.66 L 591.02,421.97 L 591.32,422.26 L 591.63,422.53 L 591.94,422.78 L 592.26,423 L 592.57,423.2 L 592.89,423.38 L 593.21,423.55 L 593.52,423.69 L 593.84,423.82 L 594.14,423.93 L 594.44,424.03 L 594.73,424.11 L 595.01,424.18 L 595.27,424.24 L 595.53,424.29 L 595.77,424.33 L 595.99,424.36 L 596.19,424.39 L 596.38,424.41 L 596.54,424.42 L 596.69,424.42 L 596.8,424.43 L 596.9,424.43 L 596.96,424.43 C 604.48,424.43 605.03,415.71 605.03,411.78 C 605.03,408.74 604.78,407.89 604.43,406.9 C 603.34,403.26 601.84,397.48 601.84,396.19 C 601.84,395.64 602.09,395.29 602.49,395.29 C 603.14,395.29 603.54,396.39 604.09,398.28 C 605.23,402.46 605.73,405.3 605.93,406.85 C 606.03,407.5 606.13,408.14 606.33,408.79 C 607.92,413.72 611.11,421.14 613.1,425.08 C 613.45,425.68 614.05,426.77 614.05,426.97 C 614.05,427.47 613.55,427.47 613.45,427.47 C 613.3,427.47 613,427.47 612.85,427.12 C 610.26,422.39 608.27,417.41 606.28,412.38 C 606.23,413.92 606.18,417.71 604.23,422.54 C 603.04,425.58 601.05,428.02 597.61,428.02 C 591.38,428.02 587.9,420.45 587.9,418.9 C 587.9,418.4 588.34,418.4 588.84,418.4 L 589.04,418.65 z"
         id="path4869" /></g>  </g>
  <g
     id="g4905"
     transform="matrix(0.69415,0,0,0.69415,-9.1357824,13.376116)">
    <g
       word-spacing="normal"
       letter-spacing="normal"
       font-size-adjust="none"
       font-stretch="normal"
       font-weight="normal"
       font-variant="normal"
       font-style="normal"
       fill-rule="even-odd"
       stroke-miterlimit="10.433"
       xml:space="preserve"
       transform="matrix(0.3828571,0,0,-0.3828571,-67,326.25)"
       id="g4907"
       style="font-style:normal;font-variant:normal;font-weight:normal;font-stretch:normal;letter-spacing:normal;word-spacing:normal;text-anchor:start;fill:none;fill-opacity:1;stroke:#000000;stroke-linecap:butt;stroke-linejoin:miter;stroke-miterlimit:10.43299961;stroke-dasharray:none;stroke-dashoffset:0;stroke-opacity:1"><path
         id="path4909"
         d="M 474.58,424.83 L 474.5,425 L 474.41,425.17 L 474.31,425.33 L 474.22,425.49 L 474.12,425.65 L 474.02,425.81 L 473.91,425.96 L 473.8,426.1 L 473.69,426.25 L 473.57,426.38 L 473.45,426.52 L 473.33,426.65 L 473.2,426.77 L 473.07,426.89 L 472.93,427 L 472.79,427.11 L 472.65,427.22 L 472.5,427.31 L 472.35,427.41 L 472.2,427.49 L 472.04,427.57 L 471.87,427.65 L 471.7,427.72 L 471.53,427.78 L 471.36,427.83 L 471.17,427.88 L 470.99,427.92 L 470.8,427.95 L 470.61,427.98 L 470.41,428 L 470.2,428.01 L 470,428.02 L 470.05,426.92 C 473.29,426.92 473.98,422.84 473.98,422.54 C 473.98,422.24 473.88,421.94 473.83,421.69 L 471.34,411.93 C 471.09,411.03 471.09,410.93 470.35,410.09 C 468.16,407.34 466.11,406.55 464.72,406.55 C 462.23,406.55 461.53,409.29 461.53,411.23 C 461.53,413.72 463.12,419.85 464.27,422.14 C 465.81,425.08 468.05,426.92 470.05,426.92 L 470,428.02 C 464.17,428.02 457.99,420.7 457.99,413.42 C 457.99,408.74 460.73,405.45 464.62,405.45 C 465.61,405.45 468.11,405.65 471.09,409.19 C 471.49,407.1 473.23,405.45 475.62,405.45 C 477.37,405.45 478.52,406.6 479.31,408.19 C 480.16,409.98 480.81,413.02 480.81,413.12 C 480.81,413.62 480.36,413.62 480.21,413.62 C 479.71,413.62 479.66,413.42 479.51,412.73 C 478.66,409.49 477.77,406.55 475.73,406.55 C 474.38,406.55 474.23,407.84 474.23,408.84 C 474.23,409.93 474.33,410.33 474.88,412.53 C 475.43,414.62 475.53,415.12 475.98,417.01 C 476.82,420.2 477.02,421.14 477.77,423.98 C 478.12,425.38 478.12,425.48 478.12,425.68 C 478.12,426.52 477.52,427.02 476.67,427.02 C 475.48,427.02 474.73,425.93 474.58,424.83 z"
         style="fill:#000000;stroke-width:0" /></g>  </g>
  <g
     transform="matrix(0.69415,0,0,0.69415,35.038279,-25.257656)"
     id="g4983">
    <g
       style="font-style:normal;font-variant:normal;font-weight:normal;font-stretch:normal;letter-spacing:normal;word-spacing:normal;text-anchor:start;fill:none;fill-opacity:1;stroke:#000000;stroke-linecap:butt;stroke-linejoin:miter;stroke-miterlimit:10.43299961;stroke-dasharray:none;stroke-dashoffset:0;stroke-opacity:1"
       id="g4985"
       transform="matrix(0.3828571,0,0,-0.3828571,-67,326.25)"
       xml:space="preserve"
       stroke-miterlimit="10.433"
       fill-rule="even-odd"
       font-style="normal"
       font-variant="normal"
       font-weight="normal"
       font-stretch="normal"
       font-size-adjust="none"
       letter-spacing="normal"
       word-spacing="normal"><path
         style="fill:#000000;stroke-width:0"
         d="M 467.91,440.02 L 467.91,440.03 L 467.91,440.03 L 467.91,440.04 L 467.91,440.05 L 467.9,440.06 L 467.9,440.07 L 467.9,440.09 L 467.9,440.11 L 467.9,440.13 L 467.89,440.15 L 467.89,440.17 L 467.88,440.19 L 467.87,440.22 L 467.86,440.24 L 467.85,440.27 L 467.84,440.29 L 467.83,440.31 L 467.81,440.34 L 467.79,440.36 L 467.77,440.39 L 467.75,440.41 L 467.74,440.42 L 467.72,440.43 L 467.71,440.44 L 467.7,440.45 L 467.68,440.46 L 467.67,440.47 L 467.65,440.48 L 467.63,440.49 L 467.62,440.5 L 467.6,440.51 L 467.58,440.52 L 467.56,440.52 L 467.54,440.53 L 467.52,440.54 L 467.49,440.54 L 467.47,440.55 L 467.45,440.55 L 467.42,440.56 L 467.4,440.56 L 467.37,440.56 L 467.34,440.57 L 467.32,440.57 L 467.29,440.57 L 467.26,440.57 C 466.11,440.57 462.48,440.17 461.18,440.07 C 460.78,440.02 460.23,439.97 460.23,439.07 C 460.23,438.48 460.68,438.48 461.43,438.48 C 463.82,438.48 463.92,438.13 463.92,437.63 C 463.92,437.28 463.47,435.59 463.22,434.54 L 459.14,418.3 C 458.54,415.81 458.34,415.02 458.34,413.27 C 458.34,408.54 460.98,405.45 464.67,405.45 L 464.67,406.55 C 462.97,406.55 461.33,407.89 461.33,411.58 C 461.33,412.53 461.33,413.47 462.13,416.61 L 463.22,421.19 C 463.52,422.29 463.52,422.39 463.97,422.94 C 466.41,426.18 468.65,426.92 469.95,426.92 C 471.74,426.92 473.09,425.43 473.09,422.24 C 473.09,419.3 471.44,413.57 470.55,411.68 C 468.9,408.34 466.61,406.55 464.67,406.55 L 464.67,405.45 C 470.55,405.45 476.67,412.88 476.67,420.05 C 476.67,424.58 474.03,428.02 470.05,428.02 C 467.76,428.02 465.71,426.57 464.22,425.03 L 467.91,440.02 z"
         id="path4987" /></g>  </g>
  <g
     id="g5067"
     transform="matrix(0.69415,0,0,0.69415,-41.816182,-26.68853)">
    <g
       word-spacing="normal"
       letter-spacing="normal"
       font-size-adjust="none"
       font-stretch="normal"
       font-weight="normal"
       font-variant="normal"
       font-style="normal"
       fill-rule="even-odd"
       stroke-miterlimit="10.433"
       xml:space="preserve"
       transform="matrix(0.3828571,0,0,-0.3828571,-67,326.25)"
       id="g5069"
       style="font-style:normal;font-variant:normal;font-weight:normal;font-stretch:normal;letter-spacing:normal;word-spacing:normal;text-anchor:start;fill:none;fill-opacity:1;stroke:#000000;stroke-linecap:butt;stroke-linejoin:miter;stroke-miterlimit:10.43299961;stroke-dasharray:none;stroke-dashoffset:0;stroke-opacity:1"><path
         id="path5071"
         d="M 475.73,424.93 L 475.58,424.93 L 475.43,424.93 L 475.29,424.93 L 475.15,424.92 L 475.01,424.91 L 474.87,424.89 L 474.8,424.88 L 474.73,424.87 L 474.66,424.86 L 474.59,424.84 L 474.53,424.83 L 474.46,424.81 L 474.39,424.78 L 474.32,424.76 L 474.26,424.73 L 474.19,424.7 L 474.12,424.67 L 474.06,424.63 L 473.99,424.6 L 473.93,424.55 L 473.86,424.51 L 473.8,424.46 L 473.73,424.41 L 473.67,424.35 L 473.6,424.29 L 473.54,424.23 C 472.74,423.48 472.64,422.64 472.64,422.29 C 472.64,421.09 473.54,420.55 474.48,420.55 C 475.93,420.55 477.27,421.74 477.27,423.73 C 477.27,426.18 474.93,428.02 471.39,428.02 C 464.67,428.02 458.04,420.89 458.04,413.87 C 458.04,409.39 460.93,405.45 466.11,405.45 C 473.23,405.45 477.42,410.73 477.42,411.33 C 477.42,411.63 477.12,411.98 476.82,411.98 C 476.57,411.98 476.47,411.88 476.18,411.48 C 472.24,406.55 466.81,406.55 466.21,406.55 C 463.07,406.55 461.73,408.99 461.73,411.98 C 461.73,414.02 462.73,418.85 464.42,421.94 C 465.96,424.78 468.7,426.92 471.44,426.92 C 473.14,426.92 475.03,426.27 475.73,424.93 z"
         style="fill:#000000;stroke-width:0" /></g>  </g>
  <g
     transform="matrix(0.69415,0,0,0.69415,30.616658,-6.5218308)"
     id="g5157">
    <g
       style="font-style:normal;font-variant:normal;font-weight:normal;font-stretch:normal;letter-spacing:normal;word-spacing:normal;text-anchor:start;fill:none;fill-opacity:1;stroke:#000000;stroke-linecap:butt;stroke-linejoin:miter;stroke-miterlimit:10.43299961;stroke-dasharray:none;stroke-dashoffset:0;stroke-opacity:1"
       id="g5159"
       transform="matrix(0.3828571,0,0,-0.3828571,-67,326.25)"
       xml:space="preserve"
       stroke-miterlimit="10.433"
       fill-rule="even-odd"
       font-style="normal"
       font-variant="normal"
       font-weight="normal"
       font-stretch="normal"
       font-size-adjust="none"
       letter-spacing="normal"
       word-spacing="normal"><path
         style="fill:#000000;stroke-width:0"
         d="M 458.04,418.65 L 458.14,418.92 L 458.23,419.17 L 458.34,419.42 L 458.45,419.66 L 458.56,419.89 L 458.67,420.12 L 458.79,420.34 L 458.92,420.55 L 459.05,420.75 L 459.18,420.94 L 459.31,421.13 L 459.45,421.31 L 459.73,421.66 L 460.02,421.97 L 460.32,422.26 L 460.63,422.53 L 460.94,422.78 L 461.26,423 L 461.57,423.2 L 461.89,423.38 L 462.21,423.55 L 462.52,423.69 L 462.84,423.82 L 463.14,423.93 L 463.44,424.03 L 463.73,424.11 L 464.01,424.18 L 464.27,424.24 L 464.53,424.29 L 464.77,424.33 L 464.99,424.36 L 465.19,424.39 L 465.38,424.41 L 465.54,424.42 L 465.69,424.42 L 465.8,424.43 L 465.9,424.43 L 465.96,424.43 C 473.48,424.43 474.03,415.71 474.03,411.78 C 474.03,408.74 473.79,407.89 473.43,406.9 C 472.34,403.26 470.84,397.48 470.84,396.19 C 470.84,395.64 471.09,395.29 471.49,395.29 C 472.14,395.29 472.54,396.39 473.09,398.28 C 474.23,402.46 474.73,405.3 474.93,406.85 C 475.03,407.5 475.13,408.14 475.33,408.79 C 476.92,413.72 480.11,421.14 482.1,425.08 C 482.45,425.68 483.05,426.77 483.05,426.97 C 483.05,427.47 482.55,427.47 482.45,427.47 C 482.3,427.47 482,427.47 481.85,427.12 C 479.26,422.39 477.27,417.41 475.28,412.38 C 475.23,413.92 475.18,417.71 473.23,422.54 C 472.04,425.58 470.05,428.02 466.61,428.02 C 460.38,428.02 456.9,420.45 456.9,418.9 C 456.9,418.4 457.34,418.4 457.84,418.4 L 458.04,418.65 z"
         id="path5161" /></g>  </g>
  <g
     id="g5253"
     transform="matrix(0.69415,0,0,0.69415,-6.4108291,75.60154)">
    <g
       word-spacing="normal"
       letter-spacing="normal"
       font-size-adjust="none"
       font-stretch="normal"
       font-weight="normal"
       font-variant="normal"
       font-style="normal"
       fill-rule="even-odd"
       stroke-miterlimit="10.433"
       xml:space="preserve"
       transform="matrix(0.3828571,0,0,-0.3828571,-67,326.25)"
       id="g5255"
       style="font-style:normal;font-variant:normal;font-weight:normal;font-stretch:normal;letter-spacing:normal;word-spacing:normal;text-anchor:start;fill:none;fill-opacity:1;stroke:#000000;stroke-linecap:butt;stroke-linejoin:miter;stroke-miterlimit:10.43299961;stroke-dasharray:none;stroke-dashoffset:0;stroke-opacity:1"><path
         id="path5257"
         d="M 474.58,424.83 L 474.5,425 L 474.41,425.17 L 474.31,425.33 L 474.22,425.49 L 474.12,425.65 L 474.02,425.81 L 473.91,425.96 L 473.8,426.1 L 473.69,426.25 L 473.57,426.38 L 473.45,426.52 L 473.33,426.65 L 473.2,426.77 L 473.07,426.89 L 472.93,427 L 472.79,427.11 L 472.65,427.22 L 472.5,427.31 L 472.35,427.41 L 472.2,427.49 L 472.04,427.57 L 471.87,427.65 L 471.7,427.72 L 471.53,427.78 L 471.36,427.83 L 471.17,427.88 L 470.99,427.92 L 470.8,427.95 L 470.61,427.98 L 470.41,428 L 470.2,428.01 L 470,428.02 L 470.05,426.92 C 473.29,426.92 473.98,422.84 473.98,422.54 C 473.98,422.24 473.88,421.94 473.83,421.69 L 471.34,411.93 C 471.09,411.03 471.09,410.93 470.35,410.09 C 468.16,407.34 466.11,406.55 464.72,406.55 C 462.23,406.55 461.53,409.29 461.53,411.23 C 461.53,413.72 463.12,419.85 464.27,422.14 C 465.81,425.08 468.05,426.92 470.05,426.92 L 470,428.02 C 464.17,428.02 457.99,420.7 457.99,413.42 C 457.99,408.74 460.73,405.45 464.62,405.45 C 465.61,405.45 468.11,405.65 471.09,409.19 C 471.49,407.1 473.23,405.45 475.62,405.45 C 477.37,405.45 478.52,406.6 479.31,408.19 C 480.16,409.98 480.81,413.02 480.81,413.12 C 480.81,413.62 480.36,413.62 480.21,413.62 C 479.71,413.62 479.66,413.42 479.51,412.73 C 478.66,409.49 477.77,406.55 475.73,406.55 C 474.38,406.55 474.23,407.84 474.23,408.84 C 474.23,409.93 474.33,410.33 474.88,412.53 C 475.43,414.62 475.53,415.12 475.98,417.01 C 476.82,420.2 477.02,421.14 477.77,423.98 C 478.12,425.38 478.12,425.48 478.12,425.68 C 478.12,426.52 477.52,427.02 476.67,427.02 C 475.48,427.02 474.73,425.93 474.58,424.83 z"
         style="fill:#000000;stroke-width:0" /><path
         id="path5259"
         d="M 499.61,430.35 L 498.42,430.35 C 498.32,429.58 497.97,427.52 497.52,427.17 C 497.24,426.96 494.55,426.96 494.07,426.96 L 487.65,426.96 C 491.31,430.21 492.53,431.18 494.62,432.82 C 497.2,434.88 499.61,437.04 499.61,440.36 C 499.61,444.57 495.91,447.15 491.45,447.15 C 487.12,447.15 484.2,444.12 484.2,440.91 C 484.2,439.13 485.7,438.96 486.04,438.96 C 486.88,438.96 487.89,439.55 487.89,440.81 C 487.89,441.43 487.65,442.66 485.84,442.66 C 486.92,445.13 489.29,445.9 490.93,445.9 C 494.41,445.9 496.23,443.18 496.23,440.36 C 496.23,437.32 494.07,434.91 492.95,433.66 L 484.55,425.36 C 484.2,425.05 484.2,424.98 484.2,424 L 498.56,424 L 499.61,430.35 z"
         style="fill:#000000;stroke-width:0" /></g>  </g>
  <g
     transform="matrix(0.69415,0,0,0.69415,53.41389,-54.337852)"
     id="g5359">
    <g
       style="font-style:normal;font-variant:normal;font-weight:normal;font-stretch:normal;letter-spacing:normal;word-spacing:normal;text-anchor:start;fill:none;fill-opacity:1;stroke:#000000;stroke-linecap:butt;stroke-linejoin:miter;stroke-miterlimit:10.43299961;stroke-dasharray:none;stroke-dashoffset:0;stroke-opacity:1"
       id="g5361"
       transform="matrix(0.3828571,0,0,-0.3828571,-67,326.25)"
       xml:space="preserve"
       stroke-miterlimit="10.433"
       fill-rule="even-odd"
       font-style="normal"
       font-variant="normal"
       font-weight="normal"
       font-stretch="normal"
       font-size-adjust="none"
       letter-spacing="normal"
       word-spacing="normal"><path
         style="fill:#000000;stroke-width:0"
         d="M 467.91,440.02 L 467.91,440.03 L 467.91,440.03 L 467.91,440.04 L 467.91,440.05 L 467.9,440.06 L 467.9,440.07 L 467.9,440.09 L 467.9,440.11 L 467.9,440.13 L 467.89,440.15 L 467.89,440.17 L 467.88,440.19 L 467.87,440.22 L 467.86,440.24 L 467.85,440.27 L 467.84,440.29 L 467.83,440.31 L 467.81,440.34 L 467.79,440.36 L 467.77,440.39 L 467.75,440.41 L 467.74,440.42 L 467.72,440.43 L 467.71,440.44 L 467.7,440.45 L 467.68,440.46 L 467.67,440.47 L 467.65,440.48 L 467.63,440.49 L 467.62,440.5 L 467.6,440.51 L 467.58,440.52 L 467.56,440.52 L 467.54,440.53 L 467.52,440.54 L 467.49,440.54 L 467.47,440.55 L 467.45,440.55 L 467.42,440.56 L 467.4,440.56 L 467.37,440.56 L 467.34,440.57 L 467.32,440.57 L 467.29,440.57 L 467.26,440.57 C 466.11,440.57 462.48,440.17 461.18,440.07 C 460.78,440.02 460.23,439.97 460.23,439.07 C 460.23,438.48 460.68,438.48 461.43,438.48 C 463.82,438.48 463.92,438.13 463.92,437.63 C 463.92,437.28 463.47,435.59 463.22,434.54 L 459.14,418.3 C 458.54,415.81 458.34,415.02 458.34,413.27 C 458.34,408.54 460.98,405.45 464.67,405.45 L 464.67,406.55 C 462.97,406.55 461.33,407.89 461.33,411.58 C 461.33,412.53 461.33,413.47 462.13,416.61 L 463.22,421.19 C 463.52,422.29 463.52,422.39 463.97,422.94 C 466.41,426.18 468.65,426.92 469.95,426.92 C 471.74,426.92 473.09,425.43 473.09,422.24 C 473.09,419.3 471.44,413.57 470.55,411.68 C 468.9,408.34 466.61,406.55 464.67,406.55 L 464.67,405.45 C 470.55,405.45 476.67,412.88 476.67,420.05 C 476.67,424.58 474.03,428.02 470.05,428.02 C 467.76,428.02 465.71,426.57 464.22,425.03 L 467.91,440.02 z"
         id="path5363" /><path
         style="fill:#000000;stroke-width:0"
         d="M 494.61,430.35 L 493.42,430.35 C 493.32,429.58 492.97,427.52 492.52,427.17 C 492.24,426.96 489.55,426.96 489.07,426.96 L 482.65,426.96 C 486.31,430.21 487.53,431.18 489.62,432.82 C 492.2,434.88 494.61,437.04 494.61,440.36 C 494.61,444.57 490.91,447.15 486.45,447.15 C 482.12,447.15 479.2,444.12 479.2,440.91 C 479.2,439.13 480.7,438.96 481.04,438.96 C 481.88,438.96 482.89,439.55 482.89,440.81 C 482.89,441.43 482.65,442.66 480.84,442.66 C 481.92,445.13 484.29,445.9 485.93,445.9 C 489.41,445.9 491.23,443.18 491.23,440.36 C 491.23,437.32 489.07,434.91 487.95,433.66 L 479.55,425.36 C 479.2,425.05 479.2,424.98 479.2,424 L 493.56,424 L 494.61,430.35 z"
         id="path5365" /></g>  </g>
  <g
     id="g5473"
     transform="matrix(0.69415,0,0,0.69415,193.62258,15.50457)">
    <g
       word-spacing="normal"
       letter-spacing="normal"
       font-size-adjust="none"
       font-stretch="normal"
       font-weight="normal"
       font-variant="normal"
       font-style="normal"
       fill-rule="even-odd"
       stroke-miterlimit="10.433"
       xml:space="preserve"
       transform="matrix(0.3828571,0,0,-0.3828571,-67,326.25)"
       id="g5475"
       style="font-style:normal;font-variant:normal;font-weight:normal;font-stretch:normal;letter-spacing:normal;word-spacing:normal;text-anchor:start;fill:none;fill-opacity:1;stroke:#000000;stroke-linecap:butt;stroke-linejoin:miter;stroke-miterlimit:10.43299961;stroke-dasharray:none;stroke-dashoffset:0;stroke-opacity:1"><path
         id="path5477"
         d="M 475.73,424.93 L 475.58,424.93 L 475.43,424.93 L 475.29,424.93 L 475.15,424.92 L 475.01,424.91 L 474.87,424.89 L 474.8,424.88 L 474.73,424.87 L 474.66,424.86 L 474.59,424.84 L 474.53,424.83 L 474.46,424.81 L 474.39,424.78 L 474.32,424.76 L 474.26,424.73 L 474.19,424.7 L 474.12,424.67 L 474.06,424.63 L 473.99,424.6 L 473.93,424.55 L 473.86,424.51 L 473.8,424.46 L 473.73,424.41 L 473.67,424.35 L 473.6,424.29 L 473.54,424.23 C 472.74,423.48 472.64,422.64 472.64,422.29 C 472.64,421.09 473.54,420.55 474.48,420.55 C 475.93,420.55 477.27,421.74 477.27,423.73 C 477.27,426.18 474.93,428.02 471.39,428.02 C 464.67,428.02 458.04,420.89 458.04,413.87 C 458.04,409.39 460.93,405.45 466.11,405.45 C 473.23,405.45 477.42,410.73 477.42,411.33 C 477.42,411.63 477.12,411.98 476.82,411.98 C 476.57,411.98 476.47,411.88 476.18,411.48 C 472.24,406.55 466.81,406.55 466.21,406.55 C 463.07,406.55 461.73,408.99 461.73,411.98 C 461.73,414.02 462.73,418.85 464.42,421.94 C 465.96,424.78 468.7,426.92 471.44,426.92 C 473.14,426.92 475.03,426.27 475.73,424.93 z"
         style="fill:#000000;stroke-width:0" /><path
         id="path5479"
         d="M 494.61,430.35 L 493.42,430.35 C 493.32,429.58 492.97,427.52 492.52,427.17 C 492.24,426.96 489.55,426.96 489.07,426.96 L 482.65,426.96 C 486.31,430.21 487.53,431.18 489.62,432.82 C 492.2,434.88 494.61,437.04 494.61,440.36 C 494.61,444.57 490.91,447.15 486.45,447.15 C 482.12,447.15 479.2,444.12 479.2,440.91 C 479.2,439.13 480.7,438.96 481.04,438.96 C 481.88,438.96 482.89,439.55 482.89,440.81 C 482.89,441.43 482.65,442.66 480.84,442.66 C 481.92,445.13 484.29,445.9 485.93,445.9 C 489.41,445.9 491.23,443.18 491.23,440.36 C 491.23,437.32 489.07,434.91 487.95,433.66 L 479.55,425.36 C 479.2,425.05 479.2,424.98 479.2,424 L 493.56,424 L 494.61,430.35 z"
         style="fill:#000000;stroke-width:0" /></g>  </g>
  <path
     style="fill:none;fill-rule:evenodd;stroke:#000000;stroke-width:1px;stroke-linecap:butt;stroke-linejoin:miter;stroke-opacity:1"
     d="M 121.42378,104.89767 C 118.43124,109.05398 116.85184,114.54031 116.68559,119.52789"
     id="path5537" />
</svg>
