<?xml version="1.0" encoding="UTF-8" standalone="no"?>
<!-- Created with Inkscape (http://www.inkscape.org/) -->
<svg xmlns:dc="http://purl.org/dc/elements/1.1/" xmlns:cc="http://creativecommons.org/ns#" xmlns:rdf="http://www.w3.org/1999/02/22-rdf-syntax-ns#" xmlns:svg="http://www.w3.org/2000/svg" xmlns="http://www.w3.org/2000/svg" xmlns:xlink="http://www.w3.org/1999/xlink" version="1.1" width="589.85187" height="299.68445" id="svg2">
  <title id="title6084">Probability Space</title>
  <defs id="defs4">
    <marker refX="0" refY="0" orient="auto" id="Arrow2Mend" style="overflow:visible">
      <path d="M 8.7185878,4.0337352 -2.2072895,0.01601326 8.7185884,-4.0017078 c -1.7454984,2.3720609 -1.7354408,5.6174519 -6e-7,8.035443 z" transform="scale(-0.6,-0.6)" id="path4413" style="fill-rule:evenodd;stroke-width:0.625;stroke-linejoin:round"/>
    </marker>
    <marker refX="0" refY="0" orient="auto" id="Arrow2Lend" style="overflow:visible">
      <path d="M 8.7185878,4.0337352 -2.2072895,0.01601326 8.7185884,-4.0017078 c -1.7454984,2.3720609 -1.7354408,5.6174519 -6e-7,8.035443 z" transform="matrix(-1.1,0,0,-1.1,-1.1,0)" id="path4407" style="fill-rule:evenodd;stroke-width:0.625;stroke-linejoin:round"/>
    </marker>
    <marker refX="0" refY="0" orient="auto" id="Arrow1Lend" style="overflow:visible">
      <path d="M 0,0 5,-5 -12.5,0 5,5 0,0 z" transform="matrix(-0.8,0,0,-0.8,-10,0)" id="path4389" style="fill-rule:evenodd;stroke:#000000;stroke-width:1pt"/>
    </marker>
    <linearGradient id="linearGradient4354">
      <stop id="stop4356" style="stop-color:#000000;stop-opacity:1" offset="0"/>
      <stop id="stop4358" style="stop-color:#000000;stop-opacity:0" offset="1"/>
    </linearGradient>
    <linearGradient x1="528.91589" y1="432.22952" x2="522.55194" y2="558.80164" id="linearGradient4360" xlink:href="#linearGradient4354" gradientUnits="userSpaceOnUse"/>
    <marker refX="0" refY="0" orient="auto" id="Arrow2MendC" style="overflow:visible">
      <path d="M 8.7185878,4.0337352 -2.2072895,0.01601326 8.7185884,-4.0017078 c -1.7454984,2.3720609 -1.7354408,5.6174519 -6e-7,8.035443 z" transform="scale(-0.6,-0.6)" id="path5718" style="fill:#bc2122;fill-rule:evenodd;stroke:#bc2122;stroke-width:0.625;stroke-linejoin:round"/>
    </marker>
    <marker refX="0" refY="0" orient="auto" id="Arrow2MendQ" style="overflow:visible">
      <path d="M 8.7185878,4.0337352 -2.2072895,0.01601326 8.7185884,-4.0017078 c -1.7454984,2.3720609 -1.7354408,5.6174519 -6e-7,8.035443 z" transform="scale(-0.6,-0.6)" id="path5845" style="fill:#bc2122;fill-rule:evenodd;stroke:#bc2122;stroke-width:0.625;stroke-linejoin:round"/>
    </marker>
    <marker refX="0" refY="0" orient="auto" id="Arrow2MendS" style="overflow:visible">
      <path d="M 8.7185878,4.0337352 -2.2072895,0.01601326 8.7185884,-4.0017078 c -1.7454984,2.3720609 -1.7354408,5.6174519 -6e-7,8.035443 z" transform="scale(-0.6,-0.6)" id="path5848" style="fill:#bc2122;fill-rule:evenodd;stroke:#bc2122;stroke-width:0.625;stroke-linejoin:round"/>
    </marker>
    <marker refX="0" refY="0" orient="auto" id="Arrow2Mendw" style="overflow:visible">
      <path d="M 8.7185878,4.0337352 -2.2072895,0.01601326 8.7185884,-4.0017078 c -1.7454984,2.3720609 -1.7354408,5.6174519 -6e-7,8.035443 z" transform="scale(-0.6,-0.6)" id="path5851" style="fill:#bc2122;fill-rule:evenodd;stroke:#bc2122;stroke-width:0.625;stroke-linejoin:round"/>
    </marker>
    <marker refX="0" refY="0" orient="auto" id="Arrow2MendD" style="overflow:visible">
      <path d="M 8.7185878,4.0337352 -2.2072895,0.01601326 8.7185884,-4.0017078 c -1.7454984,2.3720609 -1.7354408,5.6174519 -6e-7,8.035443 z" transform="scale(-0.6,-0.6)" id="path5854" style="fill:#bc2122;fill-rule:evenodd;stroke:#bc2122;stroke-width:0.625;stroke-linejoin:round"/>
    </marker>
    <marker refX="0" refY="0" orient="auto" id="Arrow2MendT" style="overflow:visible">
      <path d="M 8.7185878,4.0337352 -2.2072895,0.01601326 8.7185884,-4.0017078 c -1.7454984,2.3720609 -1.7354408,5.6174519 -6e-7,8.035443 z" transform="scale(-0.6,-0.6)" id="path5857" style="fill:#bc2122;fill-rule:evenodd;stroke:#bc2122;stroke-width:0.625;stroke-linejoin:round"/>
    </marker>
    <marker refX="0" refY="0" orient="auto" id="Arrow2MendQo" style="overflow:visible">
      <path d="M 8.7185878,4.0337352 -2.2072895,0.01601326 8.7185884,-4.0017078 c -1.7454984,2.3720609 -1.7354408,5.6174519 -6e-7,8.035443 z" transform="scale(-0.6,-0.6)" id="path5860" style="fill:#bc2122;fill-rule:evenodd;stroke:#bc2122;stroke-width:0.625;stroke-linejoin:round"/>
    </marker>
    <marker refX="0" refY="0" orient="auto" id="Arrow2MendM" style="overflow:visible">
      <path d="M 8.7185878,4.0337352 -2.2072895,0.01601326 8.7185884,-4.0017078 c -1.7454984,2.3720609 -1.7354408,5.6174519 -6e-7,8.035443 z" transform="scale(-0.6,-0.6)" id="path5863" style="fill:#bc2122;fill-rule:evenodd;stroke:#bc2122;stroke-width:0.625;stroke-linejoin:round"/>
    </marker>
    <linearGradient x1="528.91589" y1="432.22952" x2="522.55194" y2="558.80164" id="linearGradient6086" xlink:href="#linearGradient4354" gradientUnits="userSpaceOnUse"/>
    <linearGradient x1="528.91589" y1="432.22952" x2="522.55194" y2="558.80164" id="linearGradient6147" xlink:href="#linearGradient4354" gradientUnits="userSpaceOnUse"/>
    <marker refX="0" refY="0" orient="auto" id="Arrow2MendQp" style="overflow:visible">
      <path d="M 8.7185878,4.0337352 -2.2072895,0.01601326 8.7185884,-4.0017078 c -1.7454984,2.3720609 -1.7354408,5.6174519 -6e-7,8.035443 z" transform="scale(-0.6,-0.6)" id="path6391" style="fill:#ef2929;fill-rule:evenodd;stroke:#ef2929;stroke-width:0.625;stroke-linejoin:round"/>
    </marker>
    <marker refX="0" refY="0" orient="auto" id="Arrow2MendSy" style="overflow:visible">
      <path d="M 8.7185878,4.0337352 -2.2072895,0.01601326 8.7185884,-4.0017078 c -1.7454984,2.3720609 -1.7354408,5.6174519 -6e-7,8.035443 z" transform="scale(-0.6,-0.6)" id="path6394" style="fill:#ef2929;fill-rule:evenodd;stroke:#ef2929;stroke-width:0.625;stroke-linejoin:round"/>
    </marker>
    <marker refX="0" refY="0" orient="auto" id="Arrow2MendwM" style="overflow:visible">
      <path d="M 8.7185878,4.0337352 -2.2072895,0.01601326 8.7185884,-4.0017078 c -1.7454984,2.3720609 -1.7354408,5.6174519 -6e-7,8.035443 z" transform="scale(-0.6,-0.6)" id="path6397" style="fill:#ef2929;fill-rule:evenodd;stroke:#ef2929;stroke-width:0.625;stroke-linejoin:round"/>
    </marker>
    <marker refX="0" refY="0" orient="auto" id="Arrow2MendDz" style="overflow:visible">
      <path d="M 8.7185878,4.0337352 -2.2072895,0.01601326 8.7185884,-4.0017078 c -1.7454984,2.3720609 -1.7354408,5.6174519 -6e-7,8.035443 z" transform="scale(-0.6,-0.6)" id="path6400" style="fill:#ef2929;fill-rule:evenodd;stroke:#ef2929;stroke-width:0.625;stroke-linejoin:round"/>
    </marker>
    <marker refX="0" refY="0" orient="auto" id="Arrow2MendTH" style="overflow:visible">
      <path d="M 8.7185878,4.0337352 -2.2072895,0.01601326 8.7185884,-4.0017078 c -1.7454984,2.3720609 -1.7354408,5.6174519 -6e-7,8.035443 z" transform="scale(-0.6,-0.6)" id="path6403" style="fill:#ef2929;fill-rule:evenodd;stroke:#ef2929;stroke-width:0.625;stroke-linejoin:round"/>
    </marker>
    <marker refX="0" refY="0" orient="auto" id="Arrow2MendQoN" style="overflow:visible">
      <path d="M 8.7185878,4.0337352 -2.2072895,0.01601326 8.7185884,-4.0017078 c -1.7454984,2.3720609 -1.7354408,5.6174519 -6e-7,8.035443 z" transform="scale(-0.6,-0.6)" id="path6406" style="fill:#ef2929;fill-rule:evenodd;stroke:#ef2929;stroke-width:0.625;stroke-linejoin:round"/>
    </marker>
    <marker refX="0" refY="0" orient="auto" id="Arrow2MendCo" style="overflow:visible">
      <path d="M 8.7185878,4.0337352 -2.2072895,0.01601326 8.7185884,-4.0017078 c -1.7454984,2.3720609 -1.7354408,5.6174519 -6e-7,8.035443 z" transform="scale(-0.6,-0.6)" id="path6409" style="fill:#ef2929;fill-rule:evenodd;stroke:#ef2929;stroke-width:0.625;stroke-linejoin:round"/>
    </marker>
    <marker refX="0" refY="0" orient="auto" id="Arrow2MendMk" style="overflow:visible">
      <path d="M 8.7185878,4.0337352 -2.2072895,0.01601326 8.7185884,-4.0017078 c -1.7454984,2.3720609 -1.7354408,5.6174519 -6e-7,8.035443 z" transform="scale(-0.6,-0.6)" id="path6412" style="fill:#ef2929;fill-rule:evenodd;stroke:#ef2929;stroke-width:0.625;stroke-linejoin:round"/>
    </marker>
  </defs>
  <metadata id="metadata7">
    <rdf:RDF>
      <cc:Work rdf:about="">
        <dc:format>image/svg+xml</dc:format>
        <dc:type rdf:resource="http://purl.org/dc/dcmitype/StillImage"/>
        <dc:title>Probability Space</dc:title>
        <dc:date>2014-11-10</dc:date>
        <dc:creator>
          <cc:Agent>
            <dc:title>Thomas Geier</dc:title>
          </cc:Agent>
        </dc:creator>
        <dc:subject>
          <rdf:Bag>
            <rdf:li>probability</rdf:li>
            <rdf:li>distribution</rdf:li>
            <rdf:li>probability space</rdf:li>
          </rdf:Bag>
        </dc:subject>
        <dc:description>Redesign of the Wikipedia image used to illustrate probability spaces.</dc:description>
        <cc:license rdf:resource="http://creativecommons.org/licenses/publicdomain/"/>
      </cc:Work>
      <cc:License rdf:about="http://creativecommons.org/licenses/publicdomain/">
        <cc:permits rdf:resource="http://creativecommons.org/ns#Reproduction"/>
        <cc:permits rdf:resource="http://creativecommons.org/ns#Distribution"/>
        <cc:permits rdf:resource="http://creativecommons.org/ns#DerivativeWorks"/>
      </cc:License>
    </rdf:RDF>
  </metadata>
  <g transform="translate(-101.35128,-306.15331)" id="layer1">
    <path d="m 199.71881,306.58945 0,253.87504 -89.04184,0 0,4.50322 199.54192,0 0,-4.50322 -89.01735,0 0,-253.87504 z" id="rect3077" style="fill:#cccccc;fill-opacity:1;stroke:#000000;stroke-width:0.87227207"/>
    <path d="m 264.7314,534.8115 c 0,0 0,0 0,0 -51.91038,29.97047 -118.28794,12.18466 -148.25841,-39.72573 -29.970477,-51.91038 -12.18467,-118.28794 39.72572,-148.25842" id="path2985" style="fill:#729fcf;stroke:#000000;stroke-width:1.12592947"/>
    <path d="m 210.47863,440.8312 93.97563,-54.25686 c -0.005,-0.008 -0.009,-0.0163 -0.0142,-0.0246 -29.97047,-51.91038 -96.3221,-69.68925 -148.23249,-39.71877 l 54.25686,93.97563 0.0142,0.0246 z" id="path3027" style="fill:#fcaf3e;stroke:#000000;stroke-width:1.12592947"/>
    <path d="m 264.73549,534.80683 c 9.73319,-5.61946 18.26813,-12.50854 25.51088,-20.35245 4.8285,-5.22927 9.07573,-10.88518 12.731,-16.8547 7.31056,-11.93904 12.22381,-25.1637 14.52297,-38.87142 1.14825,-6.8459 1.64989,-13.82086 1.46879,-20.81064 -0.45325,-17.49393 -5.1543,-35.12061 -14.51487,-51.34328 l -93.97563,54.25686 54.25686,93.97563 z" id="path2998" style="fill:#8ae234;stroke:#000000;stroke-width:1.12592947"/>
    <text x="304.30435" y="318.40253" transform="matrix(0.96592583,0.25881905,-0.25881905,0.96592583,0,0)" id="text3034" xml:space="preserve" style="font-size:40px;font-style:normal;font-weight:normal;line-height:125%;letter-spacing:0px;word-spacing:0px;fill:#000000;fill-opacity:1;stroke:none;font-family:Sans"><tspan x="304.30435" y="318.40253" id="tspan3036">1</tspan></text>
    <text x="359.1394" y="-369.77762" transform="matrix(-0.25881905,0.96592583,-0.96592583,-0.25881905,0,0)" id="text3038" xml:space="preserve" style="font-size:40px;font-style:normal;font-weight:normal;line-height:125%;letter-spacing:0px;word-spacing:0px;fill:#000000;fill-opacity:1;stroke:none;font-family:Sans"><tspan x="359.1394" y="-369.77762" id="tspan3040">2</tspan></text>
    <text x="-499.63998" y="-90.549881" transform="matrix(-0.5,-0.86602541,0.86602541,-0.5,0,0)" id="text3042" xml:space="preserve" style="font-size:40px;font-style:normal;font-weight:normal;line-height:125%;letter-spacing:0px;word-spacing:0px;fill:#000000;fill-opacity:1;stroke:none;font-family:Sans"><tspan x="-499.63998" y="-90.549881" id="tspan3044">3</tspan></text>
    <path d="m 233.34524,575.57019 a 5.0507627,5.0507627 0 1 1 -10.10152,0 5.0507627,5.0507627 0 1 1 10.10152,0 z" transform="matrix(-0.25881905,0.96592583,-0.96592583,-0.25881905,825.50465,369.27142)" id="path2987" style="fill:#000000;stroke:#000000;stroke-width:1.00602508"/>
    <path d="m 203.78543,334.27351 6.67431,14.28256 6.67431,-14.28256 0,-21.59853 -13.34862,0 z" id="rect3074" style="fill:#dacf2f;fill-opacity:1;stroke:#000000;stroke-width:0.99955547"/>
    <path d="m 684,445.36218 a 151,77 0 1 1 -302,0 151,77 0 1 1 302,0 z" transform="translate(-10.000015,-15)" id="path5572" style="fill:#fce94f;stroke:#000000;stroke-width:2;stroke-miterlimit:4;stroke-dasharray:none"/>
    <text x="407.10913" y="409.52515" id="text3105" xml:space="preserve" style="font-size:20px;font-style:normal;font-weight:normal;line-height:125%;letter-spacing:0px;word-spacing:0px;fill:#000000;fill-opacity:1;stroke:none;font-family:Sans"><tspan x="407.10913" y="409.52515" id="tspan3107">{}</tspan></text>
    <text x="443" y="426.36218" id="text3109" xml:space="preserve" style="font-size:20px;font-style:normal;font-weight:normal;line-height:125%;letter-spacing:0px;word-spacing:0px;fill:#000000;fill-opacity:1;stroke:none;font-family:Sans"><tspan x="443" y="426.36218" id="tspan3111">{1}</tspan></text>
    <text x="415.65686" y="469.46268" id="text3113" xml:space="preserve" style="font-size:20px;font-style:normal;font-weight:normal;line-height:125%;letter-spacing:0px;word-spacing:0px;fill:#000000;fill-opacity:1;stroke:none;font-family:Sans"><tspan x="415.65686" y="469.46268" id="tspan3115">{2}</tspan></text>
    <text x="472" y="467.36218" id="text3117" xml:space="preserve" style="font-size:20px;font-style:normal;font-weight:normal;line-height:125%;letter-spacing:0px;word-spacing:0px;fill:#000000;fill-opacity:1;stroke:none;font-family:Sans"><tspan x="472" y="467.36218" id="tspan3119">{3}</tspan></text>
    <text x="502.8873" y="434.30835" id="text3121" xml:space="preserve" style="font-size:20px;font-style:normal;font-weight:normal;line-height:125%;letter-spacing:0px;word-spacing:0px;fill:url(#linearGradient6147);fill-opacity:1;stroke:none;font-family:Sans"><tspan x="502.8873" y="434.30835" id="tspan3123" style="fill:url(#linearGradient6147);fill-opacity:1">{1,2}</tspan></text>
    <text x="534.81976" y="475.15256" id="text3125" xml:space="preserve" style="font-size:20px;font-style:normal;font-weight:normal;line-height:125%;letter-spacing:0px;word-spacing:0px;fill:#000000;fill-opacity:1;stroke:none;font-family:Sans"><tspan x="534.81976" y="475.15256" id="tspan3127">{2,3}</tspan></text>
    <text x="581.12134" y="431.63425" id="text3129" xml:space="preserve" style="font-size:20px;font-style:normal;font-weight:normal;line-height:125%;letter-spacing:0px;word-spacing:0px;fill:#000000;fill-opacity:1;stroke:none;font-family:Sans"><tspan x="581.12134" y="431.63425" id="tspan3131">{1,3}</tspan></text>
    <text x="509.84317" y="392.54721" id="text3133" xml:space="preserve" style="font-size:20px;font-style:normal;font-weight:normal;line-height:125%;letter-spacing:0px;word-spacing:0px;fill:#000000;fill-opacity:1;stroke:none;font-family:Sans"><tspan x="509.84317" y="392.54721" id="tspan3135">{1,2,3}</tspan></text>
    <rect width="280.23959" height="4.6391563" x="382.88019" y="559.24237" id="rect3137" style="fill:#cccccc;fill-opacity:1;stroke:#000000;stroke-width:0.76642394"/>
    <g transform="matrix(1.0008557,0,0,0.57989457,-0.44754069,227.53108)" id="g3579" style="stroke-width:2.62524438;stroke-miterlimit:4;stroke-dasharray:none">
      <path d="m 382.99699,571.35917 0,23" id="path3141" style="fill:none;stroke:#000000;stroke-width:2.62524438;stroke-linecap:butt;stroke-linejoin:miter;stroke-miterlimit:4;stroke-opacity:1;stroke-dasharray:none"/>
      <path d="m 663.00301,571.35917 0,23" id="path3559" style="fill:none;stroke:#000000;stroke-width:2.62524438;stroke-linecap:butt;stroke-linejoin:miter;stroke-miterlimit:4;stroke-opacity:1;stroke-dasharray:none"/>
      <path d="m 452.99849,571.35917 0,23" id="path3561" style="fill:none;stroke:#000000;stroke-width:2.62524438;stroke-linecap:butt;stroke-linejoin:miter;stroke-miterlimit:4;stroke-opacity:1;stroke-dasharray:none"/>
      <path d="m 523.00003,571.35917 0,23" id="path3563" style="fill:none;stroke:#000000;stroke-width:2.62524438;stroke-linecap:butt;stroke-linejoin:miter;stroke-miterlimit:4;stroke-opacity:1;stroke-dasharray:none"/>
      <path d="m 593.00149,571.35917 0,23" id="path3565" style="fill:none;stroke:#000000;stroke-width:2.62524438;stroke-linecap:butt;stroke-linejoin:miter;stroke-miterlimit:4;stroke-opacity:1;stroke-dasharray:none"/>
    </g>
    <path d="m 531,440.36218 c -5.38108,21.30021 -6.73873,85.05374 -8,118.5" id="path4366" style="fill:none;stroke:#ef2929;stroke-width:2;stroke-linecap:butt;stroke-linejoin:miter;stroke-miterlimit:4;stroke-opacity:1;stroke-dasharray:none;marker-end:url(#Arrow2MendDz)"/>
    <path d="m 490,473.86218 c 0.28447,13.86585 34.43331,33.94929 33.5,86" id="path4368" style="fill:none;stroke:#ef2929;stroke-width:2;stroke-linecap:butt;stroke-linejoin:miter;stroke-miterlimit:4;stroke-opacity:1;stroke-dasharray:none;marker-end:url(#Arrow2MendQoN)"/>
    <path d="m 461.5,431.86218 c 0.87871,50.40484 -6.1801,82.16865 -9,126.5" id="path4370" style="fill:none;stroke:#ef2929;stroke-width:2;stroke-linecap:butt;stroke-linejoin:miter;stroke-miterlimit:4;stroke-opacity:1;stroke-dasharray:none;marker-end:url(#Arrow2MendSy)"/>
    <path d="m 433.5,474.86218 c 2.0489,24.91425 21.38067,55.20644 19,83.5" id="path4372" style="fill:none;stroke:#ef2929;stroke-width:2;stroke-linecap:butt;stroke-linejoin:miter;stroke-miterlimit:4;stroke-opacity:1;stroke-dasharray:none;marker-end:url(#Arrow2MendQp)"/>
    <path d="m 408.25,411.36218 c -28.04314,18.02812 -24.70664,80.67088 -25.25,146.5" id="path4374" style="fill:none;stroke:#ef2929;stroke-width:2;stroke-linecap:butt;stroke-linejoin:miter;stroke-miterlimit:4;stroke-opacity:1;stroke-dasharray:none;marker-end:url(#Arrow2MendTH)"/>
    <path d="m 562.5,482.86218 c 0.94812,16.34927 31.32915,28.91372 30,75.5" id="path4376" style="fill:none;stroke:#ef2929;stroke-width:2;stroke-linecap:butt;stroke-linejoin:miter;stroke-miterlimit:4;stroke-opacity:1;stroke-dasharray:none;marker-end:url(#Arrow2MendwM)"/>
    <path d="m 609.5,437.86218 c 0.48512,52.43989 -17.5,71.33333 -16.5,119.5" id="path4378" style="fill:none;stroke:#ef2929;stroke-width:2;stroke-linecap:butt;stroke-linejoin:miter;stroke-miterlimit:4;stroke-opacity:1;stroke-dasharray:none;marker-end:url(#Arrow2MendMk)"/>
    <path d="M 587.81802,387.40202 C 663.84508,395.63432 663.14154,495.96328 663,558.36218" id="path4380" style="fill:none;stroke:#ef2929;stroke-width:2;stroke-linecap:butt;stroke-linejoin:miter;stroke-miterlimit:4;stroke-opacity:1;stroke-dasharray:none;marker-end:url(#Arrow2MendCo)"/>
    <g id="g6072">
      <text x="372.64526" y="600.05652" id="text6038" xml:space="preserve" style="font-size:32px;font-style:normal;font-weight:normal;line-height:125%;letter-spacing:0px;word-spacing:0px;fill:#000000;fill-opacity:1;stroke:none;font-family:Sans"><tspan x="372.64526" y="600.05652" id="tspan6040">0</tspan></text>
      <text x="437.18402" y="600.05652" id="text6042" xml:space="preserve" style="font-size:32px;font-style:normal;font-weight:normal;line-height:125%;letter-spacing:0px;word-spacing:0px;fill:#000000;fill-opacity:1;stroke:none;font-family:Sans"><tspan x="437.18402" y="600.05652" id="tspan6044">¼</tspan></text>
      <text x="508.1134" y="600.05652" id="text6046" xml:space="preserve" style="font-size:32px;font-style:normal;font-weight:normal;line-height:125%;letter-spacing:0px;word-spacing:0px;fill:#000000;fill-opacity:1;stroke:none;font-family:Sans"><tspan x="508.1134" y="600.05652" id="tspan6048">½</tspan></text>
      <text x="578.34753" y="600.05652" id="text6050" xml:space="preserve" style="font-size:32px;font-style:normal;font-weight:normal;line-height:125%;letter-spacing:0px;word-spacing:0px;fill:#000000;fill-opacity:1;stroke:none;font-family:Sans"><tspan x="578.34753" y="600.05652" id="tspan6052">¾</tspan></text>
      <text x="654.07379" y="600.50964" id="text6054" xml:space="preserve" style="font-size:32px;font-style:normal;font-weight:normal;line-height:125%;letter-spacing:0px;word-spacing:0px;fill:#000000;fill-opacity:1;stroke:none;font-family:Sans"><tspan x="654.07379" y="600.50964" id="tspan6056">1</tspan></text>
    </g>
    <text x="671" y="516.36218" id="text6058" xml:space="preserve" style="font-size:32px;font-style:normal;font-weight:normal;line-height:125%;letter-spacing:0px;word-spacing:0px;fill:#ef2929;fill-opacity:0.99215686;stroke:#ef2929;font-family:Sans"><tspan x="671" y="516.36218" id="tspan6060">P</tspan></text>
    <text x="376" y="362.86218" id="text6062" xml:space="preserve" style="font-size:32px;font-style:normal;font-weight:normal;line-height:125%;letter-spacing:0px;word-spacing:0px;fill:#000000;fill-opacity:1;stroke:none;font-family:Sans"><tspan x="376" y="362.86218" id="tspan6064">Σ</tspan></text>
    <text x="125.10818" y="600.61902" id="text6066" xml:space="preserve" style="font-size:32px;font-style:normal;font-weight:normal;line-height:125%;letter-spacing:0px;word-spacing:0px;fill:#000000;fill-opacity:1;stroke:none;font-family:Sans"><tspan x="125.10818" y="600.61902" id="tspan6068">Ω={1,2,3}</tspan></text>
    <path d="m 409.5,379.86218 -13.5,-14" id="path6070" style="fill:none;stroke:#000000;stroke-width:2;stroke-linecap:butt;stroke-linejoin:miter;stroke-miterlimit:4;stroke-opacity:1;stroke-dasharray:none"/>
  </g>
</svg>