<?xml version="1.0" encoding="UTF-8" standalone="no"?>
<!-- Created with Serif DrawPlus 11, 0, 3, 23 (Feb 25, 14:12:55) (http://www.serif.com) -->
<svg version="1.1" xmlns="http://www.w3.org/2000/svg" xmlns:xlink="http://www.w3.org/1999/xlink" xmlns:inkscape="http://www.inkscape.org/namespaces/inkscape" width="653.837" height="503.072">
	<g id="selection" transform="matrix(1,0,0,1,15.3227,-204.683)">
		<path id="dp_path068" fill="none" fill-rule="evenodd" stroke="black" stroke-width="0.666667" d="M 97.3093,668.224 L 97.3093,696.301"/>
		<path id="dp_path069" fill="none" fill-rule="evenodd" stroke="black" stroke-width="0.666667" d="M 113.404,668.224 L 118.116,682.263"/>
		<path id="dp_path070" fill="none" fill-rule="evenodd" stroke="black" stroke-width="0.666667" d="M 118.116,682.263 L 113.404,696.301"/>
		<path id="dp_path071" fill="none" fill-rule="evenodd" stroke="black" stroke-width="0.666667" d="M 160.621,682.263 L 173.38,682.263"/>
		<path id="dp_path072" fill="none" fill-rule="evenodd" stroke="black" stroke-width="0.666667" d="M 141.723,659.123 L 141.723,705.404"/>
		<path id="dp_path073" fill="none" fill-rule="evenodd" stroke="black" stroke-width="0.666667" d="M 175.348,659.123 L 181.845,682.263"/>
		<path id="dp_path074" fill="none" fill-rule="evenodd" stroke="black" stroke-width="0.666667" d="M 181.845,682.263 L 175.348,705.404"/>
		<text id="dp_text001" transform="matrix(1.00088,0,0,1,161.933,701.895)" xml:space="preserve" fill="black" font-family="Arial" font-size="19" font-weight="400" x="0" y="0">2  </text>
		<text id="dp_text002" transform="matrix(1.00088,0,0,1,162.41,675.006)" xml:space="preserve" fill="black" font-family="Arial" font-size="19" font-weight="400" x="0" y="0">1  </text>
		<path id="dp_path077" fill="black" fill-rule="evenodd" d="M 150.504,677.249 L 151.409,677.249 L 151.409,681.676 L 155.845,681.676 L 155.845,682.579 L 151.409,682.579 L 151.409,687.007 L 150.504,687.007 L 150.504,682.579 L 146.068,682.579 L 146.068,681.676 L 150.504,681.676 Z "/>
		<path id="dp_path078" fill="black" fill-rule="evenodd" d="M 125.781,678.979 L 135.592,678.979 L 135.592,679.883 L 125.781,679.883 Z M 125.781,681.707 L 135.592,681.707 L 135.592,682.612 L 125.781,682.612 Z M 125.781,684.435 L 135.592,684.435 L 135.592,685.34 L 125.781,685.34 Z "/>
		<path id="dp_path079" fill="black" fill-rule="evenodd" d="M 106.907,672.997 L 106.907,687.259 L 106,687.259 L 106,672.997 C 104.981,673.881 104.193,674.5 103.637,674.853 C 103.081,675.207 102.391,675.549 101.564,675.883 L 101.564,675.139 C 102.459,674.415 103.364,673.513 104.281,672.436 C 105.197,671.359 105.84,670.504 106.205,669.873 L 106.728,669.873 C 107.188,670.689 107.848,671.585 108.704,672.561 C 109.563,673.537 110.441,674.397 111.343,675.139 L 111.343,675.883 C 110.497,675.531 109.784,675.168 109.204,674.797 C 108.621,674.427 107.859,673.827 106.907,672.997 Z "/>
		<path id="dp_path080" fill="none" fill-rule="evenodd" stroke="black" stroke-width="0.666667" d="M 416.055,670.484 L 416.055,698.561"/>
		<path id="dp_path081" fill="none" fill-rule="evenodd" stroke="black" stroke-width="0.666667" d="M 432.152,670.484 L 436.861,684.523"/>
		<path id="dp_path082" fill="none" fill-rule="evenodd" stroke="black" stroke-width="0.666667" d="M 436.861,684.523 L 432.152,698.561"/>
		<path id="dp_path083" fill="none" fill-rule="evenodd" stroke="black" stroke-width="0.666667" d="M 477.877,684.523 L 490.636,684.523"/>
		<path id="dp_path084" fill="none" fill-rule="evenodd" stroke="black" stroke-width="0.666667" d="M 459.277,661.381 L 459.277,707.663"/>
		<path id="dp_path085" fill="none" fill-rule="evenodd" stroke="black" stroke-width="0.666667" d="M 492.603,661.381 L 499.101,684.523"/>
		<path id="dp_path086" fill="none" fill-rule="evenodd" stroke="black" stroke-width="0.666667" d="M 499.101,684.523 L 492.603,707.663"/>
		<text id="dp_text003" transform="matrix(1.00088,0,0,1,479.19,704.155)" xml:space="preserve" fill="black" font-family="Arial" font-size="19" font-weight="400" x="0" y="0">2  </text>
		<text id="dp_text004" transform="matrix(1.00088,0,0,1,479.665,677.265)" xml:space="preserve" fill="black" font-family="Arial" font-size="19" font-weight="400" x="0" y="0">1  </text>
		<path id="dp_path089" fill="black" fill-rule="evenodd" d="M 463.621,683.92 L 473.4,683.92 L 473.4,684.823 L 463.621,684.823 Z "/>
		<path id="dp_path090" fill="black" fill-rule="evenodd" d="M 443.337,681.239 L 453.147,681.239 L 453.147,682.141 L 443.337,682.141 Z M 443.337,683.967 L 453.147,683.967 L 453.147,684.871 L 443.337,684.871 Z M 443.337,686.695 L 453.147,686.695 L 453.147,687.599 L 443.337,687.599 Z "/>
		<path id="dp_path091" fill="black" fill-rule="evenodd" d="M 424.748,686.393 L 424.748,672.132 L 425.655,672.132 L 425.655,686.393 C 426.673,685.513 427.46,684.895 428.016,684.541 C 428.572,684.189 429.263,683.843 430.091,683.508 L 430.091,684.252 C 429.195,684.977 428.289,685.877 427.368,686.955 C 426.448,688.032 425.808,688.887 425.448,689.519 L 424.927,689.519 C 424.46,688.695 423.799,687.796 422.945,686.82 C 422.091,685.845 421.213,684.988 420.312,684.252 L 420.312,683.508 C 421.152,683.861 421.861,684.225 422.445,684.597 C 423.031,684.969 423.797,685.569 424.748,686.393 Z "/>
		<g id="dp_group005">
			<path id="dp_path046" fill="black" fill-rule="evenodd" d="M 125.147,582.14 L 125.148,431.901 L 122.481,431.901 L 122.48,582.14 Z "/>
			<path id="dp_path045" fill="black" fill-rule="evenodd" d="M 121.535,280.453 L 124.201,280.453 L 129.535,280.453 L 122.868,265.056 L 116.201,280.453 Z "/>
			<path id="dp_path006" fill="#00b050" fill-rule="evenodd" fill-opacity="0.501961" stroke="#005c2a" stroke-opacity="0.501961" stroke-width="1.33333" d="M 119.883,488.467 C 120.953,488.451 122.028,488.441 123.107,488.441 C 166.083,488.441 201.949,499.721 216.521,508.221 L 216.517,508.221 L 216.521,508.221 L 122.929,431.057 L 29.736,509.08 C 42.3693,501.964 78.612,489.113 119.883,488.467 Z "/>
			<text id="dp_text005" transform="matrix(1,6.10623e-016,-6.66134e-016,1,110.859,249.997)" xml:space="preserve" fill="black" font-family="Arial" font-size="22" font-weight="400" font-style="italic" x="0" y="0">S  </text>
			<text id="dp_text006" transform="matrix(1,6.66134e-016,-6.66134e-016,1,123.787,255.769)" xml:space="preserve" fill="black" font-family="Arial" font-size="17" font-weight="400" font-style="italic" x="0" y="0">z </text>
			<text id="dp_text007" transform="matrix(1,6.66134e-016,-6.66134e-016,1,132.447,255.769)" xml:space="preserve" fill="black" font-family="Times New Roman" font-size="13" font-weight="400" font-style="italic" x="0" y="0">  </text>
			<text id="dp_text008" transform="matrix(1,6.10623e-016,-6.66134e-016,1,271.998,397.164)" xml:space="preserve" fill="black" font-family="Arial" font-size="22" font-weight="400" font-style="italic" x="0" y="0">S  </text>
			<text id="dp_text009" transform="matrix(1,6.10623e-016,-6.66134e-016,1,284.926,402.936)" xml:space="preserve" fill="black" font-family="Arial" font-size="17" font-weight="400" font-style="italic" x="0" y="0">y </text>
			<text id="dp_text010" transform="matrix(1,6.66134e-016,-6.66134e-016,1,293.586,402.936)" xml:space="preserve" fill="black" font-family="Times New Roman" font-size="13" font-weight="400" font-style="italic" x="0" y="0">  </text>
			<text id="dp_text011" transform="matrix(1,6.10623e-016,-6.66134e-016,1,270.379,481.777)" xml:space="preserve" fill="black" font-family="Arial" font-size="22" font-weight="400" font-style="italic" x="0" y="0">S  </text>
			<text id="dp_text012" transform="matrix(1,6.10623e-016,-6.66134e-016,1,282.307,487.549)" xml:space="preserve" fill="black" font-family="Arial" font-size="17" font-weight="400" font-style="italic" x="0" y="0">x </text>
			<text id="dp_text013" transform="matrix(1,6.66134e-016,-6.66134e-016,1,290.967,487.549)" xml:space="preserve" fill="black" font-family="Times New Roman" font-size="13" font-weight="400" font-style="italic" x="0" y="0">  </text>
			<g id="dp_group016">
				<g id="dp_group033">
					<path id="dp_path035" fill="#00b050" fill-rule="evenodd" d="M 206.816,217.116 L 209.401,218.099 L 214.571,220.061 L 213.016,204.683 L 201.647,215.153 Z "/>
					<path id="dp_path036" fill="#00b050" fill-rule="evenodd" d="M 176.108,305.76 L 209.401,218.099 L 206.817,217.117 L 173.524,304.779 Z "/>
				</g>
				<path id="dp_path047" fill="#21d26d" fill-rule="evenodd" fill-opacity="0.501961" stroke="black" stroke-opacity="0.501961" stroke-width="1.33333" d="M 184,280.575 L 179.571,291.715"/>
				<path id="dp_path048" fill="#00b050" fill-rule="evenodd" fill-opacity="0.501961" stroke="black" stroke-opacity="0.501961" stroke-width="1.33333" d="M 202.113,235.04 C 189.539,230.04 175.291,236.179 170.289,248.752 C 165.288,261.327 171.427,275.575 184.001,280.576 C 196.575,285.577 210.824,279.439 215.824,266.864 C 220.827,254.291 214.687,240.041 202.113,235.04 Z "/>
				<path id="dp_path049" fill="#21d26d" fill-rule="evenodd" fill-opacity="0.501961" stroke="black" stroke-opacity="0.501961" stroke-width="1.33333" d="M 206.543,223.9 L 199.527,241.54"/>
				<g id="dp_group050">
					<path id="dp_path052" fill="black" fill-rule="evenodd" fill-opacity="0.501961" d="M 222.999,264.803 L 223.915,263.832 L 225.744,261.892 L 218.605,259.745 L 221.172,266.743 Z "/>
					<path id="dp_path053" fill="black" fill-rule="evenodd" fill-opacity="0.501961" d="M 172.748,240.825 L 172.128,240.776 L 171.515,240.737 L 170.913,240.705 L 170.325,240.685 L 169.748,240.672 L 169.183,240.669 L 168.632,240.677 L 168.093,240.695 L 167.567,240.72 L 167.055,240.757 L 166.557,240.804 L 166.072,240.86 L 165.605,240.929 L 165.372,240.965 L 165.144,241.005 L 164.924,241.048 L 164.705,241.092 L 164.489,241.14 L 164.277,241.189 L 164.067,241.243 L 163.861,241.3 L 163.665,241.359 L 163.468,241.419 L 163.275,241.484 L 163.085,241.551 L 162.899,241.62 L 162.719,241.692 L 162.541,241.768 L 162.367,241.847 L 162.197,241.928 L 162.032,242.015 L 161.872,242.103 L 161.715,242.193 L 161.563,242.288 L 161.413,242.384 L 161.269,242.487 L 161.133,242.589 L 160.993,242.699 L 160.865,242.809 L 160.74,242.921 L 160.617,243.043 L 160.5,243.165 L 160.389,243.292 L 160.288,243.417 L 160.185,243.552 L 160.089,243.692 L 160.003,243.828 L 159.92,243.968 L 159.841,244.115 L 159.769,244.265 L 159.704,244.42 L 159.645,244.575 L 159.595,244.732 L 159.548,244.893 L 159.509,245.055 L 159.477,245.216 L 159.452,245.38 L 159.432,245.545 L 159.419,245.711 L 159.412,245.879 L 159.412,246.048 L 159.417,246.217 L 159.429,246.387 L 159.447,246.559 L 159.469,246.731 L 159.499,246.904 L 159.533,247.077 L 159.572,247.251 L 159.619,247.425 L 159.669,247.601 L 159.725,247.775 L 159.785,247.949 L 159.852,248.125 L 159.924,248.305 L 160,248.481 L 160.081,248.661 L 160.168,248.839 L 160.257,249.016 L 160.352,249.197 L 160.455,249.38 L 160.559,249.563 L 160.668,249.741 L 160.781,249.924 L 160.9,250.108 L 161.023,250.291 L 161.151,250.475 L 161.283,250.66 L 161.419,250.847 L 161.561,251.033 L 161.856,251.407 L 162.168,251.783 L 162.496,252.161 L 162.843,252.543 L 163.204,252.927 L 163.583,253.312 L 163.977,253.699 L 164.389,254.089 L 164.817,254.481 L 165.257,254.872 L 165.715,255.267 L 166.187,255.661 L 166.675,256.059 L 167.176,256.455 L 167.693,256.855 L 168.224,257.253 L 168.767,257.652 L 169.327,258.053 L 169.897,258.452 L 170.484,258.853 L 171.081,259.251 L 171.693,259.652 L 172.317,260.051 L 172.953,260.449 L 173.603,260.847 L 174.263,261.244 L 174.935,261.639 L 175.62,262.033 L 176.316,262.425 L 177.023,262.816 L 177.74,263.205 L 178.469,263.593 L 179.209,263.979 L 179.96,264.36 L 180.72,264.74 L 181.489,265.117 L 182.268,265.491 L 183.056,265.863 L 183.855,266.231 L 184.66,266.595 L 185.477,266.955 L 186.299,267.311 L 187.133,267.665 L 187.973,268.013 L 188.821,268.357 L 189.672,268.696 L 190.52,269.024 L 191.367,269.345 L 192.209,269.657 L 193.047,269.961 L 193.881,270.255 L 194.712,270.54 L 195.537,270.819 L 196.36,271.085 L 197.175,271.345 L 197.988,271.595 L 198.793,271.84 L 199.595,272.072 L 200.388,272.296 L 201.176,272.511 L 201.955,272.717 L 202.731,272.916 L 203.497,273.104 L 204.256,273.283 L 205.008,273.453 L 205.752,273.615 L 206.488,273.768 L 207.216,273.909 L 207.932,274.044 L 208.643,274.169 L 209.34,274.284 L 210.031,274.391 L 210.711,274.488 L 211.38,274.577 L 212.04,274.656 L 212.689,274.724 L 213.325,274.784 L 213.951,274.835 L 214.564,274.876 L 215.167,274.908 L 215.759,274.929 L 216.339,274.941 L 216.901,274.944 L 217.457,274.937 L 217.997,274.92 L 218.523,274.895 L 219.037,274.859 L 219.539,274.811 L 220.023,274.755 L 220.492,274.689 L 220.727,274.651 L 220.952,274.612 L 221.179,274.569 L 221.396,274.524 L 221.612,274.477 L 221.825,274.427 L 222.032,274.373 L 222.237,274.319 L 222.44,274.259 L 222.635,274.199 L 222.829,274.135 L 223.019,274.067 L 223.207,273.997 L 223.385,273.925 L 223.565,273.848 L 223.74,273.769 L 223.907,273.688 L 224.073,273.604 L 224.236,273.515 L 224.393,273.424 L 224.545,273.329 L 224.693,273.233 L 224.839,273.132 L 224.979,273.027 L 225.115,272.919 L 225.247,272.807 L 225.372,272.691 L 225.492,272.573 L 225.608,272.452 L 225.721,272.327 L 225.828,272.196 L 225.927,272.063 L 226.02,271.928 L 226.112,271.787 L 226.195,271.644 L 226.271,271.499 L 226.344,271.348 L 226.408,271.195 L 226.469,271.033 L 226.521,270.872 L 226.568,270.709 L 226.607,270.543 L 226.637,270.379 L 226.664,270.212 L 226.684,270.036 L 226.696,269.863 L 226.699,269.696 L 226.7,269.521 L 226.692,269.345 L 226.677,269.171 L 226.659,268.995 L 226.632,268.82 L 226.601,268.644 L 226.563,268.464 L 226.52,268.288 L 226.471,268.105 L 226.415,267.924 L 226.355,267.748 L 226.291,267.567 L 226.219,267.384 L 226.143,267.201 L 226.061,267.02 L 225.976,266.836 L 225.884,266.652 L 225.788,266.469 L 225.685,266.281 L 225.579,266.096 L 225.468,265.909 L 225.352,265.723 L 225.231,265.536 L 225.105,265.345 L 224.975,265.157 L 224.839,264.968 L 224.7,264.779 L 224.557,264.588 L 224.408,264.396 L 224.253,264.203 L 224.069,263.979 L 223.913,263.831 L 223.001,264.803 L 223.095,264.889 L 223.217,265.039 L 223.36,265.217 L 223.496,265.396 L 223.632,265.575 L 223.76,265.748 L 223.885,265.923 L 224.003,266.095 L 224.119,266.265 L 224.227,266.436 L 224.331,266.603 L 224.429,266.769 L 224.524,266.935 L 224.613,267.096 L 224.697,267.257 L 224.777,267.419 L 224.852,267.576 L 224.921,267.731 L 224.985,267.884 L 225.044,268.033 L 225.097,268.184 L 225.147,268.335 L 225.192,268.477 L 225.231,268.619 L 225.264,268.76 L 225.293,268.897 L 225.319,269.033 L 225.337,269.168 L 225.352,269.299 L 225.363,269.429 L 225.368,269.552 L 225.369,269.676 L 225.364,269.803 L 225.357,269.921 L 225.345,270.032 L 225.327,270.148 L 225.304,270.264 L 225.277,270.375 L 225.247,270.485 L 225.213,270.593 L 225.172,270.699 L 225.128,270.8 L 225.081,270.899 L 225.029,270.997 L 224.973,271.095 L 224.915,271.188 L 224.849,271.281 L 224.779,271.373 L 224.707,271.461 L 224.628,271.551 L 224.545,271.639 L 224.457,271.724 L 224.365,271.808 L 224.268,271.889 L 224.167,271.972 L 224.061,272.051 L 223.948,272.128 L 223.829,272.207 L 223.708,272.281 L 223.583,272.355 L 223.451,272.425 L 223.316,272.495 L 223.173,272.564 L 223.028,272.629 L 222.877,272.693 L 222.721,272.756 L 222.563,272.817 L 222.399,272.873 L 222.231,272.929 L 222.053,272.984 L 221.876,273.036 L 221.695,273.085 L 221.504,273.133 L 221.315,273.179 L 221.119,273.221 L 220.916,273.263 L 220.713,273.303 L 220.504,273.337 L 220.293,273.373 L 219.853,273.433 L 219.399,273.488 L 218.928,273.531 L 218.444,273.565 L 217.943,273.591 L 217.428,273.607 L 216.899,273.612 L 216.355,273.609 L 215.797,273.599 L 215.228,273.577 L 214.645,273.545 L 214.049,273.505 L 213.44,273.457 L 212.82,273.399 L 212.189,273.332 L 211.545,273.255 L 210.891,273.169 L 210.227,273.073 L 209.551,272.971 L 208.865,272.856 L 208.171,272.735 L 207.465,272.603 L 206.752,272.463 L 206.028,272.312 L 205.297,272.153 L 204.557,271.985 L 203.809,271.808 L 203.055,271.623 L 202.291,271.429 L 201.521,271.227 L 200.744,271.013 L 199.961,270.791 L 199.172,270.561 L 198.376,270.323 L 197.575,270.076 L 196.768,269.819 L 195.956,269.553 L 195.14,269.28 L 194.319,268.997 L 193.495,268.707 L 192.665,268.407 L 191.832,268.099 L 190.999,267.781 L 190.16,267.456 L 189.317,267.123 L 188.479,266.781 L 187.647,266.437 L 186.825,266.088 L 186.011,265.736 L 185.205,265.379 L 184.408,265.019 L 183.62,264.656 L 182.84,264.288 L 182.071,263.919 L 181.311,263.547 L 180.56,263.171 L 179.82,262.795 L 179.091,262.416 L 178.372,262.033 L 177.664,261.648 L 176.968,261.263 L 176.281,260.876 L 175.607,260.488 L 174.945,260.1 L 174.293,259.709 L 173.655,259.319 L 173.029,258.927 L 172.416,258.535 L 171.816,258.141 L 171.229,257.749 L 170.655,257.357 L 170.095,256.967 L 169.549,256.576 L 169.017,256.185 L 168.5,255.796 L 167.997,255.408 L 167.508,255.021 L 167.035,254.637 L 166.576,254.252 L 166.135,253.871 L 165.708,253.492 L 165.297,253.115 L 164.903,252.741 L 164.527,252.371 L 164.165,252.003 L 163.82,251.64 L 163.493,251.277 L 163.184,250.923 L 162.892,250.571 L 162.616,250.22 L 162.488,250.049 L 162.361,249.879 L 162.24,249.709 L 162.124,249.543 L 162.013,249.375 L 161.904,249.209 L 161.803,249.045 L 161.704,248.881 L 161.611,248.721 L 161.523,248.563 L 161.44,248.407 L 161.36,248.248 L 161.287,248.095 L 161.217,247.941 L 161.152,247.792 L 161.093,247.645 L 161.039,247.497 L 160.988,247.352 L 160.943,247.209 L 160.903,247.072 L 160.867,246.932 L 160.835,246.796 L 160.808,246.661 L 160.785,246.532 L 160.769,246.404 L 160.756,246.275 L 160.748,246.151 L 160.744,246.028 L 160.743,245.908 L 160.749,245.792 L 160.759,245.673 L 160.771,245.561 L 160.788,245.449 L 160.811,245.337 L 160.836,245.229 L 160.865,245.124 L 160.901,245.019 L 160.94,244.916 L 160.984,244.815 L 161.031,244.716 L 161.081,244.619 L 161.139,244.521 L 161.2,244.424 L 161.261,244.333 L 161.331,244.245 L 161.407,244.152 L 161.484,244.064 L 161.565,243.977 L 161.651,243.895 L 161.747,243.808 L 161.843,243.725 L 161.941,243.647 L 162.051,243.565 L 162.163,243.488 L 162.279,243.409 L 162.4,243.335 L 162.525,243.263 L 162.659,243.189 L 162.793,243.12 L 162.935,243.052 L 163.077,242.988 L 163.227,242.924 L 163.384,242.861 L 163.543,242.8 L 163.708,242.743 L 163.875,242.687 L 164.048,242.633 L 164.229,242.581 L 164.411,242.531 L 164.596,242.484 L 164.788,242.437 L 164.981,242.395 L 165.181,242.355 L 165.387,242.315 L 165.595,242.279 L 165.805,242.244 L 166.245,242.181 L 166.697,242.128 L 167.165,242.085 L 167.649,242.051 L 168.147,242.024 L 168.661,242.009 L 169.191,242.001 L 169.732,242.004 L 170.287,242.016 L 170.856,242.036 L 171.437,242.065 L 172.031,242.105 L 172.641,242.155 Z "/>
				</g>
			</g>
			<path id="dp_path035" fill="none" fill-rule="evenodd" stroke="black" stroke-width="1.33333" d="M 118.085,511.433 L 128.752,511.433"/>
			<path id="dp_path017" fill="black" fill-rule="evenodd" d="M 254.543,464.048 L 254.543,464.049 L -14.816,395.464 L -15.3227,397.461 L 254.036,466.047 L 253.021,470.041 L 264.277,467.584 L 255.557,460.053 Z "/>
			<path id="dp_path018" fill="black" fill-rule="evenodd" d="M 254.543,399.459 L 254.543,399.457 L -14.816,468.043 L -15.3227,466.045 L 254.036,397.46 L 253.021,393.465 L 264.277,395.923 L 255.557,403.453 Z "/>
			<path id="dp_path046" fill="black" fill-rule="evenodd" d="M 124.201,433.024 L 124.203,280.119 L 121.536,280.119 L 121.535,433.024 Z "/>
			<path id="dp_path019" fill="#00b050" fill-rule="evenodd" fill-opacity="0.501961" stroke="#005c2a" stroke-width="1.33333" d="M 123.175,549.411 C 177.931,549.411 222.319,535.796 222.319,519.001 C 222.319,515.397 220.848,511.359 217.093,508.151 L 216.523,507.66 L 123.175,430.511 L 31.16,507.66 C 30.3813,508.255 29.6627,508.856 29.0053,509.467 L 26.9227,511.551 L 27.6947,510.785 C 25.3093,513.4 24.032,516.155 24.032,519.001 C 24.032,535.796 68.42,549.411 123.175,549.411 Z "/>
			<g id="dp_group020">
				<path id="dp_path066" fill="black" fill-rule="evenodd" stroke="none" stroke-width="2.77067" d="M 65.3813,516.88 L 75.7827,516.88 L 75.7827,518.439 L 65.3813,518.439 Z "/>
				<text id="dp_text014" transform="matrix(1,5.55112e-016,-6.66134e-016,1,77.924,524.663)" xml:space="preserve" fill="black" font-family="Arial" font-size="22" font-weight="400" font-style="italic" x="0" y="0">h</text>
				<text id="dp_text015" transform="matrix(1,5.55112e-016,-6.66134e-016,1,77.924,524.663)" xml:space="preserve" fill="black" font-family="Arial" font-size="22" font-weight="400" x="12.2613" y="0">/2</text>
				<text id="dp_text016" transform="matrix(1,5.55112e-016,-6.66134e-016,1,77.924,524.663)" xml:space="preserve" fill="black" font-family="Arial" font-size="22" font-weight="400" font-style="italic" x="30.624" y="0"> </text>
				<path id="dp_path068" fill="none" fill-rule="evenodd" stroke="black" stroke-width="1.33333" d="M 79.924,511.961 L 89.124,511.761"/>
			</g>
			<path id="dp_path018" fill="#00b050" fill-rule="evenodd" fill-opacity="0.498039" stroke="#005c2a" stroke-width="1.33333" d="M 123.499,401.128 C 189.367,401.128 242.763,414.56 242.763,431.128 C 242.763,447.696 189.367,461.128 123.499,461.128 C 57.632,461.128 4.236,447.696 4.236,431.128 C 4.236,414.56 57.632,401.128 123.499,401.128 Z "/>
			<path id="dp_path024" fill="#00b050" fill-rule="evenodd" fill-opacity="0.501961" stroke="#005c2a" stroke-width="1.33333" d="M 122.545,312.871 C 177.3,312.871 221.688,326.303 221.688,342.871 C 221.688,346.427 220.217,350.411 216.463,353.576 L 215.892,354.06 L 122.544,430.171 L 30.5293,354.06 C 29.752,353.473 29.032,352.88 28.3747,352.277 L 26.292,350.221 L 27.064,350.976 C 24.6787,348.397 23.4027,345.679 23.4027,342.871 C 23.4027,326.303 67.7893,312.871 122.545,312.871 Z "/>
			<path id="dp_path035" fill="black" fill-rule="evenodd" stroke="black" stroke-width="1.33333" d="M 117.085,350.848 L 127.752,350.848"/>
			<g id="dp_group025">
				<text id="dp_text017" transform="matrix(1,1.16573e-015,-1.11022e-015,1,66.667,351.338)" xml:space="preserve" fill="black" font-family="Arial" font-size="22" font-weight="400" font-style="italic" x="0" y="0">+h</text>
				<text id="dp_text018" transform="matrix(1,1.16573e-015,-1.11022e-015,1,66.667,351.338)" xml:space="preserve" fill="black" font-family="Arial" font-size="22" font-weight="400" x="25.1093" y="0">/2</text>
				<text id="dp_text019" transform="matrix(1,1.16573e-015,-1.11022e-015,1,66.667,351.338)" xml:space="preserve" fill="black" font-family="Arial" font-size="22" font-weight="400" font-style="italic" x="43.472" y="0">  </text>
				<path id="dp_path034" fill="none" fill-rule="evenodd" stroke="black" stroke-width="1.33333" d="M 80.6667,338.636 L 89.8667,338.436"/>
			</g>
			<text id="dp_text020" transform="matrix(1,6.10623e-016,-6.66134e-016,1,153.415,308.112)" xml:space="preserve" fill="#005c2a" font-family="Arial" font-size="22" font-weight="700" x="0" y="0">S</text>
			<text id="dp_text021" transform="matrix(1,6.10623e-016,-6.66134e-016,1,153.415,308.112)" xml:space="preserve" fill="#005c2a" font-family="Arial" font-size="22" font-weight="400" font-style="italic" x="14.6667" y="0">  </text>
			<path id="dp_path031" fill="#005c2a" fill-rule="evenodd" d="M 163.192,328.495 L 122.657,431.297 L 125.133,432.284 L 165.669,329.483 L 170.623,331.457 L 169.369,316.604 L 158.237,326.519 L 163.191,328.493 Z "/>
			<path id="dp_path032" fill="#005c2a" fill-rule="evenodd" d="M 193.957,413.129 L 122.92,431.359 L 123.584,433.941 L 194.621,415.712 L 195.949,420.876 L 207.203,411.099 L 192.629,407.963 L 193.957,413.128 Z "/>
			<path id="dp_path033" fill="#005c2a" fill-rule="evenodd" d="M 99.336,424.115 L 124.164,430.172 L 123.5,432.755 L 98.672,426.697 L 97.344,431.861 L 86.0907,422.084 L 100.664,418.948 L 99.336,424.113 Z "/>
			<path id="dp_path034" fill="#005c2a" fill-rule="evenodd" d="M 121.372,363.411 L 121.371,432.879 L 124.037,432.879 L 124.039,363.411 L 129.371,363.411 L 122.704,350.077 L 116.037,363.411 L 121.371,363.411 Z "/>
			<path id="dp_path035" fill="#00b050" fill-rule="evenodd" fill-opacity="0.501961" stroke="#005c2a" stroke-width="1.33333" d="M 119.252,373.392 C 120.324,373.408 121.399,373.417 122.477,373.417 C 165.452,373.417 201.319,362.368 215.891,354.043 L 215.887,354.043 L 215.892,354.043 L 122.3,429.624 L 29.1067,353.201 C 41.7387,360.172 77.9827,372.759 119.252,373.392 Z "/>
			<text id="dp_text022" transform="matrix(1,5.55112e-016,-6.66134e-016,1,99.4843,460.525)" xml:space="preserve" fill="black" font-family="Arial" font-size="22" font-weight="400" x="0" y="0">0 </text>
		</g>
		<text id="dp_text023" transform="matrix(1,6.10623e-016,-6.66134e-016,1,395.549,558.214)" xml:space="preserve" fill="#005c2a" font-family="Arial" font-size="22" font-weight="700" x="0" y="0">S</text>
		<text id="dp_text024" transform="matrix(1,6.10623e-016,-6.66134e-016,1,395.549,558.214)" xml:space="preserve" fill="#005c2a" font-family="Arial" font-size="22" font-weight="400" font-style="italic" x="14.6667" y="0">  </text>
		<path id="dp_path060" fill="#005c2a" fill-rule="evenodd" stroke="none" stroke-width="2.77067" d="M 377.917,548.704 L 390.324,548.704 L 390.324,551.061 L 377.917,551.061 Z "/>
		<path id="dp_path046" fill="black" fill-rule="evenodd" d="M 468.48,575.599 L 468.481,425.36 L 465.815,425.36 L 465.813,575.599 Z "/>
		<path id="dp_path045" fill="black" fill-rule="evenodd" d="M 464.868,273.912 L 467.535,273.912 L 472.868,273.912 L 466.201,258.515 L 459.535,273.912 Z "/>
		<path id="dp_path039" fill="#00b050" fill-rule="evenodd" fill-opacity="0.501961" stroke="#005c2a" stroke-opacity="0.501961" stroke-width="1.33333" d="M 463.216,481.925 C 464.287,481.909 465.361,481.9 466.44,481.9 C 509.416,481.9 545.283,493.18 559.855,501.68 L 559.851,501.68 L 559.855,501.68 L 466.263,424.516 L 373.069,502.539 C 385.703,495.423 421.945,482.572 463.216,481.925 Z "/>
		<text id="dp_text025" transform="matrix(1,6.10623e-016,-6.66134e-016,1,454.193,243.456)" xml:space="preserve" fill="black" font-family="Arial" font-size="22" font-weight="400" font-style="italic" x="0" y="0">S  </text>
		<text id="dp_text026" transform="matrix(1,6.66134e-016,-6.66134e-016,1,467.121,249.228)" xml:space="preserve" fill="black" font-family="Arial" font-size="17" font-weight="400" font-style="italic" x="0" y="0">z </text>
		<text id="dp_text027" transform="matrix(1,6.66134e-016,-6.66134e-016,1,475.781,249.228)" xml:space="preserve" fill="black" font-family="Times New Roman" font-size="13" font-weight="400" font-style="italic" x="0" y="0">  </text>
		<text id="dp_text028" transform="matrix(1,6.10623e-016,-6.66134e-016,1,615.331,390.622)" xml:space="preserve" fill="black" font-family="Arial" font-size="22" font-weight="400" font-style="italic" x="0" y="0">S  </text>
		<text id="dp_text029" transform="matrix(1,6.10623e-016,-6.66134e-016,1,628.259,396.394)" xml:space="preserve" fill="black" font-family="Arial" font-size="17" font-weight="400" font-style="italic" x="0" y="0">y </text>
		<text id="dp_text030" transform="matrix(1,6.66134e-016,-6.66134e-016,1,636.919,396.394)" xml:space="preserve" fill="black" font-family="Times New Roman" font-size="13" font-weight="400" font-style="italic" x="0" y="0">  </text>
		<text id="dp_text031" transform="matrix(1,6.10623e-016,-6.66134e-016,1,613.712,475.236)" xml:space="preserve" fill="black" font-family="Arial" font-size="22" font-weight="400" font-style="italic" x="0" y="0">S  </text>
		<text id="dp_text032" transform="matrix(1,6.10623e-016,-6.66134e-016,1,625.64,481.008)" xml:space="preserve" fill="black" font-family="Arial" font-size="17" font-weight="400" font-style="italic" x="0" y="0">x </text>
		<text id="dp_text033" transform="matrix(1,6.66134e-016,-6.66134e-016,1,634.3,481.008)" xml:space="preserve" fill="black" font-family="Times New Roman" font-size="13" font-weight="400" font-style="italic" x="0" y="0">  </text>
		<g id="dp_group049">
			<g id="dp_group033">
				<path id="dp_path035" fill="#00b050" fill-rule="evenodd" d="M 387.131,636.851 L 384.545,635.868 L 379.376,633.905 L 380.931,649.284 L 392.3,638.813 Z "/>
				<path id="dp_path036" fill="#00b050" fill-rule="evenodd" d="M 417.839,548.207 L 384.545,635.868 L 387.129,636.849 L 420.423,549.188 Z "/>
			</g>
			<path id="dp_path047" fill="#21d26d" fill-rule="evenodd" fill-opacity="0.501961" stroke="black" stroke-opacity="0.501961" stroke-width="1.33333" d="M 409.947,573.392 L 414.376,562.252"/>
			<path id="dp_path048" fill="#00b050" fill-rule="evenodd" fill-opacity="0.501961" stroke="black" stroke-opacity="0.501961" stroke-width="1.33333" d="M 391.833,618.927 C 404.408,623.927 418.656,617.788 423.657,605.215 C 428.659,592.64 422.52,578.392 409.945,573.391 C 397.372,568.389 383.123,574.528 378.123,587.103 C 373.12,599.676 379.26,613.925 391.833,618.927 Z "/>
			<path id="dp_path049" fill="#21d26d" fill-rule="evenodd" fill-opacity="0.501961" stroke="black" stroke-opacity="0.501961" stroke-width="1.33333" d="M 387.404,630.067 L 394.42,612.427"/>
			<g id="dp_group050">
				<path id="dp_path052" fill="black" fill-rule="evenodd" fill-opacity="0.501961" d="M 370.948,589.164 L 370.032,590.135 L 368.203,592.075 L 375.341,594.221 L 372.775,587.224 Z "/>
				<path id="dp_path053" fill="black" fill-rule="evenodd" fill-opacity="0.501961" d="M 421.199,613.141 L 421.819,613.191 L 422.432,613.229 L 423.033,613.261 L 423.621,613.281 L 424.199,613.295 L 424.764,613.297 L 425.315,613.289 L 425.853,613.272 L 426.38,613.247 L 426.892,613.209 L 427.389,613.163 L 427.875,613.107 L 428.341,613.037 L 428.575,613.001 L 428.803,612.961 L 429.023,612.919 L 429.241,612.875 L 429.457,612.827 L 429.669,612.777 L 429.88,612.724 L 430.085,612.667 L 430.281,612.608 L 430.479,612.548 L 430.672,612.483 L 430.861,612.416 L 431.048,612.347 L 431.228,612.275 L 431.405,612.199 L 431.58,612.12 L 431.749,612.039 L 431.915,611.952 L 432.075,611.864 L 432.232,611.773 L 432.384,611.679 L 432.533,611.583 L 432.677,611.48 L 432.813,611.377 L 432.953,611.268 L 433.081,611.157 L 433.207,611.045 L 433.329,610.924 L 433.447,610.801 L 433.557,610.675 L 433.659,610.549 L 433.761,610.415 L 433.857,610.275 L 433.944,610.139 L 434.027,609.999 L 434.105,609.852 L 434.177,609.701 L 434.243,609.547 L 434.301,609.392 L 434.352,609.235 L 434.399,609.073 L 434.437,608.912 L 434.469,608.751 L 434.495,608.587 L 434.515,608.421 L 434.528,608.256 L 434.535,608.088 L 434.535,607.919 L 434.529,607.749 L 434.517,607.58 L 434.5,607.408 L 434.477,607.236 L 434.448,607.063 L 434.413,606.889 L 434.375,606.716 L 434.328,606.541 L 434.277,606.365 L 434.221,606.192 L 434.161,606.017 L 434.095,605.841 L 434.023,605.661 L 433.947,605.485 L 433.865,605.305 L 433.779,605.128 L 433.689,604.951 L 433.595,604.769 L 433.492,604.587 L 433.388,604.404 L 433.279,604.225 L 433.165,604.043 L 433.047,603.859 L 432.924,603.676 L 432.796,603.492 L 432.664,603.307 L 432.528,603.12 L 432.385,602.933 L 432.091,602.56 L 431.779,602.184 L 431.451,601.805 L 431.104,601.424 L 430.743,601.04 L 430.364,600.655 L 429.969,600.268 L 429.557,599.877 L 429.129,599.485 L 428.689,599.095 L 428.232,598.7 L 427.76,598.305 L 427.272,597.908 L 426.771,597.512 L 426.253,597.112 L 425.723,596.713 L 425.18,596.315 L 424.62,595.913 L 424.049,595.515 L 423.463,595.113 L 422.865,594.716 L 422.253,594.315 L 421.629,593.916 L 420.993,593.517 L 420.344,593.12 L 419.684,592.723 L 419.012,592.328 L 418.327,591.933 L 417.631,591.541 L 416.924,591.151 L 416.207,590.761 L 415.477,590.373 L 414.737,589.988 L 413.987,589.607 L 413.227,589.227 L 412.457,588.849 L 411.679,588.476 L 410.891,588.104 L 410.092,587.736 L 409.287,587.372 L 408.469,587.012 L 407.648,586.656 L 406.813,586.301 L 405.973,585.953 L 405.125,585.609 L 404.275,585.271 L 403.427,584.943 L 402.58,584.621 L 401.737,584.309 L 400.9,584.005 L 400.065,583.712 L 399.235,583.427 L 398.409,583.148 L 397.587,582.881 L 396.772,582.621 L 395.959,582.372 L 395.153,582.127 L 394.352,581.895 L 393.559,581.671 L 392.771,581.456 L 391.992,581.249 L 391.216,581.051 L 390.449,580.863 L 389.691,580.684 L 388.939,580.513 L 388.195,580.352 L 387.459,580.199 L 386.731,580.057 L 386.015,579.923 L 385.304,579.797 L 384.607,579.683 L 383.916,579.576 L 383.236,579.479 L 382.567,579.389 L 381.907,579.311 L 381.257,579.243 L 380.621,579.183 L 379.996,579.132 L 379.383,579.091 L 378.78,579.059 L 378.188,579.037 L 377.608,579.025 L 377.045,579.023 L 376.489,579.029 L 375.949,579.047 L 375.424,579.072 L 374.909,579.108 L 374.408,579.156 L 373.924,579.212 L 373.455,579.277 L 373.22,579.316 L 372.995,579.355 L 372.768,579.397 L 372.551,579.443 L 372.335,579.489 L 372.121,579.54 L 371.915,579.593 L 371.709,579.648 L 371.507,579.708 L 371.312,579.768 L 371.117,579.832 L 370.928,579.9 L 370.74,579.969 L 370.561,580.041 L 370.381,580.119 L 370.207,580.197 L 370.04,580.279 L 369.873,580.363 L 369.711,580.452 L 369.553,580.543 L 369.401,580.637 L 369.253,580.733 L 369.108,580.835 L 368.968,580.94 L 368.832,581.048 L 368.7,581.16 L 368.575,581.276 L 368.455,581.393 L 368.339,581.515 L 368.225,581.64 L 368.119,581.771 L 368.02,581.904 L 367.927,582.039 L 367.835,582.18 L 367.752,582.323 L 367.676,582.468 L 367.603,582.619 L 367.539,582.772 L 367.477,582.933 L 367.425,583.095 L 367.379,583.257 L 367.34,583.424 L 367.309,583.588 L 367.283,583.755 L 367.263,583.931 L 367.251,584.104 L 367.248,584.271 L 367.247,584.445 L 367.255,584.621 L 367.269,584.796 L 367.288,584.972 L 367.315,585.147 L 367.345,585.323 L 367.384,585.503 L 367.427,585.679 L 367.476,585.861 L 367.532,586.043 L 367.592,586.219 L 367.656,586.4 L 367.728,586.583 L 367.804,586.765 L 367.885,586.947 L 367.971,587.131 L 368.063,587.315 L 368.159,587.497 L 368.261,587.685 L 368.368,587.871 L 368.479,588.057 L 368.595,588.244 L 368.716,588.431 L 368.841,588.621 L 368.972,588.809 L 369.108,588.999 L 369.247,589.188 L 369.389,589.379 L 369.539,589.571 L 369.693,589.764 L 369.877,589.988 L 370.033,590.136 L 370.945,589.164 L 370.852,589.077 L 370.729,588.928 L 370.587,588.749 L 370.451,588.571 L 370.315,588.392 L 370.187,588.219 L 370.061,588.044 L 369.944,587.872 L 369.828,587.701 L 369.72,587.531 L 369.616,587.364 L 369.517,587.197 L 369.423,587.032 L 369.333,586.871 L 369.249,586.709 L 369.169,586.548 L 369.095,586.391 L 369.025,586.236 L 368.961,586.083 L 368.903,585.933 L 368.849,585.783 L 368.8,585.632 L 368.755,585.489 L 368.716,585.348 L 368.683,585.207 L 368.653,585.069 L 368.628,584.933 L 368.609,584.799 L 368.595,584.668 L 368.584,584.537 L 368.579,584.415 L 368.577,584.291 L 368.583,584.164 L 368.589,584.045 L 368.601,583.935 L 368.62,583.819 L 368.643,583.703 L 368.669,583.592 L 368.7,583.481 L 368.733,583.373 L 368.775,583.268 L 368.819,583.167 L 368.865,583.068 L 368.917,582.969 L 368.973,582.872 L 369.032,582.779 L 369.097,582.685 L 369.168,582.593 L 369.24,582.505 L 369.319,582.416 L 369.401,582.328 L 369.489,582.243 L 369.581,582.159 L 369.679,582.077 L 369.78,581.995 L 369.885,581.916 L 369.999,581.839 L 370.117,581.76 L 370.239,581.685 L 370.364,581.612 L 370.496,581.541 L 370.631,581.472 L 370.773,581.403 L 370.919,581.337 L 371.069,581.273 L 371.225,581.211 L 371.384,581.149 L 371.548,581.093 L 371.716,581.037 L 371.893,580.983 L 372.071,580.931 L 372.252,580.881 L 372.443,580.833 L 372.632,580.788 L 372.828,580.745 L 373.031,580.704 L 373.233,580.664 L 373.443,580.629 L 373.653,580.593 L 374.093,580.533 L 374.548,580.479 L 375.019,580.436 L 375.503,580.401 L 376.004,580.376 L 376.519,580.36 L 377.048,580.355 L 377.592,580.357 L 378.149,580.368 L 378.719,580.389 L 379.301,580.421 L 379.897,580.461 L 380.507,580.509 L 381.127,580.568 L 381.757,580.635 L 382.401,580.712 L 383.056,580.797 L 383.72,580.893 L 384.396,580.996 L 385.081,581.111 L 385.776,581.232 L 386.481,581.364 L 387.195,581.504 L 387.919,581.655 L 388.649,581.813 L 389.389,581.981 L 390.137,582.159 L 390.892,582.344 L 391.656,582.537 L 392.425,582.74 L 393.203,582.953 L 393.985,583.176 L 394.775,583.405 L 395.571,583.644 L 396.372,583.891 L 397.179,584.148 L 397.991,584.413 L 398.807,584.687 L 399.628,584.969 L 400.452,585.26 L 401.281,585.56 L 402.115,585.868 L 402.948,586.185 L 403.787,586.511 L 404.629,586.844 L 405.468,587.185 L 406.3,587.529 L 407.121,587.879 L 407.936,588.231 L 408.741,588.588 L 409.539,588.948 L 410.327,589.311 L 411.107,589.679 L 411.876,590.048 L 412.636,590.42 L 413.387,590.796 L 414.127,591.172 L 414.856,591.551 L 415.575,591.933 L 416.283,592.319 L 416.979,592.704 L 417.665,593.091 L 418.34,593.479 L 419.001,593.867 L 419.653,594.257 L 420.292,594.648 L 420.917,595.04 L 421.531,595.432 L 422.131,595.825 L 422.717,596.217 L 423.292,596.609 L 423.852,597 L 424.397,597.391 L 424.929,597.781 L 425.447,598.171 L 425.949,598.559 L 426.439,598.945 L 426.912,599.329 L 427.371,599.715 L 427.812,600.096 L 428.239,600.475 L 428.649,600.852 L 429.044,601.225 L 429.42,601.596 L 429.781,601.964 L 430.127,602.327 L 430.453,602.689 L 430.763,603.044 L 431.055,603.396 L 431.331,603.747 L 431.459,603.917 L 431.585,604.088 L 431.707,604.257 L 431.823,604.424 L 431.933,604.592 L 432.043,604.757 L 432.144,604.921 L 432.243,605.085 L 432.336,605.245 L 432.424,605.404 L 432.507,605.56 L 432.587,605.719 L 432.66,605.872 L 432.729,606.025 L 432.795,606.175 L 432.853,606.321 L 432.908,606.469 L 432.959,606.615 L 433.004,606.757 L 433.044,606.895 L 433.08,607.035 L 433.112,607.171 L 433.139,607.305 L 433.161,607.435 L 433.177,607.563 L 433.191,607.692 L 433.199,607.816 L 433.203,607.939 L 433.204,608.059 L 433.197,608.175 L 433.188,608.293 L 433.176,608.405 L 433.159,608.517 L 433.136,608.629 L 433.111,608.737 L 433.081,608.843 L 433.045,608.948 L 433.007,609.051 L 432.963,609.152 L 432.916,609.251 L 432.865,609.348 L 432.808,609.445 L 432.747,609.543 L 432.685,609.633 L 432.616,609.721 L 432.54,609.815 L 432.463,609.903 L 432.381,609.989 L 432.296,610.072 L 432.2,610.159 L 432.104,610.241 L 432.005,610.32 L 431.896,610.401 L 431.784,610.479 L 431.668,610.557 L 431.547,610.632 L 431.421,610.704 L 431.288,610.777 L 431.153,610.847 L 431.012,610.915 L 430.869,610.979 L 430.72,611.043 L 430.563,611.105 L 430.404,611.167 L 430.239,611.224 L 430.072,611.28 L 429.899,611.333 L 429.717,611.385 L 429.536,611.436 L 429.351,611.483 L 429.159,611.529 L 428.965,611.572 L 428.765,611.612 L 428.56,611.652 L 428.352,611.688 L 428.141,611.723 L 427.701,611.785 L 427.249,611.839 L 426.781,611.881 L 426.297,611.916 L 425.8,611.943 L 425.285,611.957 L 424.756,611.965 L 424.215,611.963 L 423.66,611.951 L 423.091,611.931 L 422.509,611.901 L 421.916,611.861 L 421.305,611.812 Z "/>
			</g>
		</g>
		<path id="dp_path035" fill="none" fill-rule="evenodd" stroke="black" stroke-width="1.33333" d="M 461.419,504.892 L 472.085,504.892"/>
		<path id="dp_path050" fill="black" fill-rule="evenodd" d="M 597.876,457.507 L 597.876,457.508 L 328.517,388.923 L 328.011,390.92 L 597.369,459.505 L 596.355,463.5 L 607.611,461.043 L 598.891,453.512 Z "/>
		<path id="dp_path051" fill="black" fill-rule="evenodd" d="M 597.876,392.917 L 597.876,392.916 L 328.517,461.501 L 328.011,459.504 L 597.369,390.919 L 596.355,386.924 L 607.611,389.381 L 598.891,396.912 Z "/>
		<path id="dp_path046" fill="black" fill-rule="evenodd" d="M 467.535,426.483 L 467.536,273.577 L 464.869,273.577 L 464.868,426.483 Z "/>
		<g id="dp_group052">
			<path id="dp_path053" fill="#005c2a" fill-rule="evenodd" d="M 467.616,493.829 L 467.617,424.361 L 464.951,424.361 L 464.949,493.829 L 459.617,493.829 L 466.284,507.163 L 472.951,493.829 L 467.617,493.829 Z "/>
			<path id="dp_path054" fill="#005c2a" fill-rule="evenodd" d="M 425.796,528.745 L 466.331,425.943 L 463.855,424.956 L 423.319,527.757 L 418.365,525.783 L 419.619,540.636 L 430.751,530.721 L 425.797,528.747 Z "/>
			<path id="dp_path055" fill="#005c2a" fill-rule="evenodd" d="M 395.031,444.111 L 466.068,425.881 L 465.404,423.299 L 394.367,441.528 L 393.039,436.364 L 381.785,446.141 L 396.359,449.277 L 395.031,444.112 Z "/>
			<path id="dp_path056" fill="#005c2a" fill-rule="evenodd" d="M 489.652,433.125 L 464.824,427.068 L 465.488,424.485 L 490.316,430.543 L 491.644,425.379 L 502.897,435.156 L 488.324,438.292 L 489.652,433.127 Z "/>
		</g>
		<path id="dp_path057" fill="#00b050" fill-rule="evenodd" fill-opacity="0.501961" stroke="#005c2a" stroke-width="1.33333" d="M 466.508,542.869 C 521.264,542.869 565.652,529.255 565.652,512.46 C 565.652,508.856 564.181,504.817 560.427,501.609 L 559.856,501.119 L 466.508,423.969 L 374.493,501.119 C 373.715,501.713 372.996,502.315 372.339,502.925 L 370.256,505.009 L 371.028,504.244 C 368.643,506.859 367.365,509.613 367.365,512.46 C 367.365,529.255 411.753,542.869 466.508,542.869 Z "/>
		<g id="dp_group058">
			<path id="dp_path066" fill="black" fill-rule="evenodd" stroke="none" stroke-width="2.77067" d="M 480.715,504.839 L 491.116,504.839 L 491.116,506.397 L 480.715,506.397 Z "/>
			<text id="dp_text034" transform="matrix(1,5.55112e-016,-6.66134e-016,1,493.257,512.622)" xml:space="preserve" fill="black" font-family="Arial" font-size="22" font-weight="400" font-style="italic" x="0" y="0">h</text>
			<text id="dp_text035" transform="matrix(1,5.55112e-016,-6.66134e-016,1,493.257,512.622)" xml:space="preserve" fill="black" font-family="Arial" font-size="22" font-weight="400" x="12.2613" y="0">/2</text>
			<text id="dp_text036" transform="matrix(1,5.55112e-016,-6.66134e-016,1,493.257,512.622)" xml:space="preserve" fill="black" font-family="Arial" font-size="22" font-weight="400" font-style="italic" x="30.624" y="0"> </text>
			<path id="dp_path068" fill="none" fill-rule="evenodd" stroke="black" stroke-width="1.33333" d="M 495.257,499.92 L 504.457,499.72"/>
		</g>
		<path id="dp_path018" fill="#00b050" fill-rule="evenodd" fill-opacity="0.498039" stroke="#005c2a" stroke-width="1.33333" d="M 466.832,394.587 C 532.7,394.587 586.096,408.019 586.096,424.587 C 586.096,441.155 532.7,454.587 466.832,454.587 C 400.965,454.587 347.569,441.155 347.569,424.587 C 347.569,408.019 400.965,394.587 466.832,394.587 Z "/>
		<text id="dp_text037" transform="matrix(1,5.55112e-016,-6.66134e-016,1,479.318,456.984)" xml:space="preserve" fill="black" font-family="Arial" font-size="22" font-weight="400" x="0" y="0">0 </text>
		<path id="dp_path063" fill="#00b050" fill-rule="evenodd" fill-opacity="0.501961" stroke="#005c2a" stroke-width="1.33333" d="M 465.879,306.329 C 520.633,306.329 565.021,319.761 565.021,336.329 C 565.021,339.885 563.551,343.869 559.796,347.035 L 559.225,347.519 L 465.877,423.629 L 373.863,347.519 C 373.085,346.932 372.365,346.339 371.708,345.736 L 369.625,343.68 L 370.397,344.435 C 368.012,341.856 366.736,339.137 366.736,336.329 C 366.736,319.761 411.123,306.329 465.879,306.329 Z "/>
		<path id="dp_path064" fill="#00b050" fill-rule="evenodd" fill-opacity="0.501961" stroke="#005c2a" stroke-width="1.33333" d="M 462.585,366.851 C 463.657,366.867 464.732,366.876 465.811,366.876 C 508.785,366.876 544.652,355.827 559.224,347.501 L 559.22,347.501 L 559.225,347.501 L 465.633,423.083 L 372.44,346.66 C 385.072,353.631 421.316,366.217 462.585,366.851 Z "/>
		<path id="dp_path035" fill="black" fill-rule="evenodd" stroke="black" stroke-width="1.33333" d="M 460.419,344.307 L 471.085,344.307"/>
		<g id="dp_group065">
			<text id="dp_text038" transform="matrix(1,1.16573e-015,-1.11022e-015,1,479,351.797)" xml:space="preserve" fill="black" font-family="Arial" font-size="22" font-weight="400" font-style="italic" x="0" y="0">+h</text>
			<text id="dp_text039" transform="matrix(1,1.16573e-015,-1.11022e-015,1,479,351.797)" xml:space="preserve" fill="black" font-family="Arial" font-size="22" font-weight="400" x="25.1093" y="0">/2</text>
			<text id="dp_text040" transform="matrix(1,1.16573e-015,-1.11022e-015,1,479,351.797)" xml:space="preserve" fill="black" font-family="Arial" font-size="22" font-weight="400" font-style="italic" x="43.472" y="0">  </text>
			<path id="dp_path034" fill="none" fill-rule="evenodd" stroke="black" stroke-width="1.33333" d="M 493,339.095 L 502.2,338.895"/>
		</g>
	</g>
</svg>